<svg width="120" height="41" viewBox="0 0 120 41" fill="none" xmlns="http://www.w3.org/2000/svg">
<rect x="0.75" y="0.75" width="118.5" height="39.5" rx="4.25" fill="white" stroke="#000100" stroke-width="1.5"/>
<path d="M20.3211 12.3047C20.1585 10.9955 20.8076 9.60735 21.5309 8.75455C22.3521 7.78805 23.7813 7.04738 24.9184 7C25.0652 8.36448 24.5283 9.70527 23.7402 10.6891C22.9222 11.6541 21.6051 12.4026 20.3211 12.3047Z" fill="#2E2C2F"/>
<path d="M29.7129 23.8827C29.6971 23.9632 29.2423 25.5488 28.1131 27.1486C27.1624 28.5636 26.1785 29.9439 24.6024 29.9676C23.0753 29.9992 22.5636 29.0658 20.8075 29.0658C19.045 29.0658 18.4923 29.9439 17.0299 29.9992C15.5265 30.056 14.391 28.4894 13.4071 27.0917C11.4488 24.2317 9.92955 19.0328 11.9684 15.4968C12.9523 13.7596 14.7637 12.6447 16.6888 12.6131C18.1828 12.5894 19.5804 13.6286 20.4995 13.6286C21.4013 13.6286 23.1227 12.3762 24.8946 12.5641C25.6353 12.5894 27.7468 12.8642 29.1112 14.8478C29.0054 14.9125 26.6002 16.3275 26.6255 19.2349C26.6587 22.7125 29.6734 23.8669 29.7129 23.8827Z" fill="#2E2C2F"/>
<path d="M42.8808 17.7959H40.493L36.6333 29.7967H38.6247L39.6876 26.2702H43.5868L44.7081 29.7967H46.7548L42.8808 17.7959ZM40.0287 24.792L41.0284 21.6651C41.2874 20.6733 41.4737 19.9184 41.5969 19.4067H41.6364C41.9301 20.5928 42.1323 21.3398 42.2381 21.6651L43.2535 24.792H40.0287Z" fill="#2E2C2F"/>
<path d="M55.6365 22.1765C54.9543 21.3727 54.1094 20.9668 53.086 20.9668C51.7863 20.9668 50.8103 21.4864 50.1691 22.5176H50.1359L50.0301 21.1437H48.3403C48.3893 22.1181 48.413 23.0609 48.413 23.9879V33.3071H50.3381V28.7652C50.8419 29.5864 51.6615 29.9923 52.808 29.9923C53.8646 29.9923 54.7584 29.618 55.4738 28.8552C56.2793 28.0024 56.6756 26.8401 56.6756 25.3698C56.6772 24.0448 56.3345 22.9882 55.6365 22.1765ZM54.1094 27.6439C53.7035 28.1966 53.1429 28.4809 52.4196 28.4809C51.8021 28.4809 51.2983 28.2614 50.9161 27.8318C50.5339 27.4007 50.3397 26.8637 50.3397 26.2399V24.7933C50.3397 24.6386 50.3713 24.4443 50.4297 24.209C50.5434 23.6958 50.804 23.2899 51.1846 22.974C51.5747 22.6661 52.0058 22.5034 52.4764 22.5034C53.176 22.5034 53.7351 22.7877 54.1504 23.3562C54.5326 23.9011 54.719 24.5912 54.719 25.4361C54.719 26.3521 54.5152 27.0833 54.1094 27.6439Z" fill="#2E2C2F"/>
<path d="M65.5812 22.1765C64.899 21.3727 64.0541 20.9668 63.0307 20.9668C61.731 20.9668 60.7566 21.4864 60.1138 22.5176H60.0822L59.9764 21.1437H58.2866C58.3356 22.1181 58.3593 23.0609 58.3593 23.9879V33.3071H60.2844V28.7652C60.7882 29.5864 61.6094 29.9923 62.7544 29.9923C63.8109 29.9923 64.7047 29.618 65.4186 28.8552C66.224 28.0024 66.622 26.8401 66.622 25.3698C66.622 24.0448 66.2808 22.9882 65.5812 22.1765ZM64.0541 27.6439C63.6561 28.1966 63.086 28.4809 62.3643 28.4809C61.7468 28.4809 61.243 28.2614 60.8608 27.8318C60.4786 27.4007 60.2828 26.8637 60.2828 26.2399V24.7933C60.2828 24.6386 60.316 24.4443 60.3728 24.209C60.4944 23.6958 60.7471 23.2899 61.1293 22.974C61.5194 22.6661 61.9489 22.5034 62.4211 22.5034C63.1191 22.5034 63.6798 22.7877 64.0936 23.3562C64.4757 23.9011 64.6621 24.5912 64.6621 25.4361C64.6637 26.3521 64.4678 27.0833 64.0541 27.6439Z" fill="#2E2C2F"/>
<path d="M77.0119 24.3447C77.5078 24.9054 77.751 25.6034 77.751 26.4325C77.751 27.4559 77.3941 28.285 76.6865 28.9262C75.9064 29.6242 74.8183 29.9748 73.4206 29.9748C72.1272 29.9748 71.0975 29.7221 70.3174 29.2278L70.7643 27.6265C71.6092 28.1223 72.5362 28.3734 73.5422 28.3734C74.2655 28.3734 74.8341 28.2108 75.232 27.887C75.6379 27.5617 75.8416 27.1227 75.8416 26.5794C75.8416 26.0914 75.6711 25.6855 75.3458 25.3523C75.0125 25.0191 74.4598 24.7096 73.6875 24.4253C71.5666 23.6372 70.5195 22.4907 70.5195 20.9888C70.5195 20.0065 70.8938 19.2011 71.6329 18.5678C72.3736 17.9424 73.3559 17.625 74.583 17.625C75.6711 17.625 76.5807 17.8129 77.304 18.1935L76.8176 19.7538C76.1354 19.389 75.371 19.2011 74.5103 19.2011C73.836 19.2011 73.299 19.3717 72.9184 19.697C72.601 19.997 72.4383 20.3555 72.4383 20.7867C72.4383 21.2573 72.6263 21.6568 72.9911 21.9569C73.3085 22.2412 73.8928 22.5491 74.7377 22.8824C75.769 23.2977 76.5239 23.7841 77.0119 24.3447Z" fill="#2E2C2F"/>
<path d="M82.0008 21.1434H84.1217V22.59H82.0008V26.7908C82.0008 27.8552 82.375 28.3906 83.122 28.3906C83.4631 28.3906 83.7474 28.359 83.9748 28.3006L84.0317 29.763C83.6495 29.9004 83.1552 29.9746 82.5377 29.9746C81.7733 29.9746 81.189 29.7393 80.7579 29.275C80.3283 28.8123 80.1151 28.0321 80.1151 26.944V22.5805H78.8564V21.1418H80.1151V19.5578L82.0008 18.9893V21.1434Z" fill="#2E2C2F"/>
<path d="M92.5549 22.2408C91.7842 21.3959 90.7592 20.9727 89.4927 20.9727C88.1756 20.9727 87.1285 21.4038 86.3484 22.2566C85.5761 23.1094 85.186 24.207 85.186 25.5462C85.186 26.8301 85.5603 27.8945 86.3152 28.7316C87.0717 29.5686 88.0871 29.9902 89.3537 29.9902C90.6708 29.9902 91.7258 29.5512 92.5217 28.6731C93.2766 27.8203 93.6588 26.7322 93.6588 25.3993C93.6603 24.1091 93.294 23.0525 92.5549 22.2408ZM91.1414 27.5045C90.7198 28.2041 90.1418 28.5531 89.4106 28.5531C88.6636 28.5531 88.0777 28.212 87.6639 27.5203C87.3228 26.9596 87.1522 26.2774 87.1522 25.4814C87.1522 24.6618 87.3149 23.9717 87.6639 23.4016C88.0619 22.7114 88.6557 22.3687 89.4279 22.3687C90.1749 22.3687 90.7514 22.7098 91.1588 23.4016C91.4999 23.9701 91.6705 24.6444 91.6705 25.4404C91.6689 26.2379 91.4905 26.9201 91.1414 27.5045Z" fill="#2E2C2F"/>
<path d="M99.908 20.998L99.9159 22.8331C99.7295 22.8015 99.5258 22.7841 99.3079 22.7841C98.6335 22.7841 98.106 23.0368 97.7396 23.5485C97.4222 23.9939 97.2596 24.5719 97.2596 25.2541V29.7961H95.3344V23.8659C95.3344 22.8663 95.3186 21.9566 95.2776 21.1433H96.9516L97.0243 22.8015H97.0811C97.2833 22.233 97.6007 21.7687 98.0397 21.4276C98.4708 21.1196 98.9336 20.9648 99.4295 20.9648C99.6063 20.9648 99.769 20.9822 99.908 20.998Z" fill="#2E2C2F"/>
<path d="M108.512 25.0601C108.512 23.9799 108.253 23.0782 107.741 22.3296C107.106 21.4041 106.157 20.9414 104.913 20.9414C103.646 20.9414 102.639 21.4041 101.89 22.3296C101.175 23.1998 100.818 24.2879 100.818 25.5892C100.818 26.9126 101.2 27.977 101.963 28.7651C102.727 29.5531 103.782 29.9511 105.123 29.9511C106.236 29.9511 107.203 29.7726 108.024 29.4141L107.724 28.0828C107.024 28.3513 106.244 28.4887 105.391 28.4887C104.62 28.4887 103.994 28.285 103.507 27.887C102.97 27.4401 102.695 26.7815 102.67 25.9287H108.438C108.487 25.6934 108.512 25.4012 108.512 25.0601ZM102.678 24.5563C102.735 23.9783 102.931 23.4761 103.247 23.0608C103.637 22.5412 104.148 22.2806 104.774 22.2806C105.456 22.2806 105.969 22.5491 106.301 23.086C106.56 23.4998 106.691 23.9957 106.675 24.5642L102.678 24.5563Z" fill="#2E2C2F"/>
<path d="M40.8246 7.66504C42.8176 7.66504 43.9973 8.89055 43.9973 11.0052C43.9973 13.123 42.8224 14.3674 40.8246 14.3674H38.4604V7.66504H40.8246ZM39.4996 13.4672H40.7251C42.1464 13.4672 42.9313 12.5986 42.9313 11.0147C42.9313 9.43539 42.1417 8.56206 40.7251 8.56206H39.4996V13.4672Z" fill="#2E2C2F"/>
<path d="M44.6465 11.9241C44.6465 10.3544 45.5703 9.39258 46.9648 9.39258C48.3577 9.39258 49.2832 10.3544 49.2832 11.9241C49.2832 13.4987 48.364 14.4604 46.9648 14.4604C45.5656 14.4604 44.6465 13.4987 44.6465 11.9241ZM48.2598 11.9241C48.2598 10.8423 47.7481 10.2201 46.9632 10.2201C46.1784 10.2201 45.6667 10.8423 45.6667 11.9241C45.6667 13.0107 46.1768 13.6329 46.9632 13.6329C47.7545 13.6345 48.2598 13.0122 48.2598 11.9241Z" fill="#2E2C2F"/>
<path d="M55.1486 14.3677H54.1031L53.0766 10.707H53.0529L52.0358 14.3677H50.9998L49.6575 9.48145H50.6603L51.5526 13.3269H51.5715L52.5886 9.48145H53.5551L54.5769 13.3269H54.6006L55.4928 9.48145H56.4862L55.1486 14.3677Z" fill="#2E2C2F"/>
<path d="M57.0989 9.48116H58.0559V10.2992H58.0796C58.3449 9.74173 58.8645 9.39746 59.6162 9.39746C60.6933 9.39746 61.3108 10.0844 61.3108 11.2041V14.3674H60.3032V11.4C60.3032 10.6656 59.9589 10.2613 59.2625 10.2613C58.5565 10.2613 58.1017 10.7635 58.1017 11.52V14.3674H57.0989V9.48116Z" fill="#2E2C2F"/>
<path d="M62.3152 7.66504H63.318V14.3674H62.3152V7.66504Z" fill="#2E2C2F"/>
<path d="M64.1313 11.9241C64.1313 10.3544 65.0552 9.39258 66.4497 9.39258C67.8426 9.39258 68.7681 10.3544 68.7681 11.9241C68.7681 13.4987 67.8489 14.4604 66.4497 14.4604C65.0505 14.4604 64.1313 13.4987 64.1313 11.9241ZM67.7447 11.9241C67.7447 10.8423 67.233 10.2201 66.4481 10.2201C65.6632 10.2201 65.1515 10.8423 65.1515 11.9241C65.1515 13.0107 65.6632 13.6329 66.4481 13.6329C67.2377 13.6345 67.7447 13.0122 67.7447 11.9241Z" fill="#2E2C2F"/>
<path d="M69.3462 12.9791C69.3462 12.1247 70.0016 11.6004 71.1623 11.5341L72.5 11.4551V11.0792C72.5 10.536 72.1336 10.2106 71.5193 10.2106C70.9381 10.2106 70.5764 10.4886 70.488 10.926H69.5404C69.5957 10.0432 70.349 9.39258 71.5556 9.39258C72.74 9.39258 73.4965 10.0195 73.4965 11.0003V14.3672H72.5347V13.5634H72.511C72.2283 14.1067 71.6093 14.4509 70.9697 14.4509C70.0158 14.4509 69.3462 13.8571 69.3462 12.9791ZM72.5 12.5385V12.1531L71.2966 12.2273C70.698 12.2684 70.3585 12.5337 70.3585 12.9522C70.3585 13.3802 70.7122 13.6582 71.2508 13.6582C71.952 13.6566 72.5 13.1733 72.5 12.5385Z" fill="#2E2C2F"/>
<path d="M74.2512 11.9243C74.2512 10.3829 75.0693 9.40222 76.2948 9.40222C76.996 9.40222 77.5535 9.75598 77.8282 10.2945H77.8472V7.66504H78.8548V14.3674H77.8788V13.5367H77.8598C77.5724 14.0942 77.0149 14.4511 76.3043 14.4511C75.0693 14.4511 74.2512 13.4672 74.2512 11.9243ZM75.2777 11.9243C75.2777 12.9556 75.7752 13.6015 76.5696 13.6015C77.3403 13.6015 77.8567 12.9461 77.8567 11.9243C77.8567 10.912 77.3418 10.2471 76.5696 10.2471C75.7752 10.2487 75.2777 10.8978 75.2777 11.9243Z" fill="#2E2C2F"/>
<path d="M81.5901 11.9241C81.5901 10.3544 82.514 9.39258 83.9084 9.39258C85.3014 9.39258 86.2268 10.3544 86.2268 11.9241C86.2268 13.4987 85.3077 14.4604 83.9084 14.4604C82.5092 14.4604 81.5901 13.4987 81.5901 11.9241ZM85.2034 11.9241C85.2034 10.8423 84.6933 10.2201 83.9069 10.2201C83.122 10.2201 82.6103 10.8423 82.6103 11.9241C82.6103 13.0107 83.122 13.6329 83.9069 13.6329C84.6965 13.6345 85.2034 13.0122 85.2034 11.9241Z" fill="#2E2C2F"/>
<path d="M87.0005 9.48116H87.9575V10.2992H87.9812C88.2465 9.74173 88.7661 9.39746 89.5178 9.39746C90.5949 9.39746 91.2124 10.0844 91.2124 11.2041V14.3674H90.2048V11.4C90.2048 10.6656 89.8605 10.2613 89.1641 10.2613C88.4582 10.2613 88.0033 10.7635 88.0033 11.52V14.3674H87.0005V9.48116Z" fill="#2E2C2F"/>
<path d="M95.4071 8.3252V9.48121H96.3357V10.2756H95.4071V12.9698C95.4071 13.393 95.5934 13.5826 96.0009 13.5826C96.1035 13.5826 96.2662 13.5731 96.3309 13.5589V14.3532C96.2188 14.3817 95.9961 14.399 95.7735 14.399C94.7848 14.399 94.3979 14.0232 94.3979 13.0804V10.2756H93.6873V9.48121H94.3979V8.3252H95.4071Z" fill="#2E2C2F"/>
<path d="M97.1963 7.66504H98.1896V10.2992H98.2133C98.4834 9.72755 99.0172 9.39749 99.7594 9.39749C100.832 9.39749 101.473 10.1129 101.473 11.2184V14.3674H100.465V11.4142C100.465 10.6941 100.104 10.2629 99.3978 10.2629C98.6539 10.2629 98.1991 10.7746 98.1991 11.5453V14.369H97.1963V7.66504Z" fill="#2E2C2F"/>
<path d="M106.629 12.9337C106.49 13.8259 105.645 14.4624 104.526 14.4624C103.09 14.4624 102.221 13.4911 102.221 11.9498C102.221 10.4163 103.104 9.39453 104.483 9.39453C105.84 9.39453 106.684 10.3516 106.684 11.8329V12.1772H103.234V12.2372C103.234 13.0868 103.745 13.6491 104.548 13.6491C105.119 13.6491 105.541 13.3616 105.677 12.9337H106.629ZM103.238 11.4744H105.682C105.658 10.7274 105.184 10.2015 104.483 10.2015C103.782 10.2015 103.289 10.7353 103.238 11.4744Z" fill="#2E2C2F"/>
</svg>
