<svg width="120" height="41" viewBox="0 0 120 41" fill="none" xmlns="http://www.w3.org/2000/svg">
<rect x="0.75" y="0.75" width="118.5" height="39.5" rx="4.25" fill="white" stroke="#000100" stroke-width="1.5"/>
<path d="M108.416 22.7692L106.627 27.3254H106.573L104.706 22.7692H103.018L105.815 29.1399L104.217 32.6822H105.858L110.171 22.7692H108.416ZM95.771 18.9869H94.2076V29.4968H95.771V18.9869ZM89.8899 18.9869H86.1328V29.4968H87.7073V25.5187H89.8962C91.736 25.5818 93.2789 24.1416 93.3421 22.3001C93.3421 22.2859 93.3437 22.2701 93.3437 22.2559C93.3058 20.4113 91.7787 18.9474 89.9341 18.9869C89.9199 18.9869 89.9041 18.9869 89.8899 18.9869ZM89.9309 24.0515H87.7073V20.4729H89.9388C90.9274 20.4729 91.7281 21.2736 91.7281 22.2622C91.7281 23.2509 90.9274 24.0515 89.9388 24.0515H89.9309ZM99.6244 22.5418C98.4542 22.4754 97.3566 23.1071 96.8275 24.1526L98.2236 24.7496C98.5063 24.2332 99.0685 23.9331 99.6544 23.9868C100.48 23.9047 101.216 24.5064 101.3 25.3323C101.3 25.3355 101.3 25.3371 101.302 25.3402V25.4476C100.801 25.1776 100.242 25.0354 99.6734 25.0354C98.1762 25.0354 96.6491 25.8582 96.6491 27.4217C96.6491 28.8288 97.8714 29.7353 99.2549 29.7353C100.057 29.7858 100.823 29.3926 101.246 28.7088H101.306V29.5205H102.833V25.476C102.833 23.6094 101.437 22.5718 99.637 22.5718L99.6244 22.5418ZM99.4381 28.3045C98.9248 28.3045 98.2094 28.0423 98.2094 27.409C98.2094 26.5973 99.0985 26.2878 99.8739 26.2878C100.375 26.2751 100.869 26.3952 101.305 26.6399C101.186 27.5828 100.389 28.2934 99.4381 28.3045ZM42.8832 29.7242C39.7942 29.7337 37.2721 27.259 37.2231 24.1716C37.2721 21.0841 39.7942 18.6078 42.8832 18.6189C44.3124 18.5952 45.6896 19.1479 46.7066 20.1523L45.6264 21.2199C44.8936 20.5029 43.9081 20.1034 42.8832 20.1113C40.6533 20.1113 38.845 21.9195 38.845 24.1495C38.845 26.3794 40.6533 28.1876 42.8832 28.1876C43.9366 28.2303 44.9599 27.826 45.699 27.0727C46.1839 26.5499 46.4776 25.8756 46.5281 25.1633H42.8832V23.6899H48.0126C48.0679 24.0026 48.0948 24.32 48.09 24.639C48.1421 25.9593 47.6668 27.2464 46.7713 28.2176C45.7496 29.2473 44.3345 29.7969 42.8832 29.7242ZM56.0226 26.1456C56.1032 28.1008 54.5824 29.7511 52.6288 29.8316C50.6737 29.9122 49.0234 28.3914 48.9428 26.4378C48.9381 26.3415 48.9381 26.2436 48.9428 26.1472C48.8623 24.1921 50.3831 22.5418 52.3367 22.4612C54.2918 22.3807 55.9421 23.9015 56.0226 25.8551C56.0274 25.9514 56.0274 26.0477 56.0226 26.1456ZM54.4718 26.1456C54.576 25.0465 53.7706 24.0721 52.6715 23.9678C51.5723 23.8636 50.5979 24.669 50.4937 25.7682C50.481 25.8945 50.481 26.0209 50.4937 26.1456C50.3894 27.2448 51.1949 28.2192 52.294 28.3234C53.3932 28.4277 54.3676 27.6222 54.4718 26.5231C54.4844 26.3967 54.4844 26.2704 54.4718 26.1456ZM63.9553 26.1456C63.9553 28.0992 62.3713 29.6832 60.4177 29.6832C58.4642 29.6832 56.8802 28.0992 56.8802 26.1456C56.8802 24.1921 58.4642 22.6081 60.4177 22.6081C62.3713 22.6081 63.9553 24.1921 63.9553 26.1456ZM62.4108 26.1456C62.515 25.0465 61.7096 24.0721 60.6104 23.9678C59.5112 23.8636 58.5368 24.669 58.4326 25.7682C58.42 25.8945 58.42 26.0209 58.4326 26.1456C58.3284 27.2448 59.1338 28.2192 60.233 28.3234C61.3321 28.4277 62.3065 27.6222 62.4108 26.5231C62.4234 26.3967 62.4234 26.2704 62.4108 26.1456ZM71.6984 22.7866V29.211C71.6984 31.8468 70.1302 32.9333 68.2809 32.9333C66.8943 32.9443 65.6388 32.1216 65.0955 30.8455L66.4489 30.2486C66.7363 30.9924 67.4407 31.493 68.2382 31.5183C69.4306 31.5183 70.1586 30.7839 70.1586 29.4194V28.9062H70.0986C69.6248 29.4337 68.9473 29.7321 68.2382 29.7227C66.261 29.7227 64.6596 28.1197 64.6596 26.1441C64.6596 24.1668 66.2626 22.5655 68.2382 22.5655C68.952 22.5497 69.6374 22.8403 70.1223 23.3646H70.1823V22.7676H71.6968L71.6984 22.7866ZM70.3086 26.163C70.3986 25.0496 69.5695 24.0752 68.4562 23.9836C68.4356 23.9821 68.4135 23.9805 68.393 23.9789C67.248 24.0168 66.3494 24.977 66.3873 26.122C66.3873 26.1346 66.3889 26.1488 66.3889 26.1614C66.3352 27.2969 67.2133 28.2603 68.3488 28.3124C68.363 28.3124 68.3788 28.314 68.393 28.314C69.4953 28.2713 70.3544 27.3427 70.3118 26.2404C70.3118 26.2151 70.3102 26.1899 70.3086 26.163ZM74.4589 18.9995V29.5031H72.8844V18.9995H74.4589ZM80.6623 27.3254L81.8909 28.1371C81.2245 29.132 80.1048 29.7274 78.9093 29.7242C76.9952 29.7511 75.4223 28.2224 75.3954 26.3083C75.3954 26.2546 75.3954 26.1993 75.397 26.1456C75.2407 24.3342 76.5814 22.7376 78.3929 22.5813C79.92 22.4486 81.3366 23.3883 81.8088 24.8459L81.9699 25.2581L77.1989 27.2322C77.5037 27.916 78.1923 28.3455 78.9409 28.3171C79.6452 28.3045 80.2974 27.9302 80.6623 27.3254ZM76.8989 26.0383L80.1079 24.7148C79.8537 24.2174 79.3294 23.9205 78.7719 23.9568C77.6885 24.0042 76.8499 24.9201 76.8973 26.0035C76.8973 26.0146 76.8989 26.0256 76.8989 26.0383Z" fill="#2E2C2F"/>
<path d="M19.2493 19.5645L9.09155 30.2071C9.50532 31.6711 11.0277 32.5239 12.4917 32.1101C12.7144 32.0469 12.9276 31.9569 13.1266 31.8416L24.5572 25.3319L19.2493 19.5645Z" fill="#D45040"/>
<path d="M29.5224 17.7554L24.5794 14.9238L19.0156 19.8069L24.6015 25.3185L29.5066 22.5185C30.8222 21.8299 31.3291 20.2064 30.6405 18.8909C30.3863 18.4061 29.9915 18.0113 29.5066 17.757H29.5224V17.7554Z" fill="#EFBD41"/>
<path d="M9.0916 10.0117C9.03001 10.2391 9 10.4729 9 10.7082V29.5108C9 29.7461 9.03159 29.9799 9.0916 30.2073L19.5984 19.8363L9.0916 10.0117Z" fill="#5684EB"/>
<path d="M19.3252 20.1098L24.5778 14.9251L13.1629 8.38535C12.7333 8.13425 12.2453 8.00001 11.7479 8.00001C10.5129 7.99685 9.42636 8.81806 9.09155 10.0057L19.3252 20.1098Z" fill="#5BA45C"/>
<path d="M39.8779 15.0218C38.2591 15.0218 37.2231 13.8405 37.2231 11.9975C37.2231 10.1861 38.256 9.0332 39.8779 9.0332C41.1302 9.0332 42.0825 9.77703 42.2989 10.9283H41.5393C41.2976 10.145 40.6912 9.69965 39.8763 9.69965C38.684 9.69965 37.9654 10.5588 37.9654 11.9927C37.9654 13.4504 38.6966 14.3537 39.8763 14.3537C40.9044 14.3537 41.6119 13.6873 41.6119 12.7145V12.6102H39.9774V11.9754H42.3352V12.5265C42.3352 14.0931 41.424 15.0218 39.8779 15.0218Z" fill="#2E2C2F"/>
<path d="M46.8504 14.9238H43.2607V9.12793H46.8504V9.77858H43.9825V11.6374H46.7019V12.2801H43.9825V14.2716H46.8504V14.9238Z" fill="#2E2C2F"/>
<path d="M49.2681 14.9238V9.77858H47.4409V9.12793H51.8186V9.77858H49.9914V14.9238H49.2681Z" fill="#2E2C2F"/>
<path d="M54.2681 14.9238V9.12793H54.9914V14.9238H54.2681Z" fill="#2E2C2F"/>
<path d="M56.1157 14.9238V9.12793H56.8185L59.9912 13.6778H60.0275V9.12793H60.7429V14.9238H60.0402L56.8674 10.3898H56.8311V14.9238H56.1157Z" fill="#2E2C2F"/>
<path d="M68.6709 12.0291C68.6709 13.8689 67.6428 15.0218 66.0004 15.0218C64.3579 15.0218 63.3298 13.8689 63.3298 12.0291C63.3298 10.1892 64.3579 9.0332 66.0004 9.0332C67.6428 9.0332 68.6709 10.1892 68.6709 12.0291ZM64.0721 12.0291C64.0721 13.4551 64.8143 14.3537 66.0004 14.3537C67.1848 14.3537 67.9286 13.4535 67.9286 12.0291C67.9286 10.5998 67.1864 9.69965 66.0004 9.69965C64.8159 9.69965 64.0721 10.5998 64.0721 12.0291Z" fill="#2E2C2F"/>
<path d="M69.571 14.9238V9.12793H70.2738L73.4466 13.6778H73.4829V9.12793H74.1983V14.9238H73.4939L70.3212 10.3898H70.2849V14.9238H69.571Z" fill="#2E2C2F"/>
</svg>
