<svg width="306" height="223" viewBox="0 0 306 223" fill="none" xmlns="http://www.w3.org/2000/svg">
<path d="M63.1352 172.509C62.933 172.52 62.7273 172.462 62.5854 172.332C62.3487 172.113 62.3878 171.785 62.682 171.598C66.9738 168.833 71.442 165.784 76.3479 162.275C76.6304 162.08 77.0585 162.083 77.306 162.293C77.5535 162.503 77.5368 162.83 77.2543 163.025C72.3264 166.544 67.8361 169.603 63.5341 172.386C63.4141 172.461 63.2699 172.502 63.1352 172.509Z" fill="#F5F5F5"/>
<path d="M51.6648 180.321C51.4627 180.331 51.2682 180.273 51.1267 180.151C50.8792 179.941 50.9183 179.613 51.2009 179.418L54.0929 177.447C54.3754 177.252 54.8039 177.264 55.0519 177.483C55.2994 177.693 55.2715 178.021 54.9777 178.216L52.0857 180.187C51.955 180.271 51.8108 180.313 51.6648 180.321Z" fill="#F5F5F5"/>
<path d="M50.5238 165.636C50.2094 165.652 49.9197 165.496 49.8398 165.26C49.7463 164.982 49.9678 164.695 50.3357 164.625C54.2338 163.802 58.3713 162.822 62.9935 161.636C63.3488 161.54 63.7284 161.692 63.8438 161.96C63.9592 162.229 63.7494 162.523 63.3941 162.619C58.7607 163.806 54.5899 164.796 50.6694 165.62C50.6137 165.631 50.5688 165.634 50.5238 165.636Z" fill="#F5F5F5"/>
<path d="M39.9014 168.142C39.5982 168.158 39.309 168.01 39.2182 167.783C39.1141 167.514 39.3239 167.22 39.6908 167.132L42.3716 166.502C42.7278 166.423 43.1069 166.567 43.2116 166.844C43.3158 167.113 43.106 167.408 42.739 167.495L40.0582 168.125C40.0025 168.137 39.9463 168.14 39.9014 168.142Z" fill="#F5F5F5"/>
<path d="M268.45 156.019C268.406 156.021 268.361 156.024 268.315 156.017C263.54 155.564 259.291 155.075 255.321 154.527C254.958 154.478 254.719 154.207 254.794 153.929C254.87 153.65 255.232 153.46 255.595 153.509C259.542 154.057 263.779 154.539 268.521 154.994C268.894 155.026 269.144 155.288 269.091 155.574C269.048 155.816 268.765 156.003 268.45 156.019Z" fill="#F5F5F5"/>
<path d="M247.369 153.598C247.324 153.6 247.268 153.603 247.222 153.597L244.492 153.285C244.119 153.245 243.88 152.983 243.943 152.696C244.008 152.418 244.358 152.22 244.731 152.26L247.461 152.572C247.835 152.613 248.074 152.875 248.01 153.161C247.955 153.404 247.683 153.582 247.369 153.598Z" fill="#F5F5F5"/>
<path d="M113.601 166.415C113.488 166.421 113.364 166.402 113.26 166.364C112.927 166.236 112.798 165.925 112.976 165.667L115.371 162.161C115.549 161.902 115.96 161.795 116.293 161.924C116.626 162.052 116.755 162.363 116.577 162.621L114.182 166.127C114.056 166.297 113.825 166.403 113.601 166.415Z" fill="#F5F5F5"/>
<path d="M85.5069 202.324C85.3834 202.331 85.2473 202.312 85.1318 202.258C84.8093 202.12 84.7137 201.799 84.9033 201.549L109.175 170.492C109.376 170.241 109.788 170.16 110.11 170.297C110.433 170.435 110.529 170.756 110.339 171.006L86.0675 202.063C85.9408 202.224 85.7315 202.312 85.5069 202.324Z" fill="#F5F5F5"/>
<path d="M125.663 213.297C125.618 213.3 125.562 213.302 125.517 213.296C125.143 213.256 124.904 212.994 124.968 212.707C127.545 201.717 130.805 190.665 133.961 179.979C135.951 173.251 137.996 166.296 139.855 159.428C139.93 159.149 140.292 158.959 140.655 159.008C141.018 159.058 141.257 159.329 141.181 159.607C139.324 166.484 137.267 173.439 135.278 180.177C132.122 190.854 128.871 201.888 126.293 212.852C126.25 213.103 125.978 213.281 125.663 213.297Z" fill="#F5F5F5"/>
<path d="M68.6221 193.624C68.4649 193.632 68.3054 193.598 68.1774 193.519C67.8868 193.345 67.8361 193.022 68.0607 192.795L89.4405 171.664C89.6763 171.437 90.1017 171.389 90.3919 171.554C90.6825 171.727 90.7332 172.051 90.5086 172.277L69.1288 193.409C69.0008 193.544 68.813 193.614 68.6221 193.624Z" fill="#F5F5F5"/>
<path d="M105.945 207.492C105.866 207.496 105.787 207.492 105.707 207.47C105.354 207.386 105.159 207.104 105.268 206.824C109.707 196.337 115.106 185.911 120.32 175.829C121.987 172.619 123.643 169.4 125.287 166.181C125.42 165.917 125.818 165.776 126.172 165.869C126.526 165.962 126.688 166.262 126.556 166.535C124.923 169.762 123.256 172.973 121.589 176.192C116.385 186.256 110.997 196.672 106.567 207.125C106.477 207.335 106.225 207.477 105.945 207.492Z" fill="#F5F5F5"/>
<path d="M94.5426 167.183C94.3853 167.191 94.2371 167.156 94.0983 167.086C93.7969 166.922 93.7462 166.598 93.9704 166.364L99.1894 161.096C99.4136 160.861 99.8502 160.812 100.14 160.977C100.442 161.142 100.492 161.465 100.268 161.7L95.0493 166.968C94.9212 167.103 94.7335 167.173 94.5426 167.183Z" fill="#F5F5F5"/>
<path d="M105.945 207.492C105.866 207.496 105.787 207.492 105.707 207.47C105.354 207.386 105.159 207.104 105.268 206.824C109.707 196.337 115.106 185.911 120.32 175.829C121.987 172.619 123.643 169.4 125.287 166.181C125.42 165.917 125.818 165.776 126.172 165.869C126.526 165.962 126.688 166.262 126.556 166.535C124.923 169.762 123.256 172.973 121.589 176.192C116.385 186.256 110.997 196.672 106.567 207.125C106.477 207.335 106.225 207.477 105.945 207.492Z" fill="#F5F5F5"/>
<path d="M174.86 214.812C174.523 214.83 174.221 214.648 174.162 214.394C172.06 204.361 170.396 194.099 168.784 184.178C167.404 175.687 165.975 166.897 164.286 158.302C164.226 158.022 164.482 157.751 164.852 157.706C165.22 157.652 165.568 157.84 165.628 158.12C167.318 166.733 168.747 175.522 170.127 184.022C171.739 193.935 173.402 204.188 175.503 214.203C175.563 214.483 175.307 214.754 174.938 214.808C174.916 214.809 174.893 214.81 174.86 214.812Z" fill="#F5F5F5"/>
<path d="M198.739 210.422C198.435 210.438 198.147 210.298 198.056 210.063C193.856 199.119 188.868 188.165 184.045 177.58C181.869 172.802 179.618 167.866 177.47 162.985C177.355 162.716 177.542 162.414 177.897 162.319C178.252 162.223 178.642 162.357 178.757 162.625C180.905 167.498 183.156 172.435 185.321 177.204C190.144 187.806 195.143 198.76 199.345 209.738C199.449 210.007 199.239 210.301 198.883 210.388C198.851 210.407 198.795 210.419 198.739 210.422Z" fill="#F5F5F5"/>
<path d="M226.093 200.578C225.846 200.591 225.604 200.501 225.471 200.327C221.234 194.68 216.991 188.913 212.892 183.335C206.939 175.238 200.791 166.867 194.543 158.734C194.362 158.486 194.469 158.171 194.788 158.026C195.118 157.88 195.527 157.953 195.709 158.192C201.969 166.342 208.117 174.713 214.07 182.81C218.168 188.388 222.412 194.155 226.637 199.794C226.819 200.042 226.7 200.357 226.381 200.503C226.305 200.55 226.205 200.572 226.093 200.578Z" fill="#F5F5F5"/>
<path d="M240.132 161.834C239.963 161.842 239.793 161.808 239.664 161.712L229.326 155.046C229.046 154.863 229.018 154.539 229.266 154.32C229.513 154.101 229.94 154.07 230.219 154.253L240.557 160.919C240.837 161.102 240.865 161.426 240.617 161.645C240.488 161.763 240.311 161.824 240.132 161.834Z" fill="#F5F5F5"/>
<path d="M257.568 174.182C257.388 174.191 257.206 174.149 257.077 174.053L252.399 170.746C252.13 170.554 252.113 170.229 252.372 170.018C252.632 169.807 253.059 169.793 253.327 169.976L258.005 173.283C258.274 173.475 258.291 173.801 258.032 174.012C257.902 174.121 257.736 174.173 257.568 174.182Z" fill="#F5F5F5"/>
<path d="M149.045 201.146C149.023 201.147 149.011 201.148 148.989 201.149C148.617 201.143 148.323 200.909 148.342 200.625C148.954 188.88 149.508 178.605 150.052 169.214C150.07 168.93 150.397 168.716 150.757 168.705C151.129 168.712 151.423 168.945 151.404 169.229C150.871 178.619 150.306 188.895 149.694 200.64C149.686 200.906 149.404 201.127 149.045 201.146Z" fill="#F5F5F5"/>
<path d="M148.241 216.319C148.219 216.32 148.208 216.321 148.185 216.322C147.813 216.316 147.519 216.082 147.538 215.798L148.292 202.887C148.311 202.603 148.637 202.38 148.997 202.378C149.369 202.384 149.663 202.618 149.644 202.902L148.89 215.813C148.882 216.08 148.589 216.301 148.241 216.319Z" fill="#F5F5F5"/>
<path d="M243.388 189.177C243.175 189.188 242.969 189.122 242.827 188.992C230.953 177.712 219.191 166.641 207.861 156.071C207.624 155.852 207.674 155.523 207.969 155.345C208.263 155.157 208.693 155.186 208.918 155.406C220.237 165.977 231.999 177.057 243.885 188.336C244.122 188.555 244.071 188.884 243.765 189.063C243.667 189.128 243.523 189.17 243.388 189.177Z" fill="#F5F5F5"/>
<path d="M218.163 70.7388C217.972 70.7488 217.778 70.6989 217.637 70.5862C217.379 70.3852 217.406 70.0491 217.677 69.8546L259.571 39.6418C259.853 39.4382 260.281 39.4501 260.528 39.6517C260.787 39.8527 260.759 40.1887 260.488 40.3832L218.595 70.5961C218.475 70.6796 218.32 70.7306 218.163 70.7388Z" fill="#F5F5F5"/>
<path d="M193.427 60.0663C193.314 60.0721 193.19 60.0529 193.086 60.0154C192.753 59.887 192.624 59.5763 192.802 59.3181L195.218 55.7934C195.396 55.5352 195.808 55.4364 196.141 55.5562C196.474 55.6846 196.603 55.9954 196.425 56.2536L194.008 59.7784C193.882 59.948 193.651 60.0545 193.427 60.0663Z" fill="#F5F5F5"/>
<path d="M199.653 51.6815C199.53 51.6879 199.394 51.6693 199.278 51.6153C198.956 51.4778 198.86 51.1567 199.05 50.9065L223.321 19.8494C223.522 19.5986 223.934 19.5169 224.257 19.6545C224.579 19.7921 224.675 20.1132 224.485 20.3634L200.214 51.4204C200.075 51.5735 199.867 51.6703 199.653 51.6815Z" fill="#F5F5F5"/>
<path d="M171.573 54.5411C171.517 54.5441 171.46 54.5384 171.403 54.5328C171.041 54.4832 170.801 54.2126 170.877 53.934C171.907 50.1815 172.95 46.4371 173.992 42.6925C177.063 31.6765 180.228 20.2951 183.062 9.05978C183.138 8.78123 183.488 8.58267 183.862 8.63171C184.225 8.68134 184.475 8.94281 184.4 9.22992C181.566 20.4738 178.391 31.8729 175.32 42.889C174.278 46.6335 173.236 50.3865 172.204 54.1304C172.137 54.3571 171.876 54.5252 171.573 54.5411Z" fill="#F5F5F5"/>
<path d="M232.096 37.9417C231.939 37.95 231.779 37.9155 231.651 37.8364C231.36 37.6628 231.31 37.3394 231.534 37.1131L240.249 28.4958C240.485 28.2689 240.91 28.2208 241.2 28.3858C241.491 28.5594 241.542 28.8828 241.317 29.1091L232.602 37.7264C232.474 37.8619 232.287 37.9317 232.096 37.9417Z" fill="#F5F5F5"/>
<path d="M197.76 27.3687C197.681 27.3728 197.591 27.3689 197.511 27.3474C197.158 27.2629 196.974 26.9722 197.094 26.6999C197.882 24.9681 198.76 23.2488 199.596 21.5831C200.77 19.2648 201.883 17.0784 202.811 14.8072C202.92 14.5354 203.306 14.3694 203.659 14.4538C204.012 14.5297 204.219 14.8192 204.098 15.0916C203.149 17.3982 201.987 19.7073 200.854 21.9377C200.017 23.5862 199.149 25.2965 198.361 27.0197C198.27 27.2218 198.03 27.3545 197.76 27.3687Z" fill="#F5F5F5"/>
<path d="M232.682 70.6121C232.435 70.625 232.193 70.5347 232.072 70.3694C231.89 70.1215 231.998 69.807 232.317 69.6615L261.518 56.1777C261.848 56.0317 262.257 56.1046 262.439 56.344C262.621 56.5919 262.513 56.9064 262.194 57.0518L232.993 70.5357C232.894 70.5838 232.794 70.6062 232.682 70.6121Z" fill="#F5F5F5"/>
<path d="M263.663 56.2726C263.416 56.2855 263.175 56.1952 263.053 56.0299C262.86 55.7826 262.979 55.4675 263.298 55.3221L270.521 51.9916C270.852 51.8456 271.261 51.9185 271.442 52.1578C271.635 52.4052 271.517 52.7203 271.198 52.8657L263.975 56.2048C263.887 56.2437 263.775 56.2667 263.663 56.2726Z" fill="#F5F5F5"/>
<path d="M248.137 73.5211C247.856 73.5359 247.58 73.4131 247.478 73.2038C247.341 72.9365 247.516 72.6355 247.871 72.5225L272.484 64.7538C272.828 64.65 273.228 64.7664 273.366 65.0337C273.504 65.3011 273.328 65.6021 272.974 65.715L248.36 73.4837C248.282 73.505 248.216 73.517 248.137 73.5211Z" fill="#F5F5F5"/>
<path d="M198.859 71.9657C198.701 71.974 198.553 71.9388 198.414 71.8688C198.113 71.7044 198.062 71.381 198.286 71.1461L222.872 46.3025C223.108 46.0671 223.533 46.019 223.823 46.184C224.125 46.3484 224.175 46.6718 223.951 46.9067L199.365 71.7503C199.248 71.8766 199.061 71.9551 198.859 71.9657Z" fill="#F5F5F5"/>
<path d="M184.162 56.0368C184.072 56.0415 183.982 56.0291 183.89 56.0082C183.536 55.9152 183.374 55.6147 183.506 55.3417C187.732 47.0197 191.482 39.495 194.677 31.716C194.787 31.4443 195.172 31.2782 195.526 31.3627C195.879 31.4386 196.086 31.7281 195.965 32.0004C192.77 39.805 188.999 47.3481 184.763 55.6878C184.662 55.8991 184.42 56.0233 184.162 56.0368Z" fill="#F5F5F5"/>
<path d="M144.23 61.5635C143.893 61.5811 143.59 61.3996 143.532 61.1367C141.441 50.6829 139.576 40.0113 137.785 29.6963C136.529 22.4853 135.226 15.028 133.862 7.70254C133.814 7.4219 134.07 7.15108 134.439 7.10598C134.808 7.06089 135.156 7.24859 135.205 7.52923C136.579 14.8541 137.872 22.3206 139.128 29.5315C140.918 39.838 142.783 50.501 144.873 60.9463C144.933 61.2263 144.677 61.4972 144.308 61.5508C144.286 61.5605 144.263 61.5617 144.23 61.5635Z" fill="#F5F5F5"/>
<path d="M157.508 61.5645C157.845 61.5821 158.148 61.4006 158.206 61.1377C160.297 50.6839 162.162 40.0123 163.953 29.6973C165.209 22.4863 166.512 15.029 167.876 7.70352C167.924 7.42288 167.668 7.15205 167.299 7.10696C166.93 7.06186 166.582 7.24957 166.533 7.53021C165.159 14.8551 163.867 22.3216 162.61 29.5325C160.82 39.839 158.955 50.502 156.865 60.9472C156.805 61.2273 157.061 61.4981 157.43 61.5518C157.452 61.5615 157.475 61.5627 157.508 61.5645Z" fill="#F5F5F5"/>
<path d="M132.862 64.4918C132.57 64.5071 132.282 64.3677 132.191 64.1494L119.214 33.7487C119.098 33.4802 119.297 33.1866 119.652 33.0908C120.007 32.9949 120.387 33.1381 120.502 33.4066L133.48 63.8073C133.595 64.0759 133.396 64.3694 133.041 64.4653C132.975 64.4859 132.919 64.4888 132.862 64.4918Z" fill="#F5F5F5"/>
<path d="M116.368 25.8323C116.076 25.8476 115.787 25.7083 115.697 25.4899L110.023 12.1862C109.907 11.9177 110.106 11.6241 110.461 11.5283C110.816 11.4324 111.195 11.5756 111.311 11.8441L116.985 25.1478C117.101 25.4163 116.902 25.7099 116.547 25.8058C116.48 25.8179 116.424 25.8294 116.368 25.8323Z" fill="#F5F5F5"/>
<path d="M120.208 70.5342C119.961 70.5472 119.72 70.4568 119.587 70.2836C106.651 52.9155 94.5873 37.1664 82.7192 22.1364C82.5265 21.8976 82.6335 21.5745 82.9519 21.4205C83.2704 21.2666 83.6909 21.3389 83.8835 21.5777C95.752 36.6162 107.816 52.3739 120.764 69.75C120.946 69.9979 120.827 70.313 120.508 70.4584C120.41 70.5065 120.309 70.5289 120.208 70.5342Z" fill="#F5F5F5"/>
<path d="M94.5205 77.3747C94.3521 77.3836 94.1814 77.3496 94.0525 77.2534L68.833 61.001C68.5532 60.8183 68.5249 60.4937 68.7724 60.2748C69.0199 60.0558 69.4462 60.0249 69.726 60.2076L94.9455 76.46C95.2254 76.6427 95.2536 76.9673 95.0061 77.1862C94.8767 77.296 94.7002 77.3653 94.5205 77.3747Z" fill="#F5F5F5"/>
<path d="M61.2798 55.6634C61.1001 55.6728 60.9177 55.6309 60.7888 55.5347L45.9131 44.9958C45.6441 44.8039 45.6383 44.4781 45.8975 44.2672C46.1567 44.0562 46.5839 44.0424 46.8529 44.2343L61.7286 54.7732C61.9977 54.965 62.0035 55.2908 61.7443 55.5017C61.614 55.5944 61.4482 55.6546 61.2798 55.6634Z" fill="#F5F5F5"/>
<path d="M49.3448 79.1143C49.2438 79.1196 49.1418 79.1078 49.0502 79.0782L24.4557 71.5286C24.1125 71.4265 23.9504 71.1261 24.1049 70.852C24.2487 70.587 24.6583 70.454 25.002 70.5647L49.5965 78.1143C49.9396 78.2164 50.1018 78.5169 49.9472 78.791C49.8443 78.9766 49.6031 79.1007 49.3448 79.1143Z" fill="#F5F5F5"/>
<path d="M70.1119 37.4892C69.9098 37.4998 69.704 37.4419 69.5621 37.3121C67.6236 35.5602 65.6693 33.7232 63.7743 31.9433L62.6613 30.9032C62.4246 30.6839 62.475 30.3552 62.7697 30.1768C63.0643 29.9983 63.4933 30.0187 63.7188 30.2386L64.8318 31.2786C66.7263 33.05 68.6693 34.8875 70.6074 36.6309C70.8441 36.8502 70.8045 37.1697 70.5108 37.3653C70.4021 37.4397 70.2579 37.4816 70.1119 37.4892Z" fill="#F5F5F5"/>
<path d="M110.197 74.8197C109.995 74.8303 109.79 74.7724 109.648 74.6425C101.677 67.3716 93.7181 59.8941 86.0196 52.6603L80.5715 47.5398C80.3348 47.3205 80.3851 46.9917 80.6797 46.8133C80.974 46.6262 81.4034 46.6552 81.6289 46.8751L87.0771 51.9956C94.7755 59.2294 102.723 66.6989 110.693 73.9699C110.93 74.1891 110.891 74.5173 110.597 74.7043C110.476 74.7707 110.332 74.8126 110.197 74.8197Z" fill="#F5F5F5"/>
<path d="M72.6613 78.3988C72.5266 78.4059 72.3905 78.3873 72.2746 78.3247L52.9581 69.4258C52.6464 69.2791 52.5507 68.958 52.752 68.7158C52.9532 68.4736 53.3768 68.3913 53.6885 68.538L73.005 77.4368C73.3167 77.5835 73.4124 77.9046 73.2111 78.1469C73.084 78.2994 72.8747 78.3876 72.6613 78.3988Z" fill="#F5F5F5"/>
<path d="M47.538 66.7757C47.4033 66.7828 47.2672 66.7642 47.1513 66.7016L35.6234 61.3848C35.3117 61.2381 35.216 60.917 35.4173 60.6748C35.6185 60.4326 36.0421 60.3503 36.3538 60.497L47.8817 65.8138C48.1935 65.9605 48.2891 66.2816 48.0879 66.5238C47.9607 66.6763 47.7514 66.7645 47.538 66.7757Z" fill="#F5F5F5"/>
<g filter="url(#filter0_d_3272_445715)">
<path fill-rule="evenodd" clip-rule="evenodd" d="M161.896 23.5233C161.896 29.5855 156.982 34.4998 150.919 34.4998C144.857 34.4998 139.943 29.5855 139.943 23.5233C139.943 17.4612 144.857 12.5469 150.919 12.5469C156.982 12.5469 161.896 17.4612 161.896 23.5233Z" fill="url(#paint0_radial_3272_445715)"/>
<path fill-rule="evenodd" clip-rule="evenodd" d="M150.92 35.1592C76.5173 35.1592 16.2023 95.474 16.202 169.876H8.01575C1.07061 169.876 -2.57558 178.119 2.09622 183.258L5.84488 187.381C7.36106 189.049 9.51046 190 11.7644 190H290.075C292.328 190 294.478 189.049 295.994 187.381L299.743 183.258C304.414 178.119 300.768 169.876 293.823 169.876H285.637C285.637 95.474 225.322 35.1592 150.92 35.1592Z" fill="url(#paint1_radial_3272_445715)"/>
<path fill-rule="evenodd" clip-rule="evenodd" d="M161.896 23.5233C161.896 29.5855 156.982 34.4998 150.919 34.4998C144.857 34.4998 139.943 29.5855 139.943 23.5233C139.943 17.4612 144.857 12.5469 150.919 12.5469C156.982 12.5469 161.896 17.4612 161.896 23.5233ZM155.896 23.5233C155.896 26.2718 153.668 28.4998 150.919 28.4998C148.171 28.4998 145.943 26.2718 145.943 23.5233C145.943 20.7749 148.171 18.5469 150.919 18.5469C153.668 18.5469 155.896 20.7749 155.896 23.5233Z" fill="url(#paint2_linear_3272_445715)"/>
<path fill-rule="evenodd" clip-rule="evenodd" d="M150.92 35.1592C76.5173 35.1592 16.2023 95.474 16.202 169.876H8.01575C1.07061 169.876 -2.57558 178.119 2.09622 183.258L5.84488 187.381C7.36106 189.049 9.51046 190 11.7644 190H290.075C292.328 190 294.478 189.049 295.994 187.381L299.743 183.258C304.414 178.119 300.768 169.876 293.823 169.876H285.637C285.637 95.474 225.322 35.1592 150.92 35.1592ZM150.92 41.1592C79.831 41.1592 22.2023 98.7877 22.202 169.876H279.637C279.637 98.7877 222.008 41.1592 150.92 41.1592ZM293.823 175.876H8.01575C6.27945 175.876 5.36792 177.937 6.53586 179.222L10.2845 183.345C10.6636 183.762 11.2009 184 11.7644 184H290.075C290.638 184 291.175 183.762 291.554 183.345L295.303 179.222C296.471 177.937 295.559 175.876 293.823 175.876Z" fill="url(#paint3_linear_3272_445715)"/>
</g>
<g filter="url(#filter1_d_3272_445715)">
<path d="M49.1922 96.6377L49.1477 96.4112C48.9259 95.9217 48.683 95.4442 48.4189 94.9786C48.1754 94.4902 47.9216 94.0133 47.6575 93.5477L44.7098 87.819C42.9139 84.3178 41.0757 80.8406 39.1951 77.3875C37.3351 73.9114 35.486 70.4348 33.6478 66.9577C33.5506 66.7667 33.4529 66.5648 33.3545 66.352C33.278 66.1381 33.234 65.9226 33.2226 65.7053C33.1964 65.2055 33.3863 64.8796 33.7924 64.7275C34.2201 64.5744 34.6296 64.4876 35.0207 64.4671L46.4616 63.8675C46.8962 63.8447 47.2272 63.9254 47.4548 64.1096C47.6812 64.272 47.891 64.5334 48.0842 64.8937C48.4466 65.572 48.7678 66.296 49.0478 67.0658C49.3279 67.8355 49.6176 68.583 49.9171 69.3081C50.6647 71.0993 51.3911 72.9024 52.0963 74.7176C52.8221 76.5099 53.5697 78.301 54.339 80.0911C54.387 80.1757 54.4487 80.3141 54.5242 80.5063C54.6213 80.6973 54.7351 80.7894 54.8655 80.7825C54.9959 80.7757 55.0994 80.6722 55.1761 80.4721C55.2733 80.2491 55.3305 80.0936 55.3477 80.0055C55.9451 78.1003 56.4877 76.187 56.9753 74.2658C57.4835 72.3217 58.0038 70.3987 58.536 68.4969C58.7397 67.8107 58.9206 67.104 59.0786 66.3766C59.2583 65.6482 59.4729 64.9614 59.7223 64.3165C59.8757 63.9162 60.0564 63.6235 60.2646 63.4382C60.4717 63.2313 60.8034 63.1159 61.2597 63.0919L72.6354 62.4958C73.0265 62.4753 73.4428 62.5188 73.8842 62.6264C74.3257 62.734 74.56 63.0486 74.5874 63.5701C74.5988 63.7874 74.5667 64.007 74.4912 64.2288C74.4373 64.4496 74.3612 64.6605 74.2628 64.8618C72.6769 68.6928 71.068 72.5031 69.4363 76.2929C67.8046 80.0826 66.218 83.9027 64.6766 87.7531C64.1365 89.0888 63.5855 90.4251 63.0237 91.7619C62.4607 93.077 61.9315 94.4121 61.436 95.7672L61.3827 95.9988L62.1092 107.989C62.1684 109.119 61.633 109.713 60.503 109.772L51.5068 110.244C50.3769 110.303 49.7823 109.768 49.723 108.638L49.1922 96.6377Z" fill="#FFD700"/>
<path d="M91.4854 85.4003C91.5287 86.226 91.5616 87.0632 91.5843 87.9118C91.6276 88.7375 91.6817 89.5627 91.7467 90.3873C91.9018 92.5146 92.5808 94.244 93.7836 95.5755C94.9853 96.8852 96.7161 97.4809 98.976 97.3625C101.366 97.2372 103.159 96.5222 104.355 95.2176C105.572 93.9118 106.117 92.0528 105.991 89.6408L105.729 84.6538C105.596 82.1114 105.463 79.569 105.33 77.0265C105.217 74.4613 105.105 71.9068 104.993 69.3633L104.753 64.7674C104.755 64.3969 104.735 64.0166 104.693 63.6266C104.649 63.2148 104.64 62.834 104.666 62.484C104.701 61.9156 104.821 61.4954 105.024 61.2232C105.249 60.9282 105.665 60.7648 106.273 60.7329L115.107 60.2699C116.215 60.2119 116.799 60.7587 116.86 61.9104C116.92 63.062 116.959 64.2257 116.977 65.4014C117.017 66.576 117.045 67.7403 117.062 68.8942C117.168 71.3291 117.264 73.7863 117.35 76.2658C117.457 78.7225 117.575 81.1785 117.704 83.634C117.753 84.5684 117.813 85.5022 117.883 86.4355C117.953 87.347 118.001 88.2705 118.029 89.206C118.196 92.8144 117.47 96.0119 115.851 98.7987C114.232 101.585 112.006 103.805 109.173 105.457C106.34 107.109 103.174 108.026 99.6753 108.21C95.9377 108.406 92.588 107.895 89.6262 106.677C86.6632 105.438 84.2859 103.525 82.4944 100.939C80.7245 98.3517 79.7377 95.1131 79.5339 91.2235C79.4792 90.1804 79.4245 89.1374 79.3699 88.0943C79.3369 87.0502 79.2931 86.0066 79.2385 84.9635C79.1155 82.6167 78.9822 80.2813 78.8386 77.9573C78.6939 75.6116 78.5389 73.2773 78.3736 70.9545C78.2903 69.7822 78.1962 68.6105 78.0913 67.4394C77.9863 66.2682 77.9037 65.1068 77.8433 63.9551C77.783 62.8034 78.3069 62.1985 79.4151 62.1405L88.4439 61.6673C89.0741 61.6342 89.5052 61.7533 89.7373 62.0244C89.9683 62.2738 90.1312 62.6792 90.226 63.2408C90.2877 63.5862 90.3185 63.9659 90.3184 64.3799C90.3172 64.7722 90.3371 65.1525 90.3782 65.5207L90.619 70.1166C90.774 72.6579 90.9187 75.2106 91.0531 77.7747C91.208 80.316 91.3521 82.8579 91.4854 85.4003Z" fill="#FFD700"/>
<path d="M127.812 106.245C126.703 106.303 126.119 105.756 126.059 104.605C125.997 103.431 125.958 102.257 125.94 101.081C125.942 99.8823 125.923 98.6957 125.884 97.5211C125.803 95.1503 125.712 92.7909 125.611 90.4429C125.531 88.0938 125.429 85.7349 125.305 83.3664C124.961 76.8039 124.52 70.2574 123.982 63.7269L123.951 63.1402C123.939 62.9012 123.947 62.4432 123.977 61.7661C124.006 61.0673 124.227 60.7071 124.64 60.6855C125.009 60.6661 125.425 60.9167 125.888 61.4372C126.372 61.9348 126.718 62.298 126.926 62.5268C127.878 63.6535 128.81 64.8031 129.721 65.9755C130.632 67.1263 131.542 68.277 132.452 69.4278C134.295 71.7498 136.116 74.073 137.916 76.3974C139.737 78.7206 141.559 81.0546 143.382 83.3996C144.176 84.4256 144.96 85.4522 145.733 86.4794C146.528 87.5055 147.322 88.5207 148.115 89.525C148.277 89.7126 148.435 89.8024 148.587 89.7944C148.717 89.7876 148.853 89.6824 148.995 89.4789C150.186 87.6733 151.344 85.8585 152.469 84.0346C153.615 82.2096 154.762 80.3954 155.909 78.5921C158.345 74.7602 160.793 70.9494 163.253 67.1599C165.712 63.3703 168.206 59.6116 170.735 55.8838L170.898 55.8753C170.962 60.0119 171.059 64.1578 171.19 68.3127C171.342 72.4666 171.527 76.6187 171.745 80.7692C171.869 83.1377 172.004 85.5057 172.15 87.8732C172.317 90.2395 172.485 92.6166 172.654 95.0046C172.739 96.1986 172.834 97.3921 172.94 98.585C173.067 99.755 173.161 100.938 173.224 102.133C173.284 103.284 172.76 103.889 171.652 103.947L162.591 104.422C161.982 104.454 161.562 104.345 161.331 104.096C161.099 103.825 160.936 103.419 160.843 102.88C160.725 102.297 160.66 101.68 160.648 101.027C160.657 100.373 160.635 99.7419 160.581 99.1346C160.482 97.6581 160.393 96.1702 160.315 94.6708C160.257 93.1486 160.167 91.6498 160.046 90.1744C160.044 90.1309 160.023 89.9468 159.985 89.622C159.945 89.2754 159.849 89.1062 159.697 89.1141C159.566 89.121 159.431 89.2479 159.292 89.4949C159.152 89.7419 159.062 89.8991 159.022 89.9666C157.457 92.9466 155.925 95.9467 154.428 98.9668C152.929 101.965 151.408 104.965 149.866 107.965L149.703 107.974C147.826 105.414 145.969 102.831 144.133 100.225C142.297 97.6197 140.419 95.0489 138.499 92.513C138.451 92.4283 138.346 92.3031 138.185 92.1372C138.044 91.9485 137.909 91.8575 137.779 91.8643C137.626 91.8723 137.548 92.029 137.542 92.3343C137.536 92.6397 137.534 92.8141 137.536 92.8576C137.601 94.0962 137.656 95.3462 137.7 96.6077C137.744 97.8474 137.787 99.0872 137.83 100.327C137.862 100.935 137.906 101.565 137.962 102.216C138.039 102.865 138.05 103.486 137.994 104.077C137.957 104.624 137.837 105.044 137.635 105.338C137.431 105.61 137.025 105.762 136.417 105.794L127.812 106.245Z" fill="#FFD700"/>
<path d="M182.506 103.379C181.398 103.437 180.814 102.89 180.753 101.738C180.692 100.565 180.652 99.3901 180.634 98.2144C180.637 97.0158 180.618 95.8293 180.578 94.6547C180.497 92.2839 180.407 89.9245 180.305 87.5765C180.226 85.2274 180.124 82.8685 180 80.5C179.656 73.9375 179.215 67.391 178.676 60.8605L178.646 60.2738C178.633 60.0348 178.642 59.5768 178.672 58.8997C178.7 58.2009 178.921 57.8407 179.334 57.8191C179.703 57.7997 180.12 58.0503 180.583 58.5708C181.066 59.0684 181.412 59.4316 181.62 59.6603C182.573 60.7871 183.505 61.9367 184.416 63.1091C185.326 64.2599 186.236 65.4106 187.146 66.5613C188.989 68.8834 190.811 71.2066 192.61 73.5309C194.432 75.8542 196.254 78.1882 198.076 80.5332C198.871 81.5592 199.654 82.5858 200.427 83.613C201.222 84.6391 202.016 85.6542 202.809 86.6586C202.972 86.8462 203.129 86.936 203.281 86.928C203.412 86.9212 203.548 86.816 203.69 86.6124C204.881 84.8069 206.038 82.9921 207.163 81.1682C208.309 79.3432 209.456 77.529 210.604 75.7257C213.039 71.8938 215.487 68.083 217.947 64.2935C220.407 60.5039 222.901 56.7452 225.429 53.0174L225.592 53.0088C225.656 57.1455 225.754 61.2913 225.884 65.4463C226.037 69.6002 226.222 73.7523 226.439 77.9027C226.563 80.2713 226.698 82.6393 226.844 85.0068C227.012 87.373 227.18 89.7502 227.349 92.1382C227.433 93.3322 227.528 94.5257 227.634 95.7185C227.761 96.8886 227.856 98.0711 227.918 99.2663C227.979 100.418 227.455 101.023 226.346 101.081L217.285 101.556C216.677 101.588 216.257 101.479 216.026 101.23C215.794 100.958 215.631 100.553 215.537 100.013C215.42 99.431 215.355 98.8134 215.342 98.1604C215.351 97.5062 215.329 96.8755 215.276 96.2682C215.176 94.7917 215.088 93.3037 215.009 91.8044C214.951 90.2821 214.862 88.7833 214.741 87.308C214.738 87.2645 214.718 87.0804 214.679 86.7556C214.639 86.409 214.543 86.2397 214.391 86.2477C214.261 86.2545 214.126 86.3815 213.986 86.6285C213.846 86.8755 213.757 87.0327 213.717 87.1002C212.151 90.0802 210.62 93.0803 209.122 96.1004C207.623 99.0988 206.103 102.098 204.56 105.099L204.397 105.107C202.52 102.548 200.663 99.9647 198.827 97.359C196.991 94.7533 195.113 92.1825 193.193 89.6465C193.145 89.5619 193.041 89.4366 192.88 89.2708C192.739 89.082 192.603 88.9911 192.473 88.9979C192.321 89.0059 192.242 89.1626 192.236 89.4679C192.23 89.7733 192.229 89.9477 192.231 89.9911C192.296 91.2298 192.35 92.4798 192.395 93.7413C192.438 94.981 192.481 96.2208 192.524 97.4605C192.556 98.069 192.6 98.6986 192.656 99.3493C192.734 99.999 192.744 100.619 192.688 101.211C192.651 101.757 192.532 102.178 192.329 102.471C192.126 102.744 191.72 102.896 191.111 102.928L182.506 103.379Z" fill="#FFD700"/>
<path d="M245.414 86.3541L245.37 86.1277C245.148 85.6381 244.905 85.1606 244.641 84.6951C244.397 84.2067 244.144 83.7297 243.879 83.2642L240.932 77.5354C239.136 74.0343 237.298 70.5571 235.417 67.1039C233.557 63.6279 231.708 60.1513 229.87 56.6741C229.773 56.4831 229.675 56.2812 229.576 56.0685C229.5 55.8546 229.456 55.639 229.445 55.4217C229.418 54.9219 229.608 54.596 230.014 54.444C230.442 54.2908 230.852 54.204 231.243 54.1835L242.684 53.5839C243.118 53.5611 243.449 53.6418 243.677 53.826C243.903 53.9885 244.113 54.2499 244.306 54.6102C244.669 55.2884 244.99 56.0124 245.27 56.7822C245.55 57.552 245.84 58.2994 246.139 59.0246C246.887 60.8157 247.613 62.6189 248.318 64.434C249.044 66.2263 249.792 68.0175 250.561 69.8075C250.609 69.8922 250.671 70.0305 250.746 70.2227C250.843 70.4137 250.957 70.5058 251.087 70.499C251.218 70.4921 251.321 70.3887 251.398 70.1885C251.495 69.9655 251.552 69.81 251.57 69.722C252.167 67.8167 252.71 65.9035 253.197 63.9822C253.705 62.0381 254.226 60.1151 254.758 58.2133C254.962 57.5272 255.143 56.8204 255.3 56.0931C255.48 55.3646 255.695 54.6779 255.944 54.0329C256.098 53.6327 256.278 53.3399 256.487 53.1547C256.694 52.9477 257.025 52.8323 257.482 52.8084L268.857 52.2122C269.248 52.1917 269.665 52.2353 270.106 52.3429C270.548 52.4505 270.782 52.765 270.809 53.2865C270.821 53.5038 270.789 53.7234 270.713 53.9453C270.659 54.166 270.583 54.377 270.485 54.5783C268.899 58.4092 267.29 62.2196 265.658 66.0093C264.026 69.7991 262.44 73.6192 260.899 77.4696C260.358 78.8052 259.807 80.1415 259.246 81.4783C258.683 82.7934 258.153 84.1285 257.658 85.4837L257.605 85.7153L258.331 97.7051C258.39 98.8351 257.855 99.4296 256.725 99.4889L247.729 99.9603C246.599 100.02 246.004 99.4842 245.945 98.3542L245.414 86.3541Z" fill="#FFD700"/>
</g>
<path d="M47.1492 95.6924L47.1047 95.4659C46.8829 94.9764 46.64 94.4988 46.3759 94.0333C46.1324 93.5449 45.8786 93.0679 45.6145 92.6024L42.6669 86.8737C40.8709 83.3725 39.0327 79.8953 37.1521 76.4422C35.2922 72.9661 33.443 69.4895 31.6048 66.0124C31.5076 65.8213 31.4099 65.6195 31.3116 65.4067C31.235 65.1928 31.191 64.9772 31.1796 64.7599C31.1534 64.2602 31.3434 63.9343 31.7494 63.7822C32.1772 63.6291 32.5866 63.5422 32.9778 63.5217L44.4186 62.9222C44.8532 62.8994 45.1843 62.9801 45.4118 63.1643C45.6382 63.3267 45.848 63.5881 46.0412 63.9484C46.4036 64.6267 46.7248 65.3507 47.0049 66.1204C47.2849 66.8902 47.5747 67.6376 47.8741 68.3628C48.6217 70.154 49.3481 71.9571 50.0533 73.7723C50.7792 75.5646 51.5267 77.3557 52.296 79.1458C52.344 79.2304 52.4058 79.3688 52.4812 79.5609C52.5784 79.752 52.6921 79.8441 52.8225 79.8372C52.9529 79.8304 53.0564 79.7269 53.1331 79.5268C53.2304 79.3038 53.2876 79.1483 53.3048 79.0602C53.9022 77.155 54.4447 75.2417 54.9323 73.3205C55.4406 71.3764 55.9608 69.4534 56.493 67.5516C56.6967 66.8654 56.8776 66.1587 57.0356 65.4313C57.2153 64.7029 57.4299 64.0161 57.6794 63.3712C57.8327 62.9709 58.0135 62.6782 58.2217 62.4929C58.4287 62.286 58.7604 62.1705 59.2167 62.1466L70.5924 61.5505C70.9835 61.53 71.3998 61.5735 71.8413 61.6811C72.2827 61.7887 72.5171 62.1033 72.5444 62.6248C72.5558 62.8421 72.5237 63.0617 72.4482 63.2835C72.3944 63.5042 72.3183 63.7152 72.2199 63.9165C70.6339 67.7474 69.025 71.5578 67.3933 75.3476C65.7616 79.1373 64.1751 82.9574 62.6337 86.8078C62.0936 88.1435 61.5426 89.4797 60.9807 90.8166C60.4178 92.1317 59.8885 93.4668 59.393 94.8219L59.3398 95.0535L60.0662 107.043C60.1254 108.173 59.59 108.768 58.4601 108.827L49.4638 109.299C48.3339 109.358 47.7393 108.822 47.6801 107.692L47.1492 95.6924Z" fill="white"/>
<path d="M89.4424 84.455C89.4857 85.2807 89.5187 86.1179 89.5414 86.9665C89.5846 87.7922 89.6388 88.6174 89.7038 89.442C89.8588 91.5693 90.5378 93.2986 91.7406 94.6301C92.9423 95.9399 94.6732 96.5356 96.9331 96.4171C99.3234 96.2919 101.116 95.5769 102.312 94.2722C103.529 92.9664 104.074 91.1075 103.948 88.6955L103.686 83.7085C103.553 81.166 103.42 78.6236 103.287 76.0812C103.174 73.5159 103.062 70.9615 102.95 68.418L102.71 63.8221C102.712 63.4515 102.692 63.0713 102.65 62.6813C102.606 62.2695 102.597 61.8887 102.623 61.5387C102.658 60.9703 102.778 60.5501 102.981 60.2779C103.206 59.9829 103.622 59.8194 104.23 59.7876L113.064 59.3246C114.172 59.2665 114.756 59.8133 114.817 60.965C114.877 62.1167 114.916 63.2804 114.934 64.4561C114.974 65.6307 115.002 66.7949 115.019 67.9489C115.125 70.3838 115.221 72.841 115.307 75.3205C115.414 77.7771 115.532 80.2332 115.661 82.6887C115.71 83.6231 115.77 84.5569 115.84 85.4902C115.91 86.4017 115.958 87.3252 115.986 88.2607C116.153 91.869 115.427 95.0666 113.808 97.8534C112.189 100.64 109.963 102.859 107.13 104.511C104.297 106.163 101.131 107.081 97.6323 107.264C93.8947 107.46 90.545 106.949 87.5832 105.732C84.6202 104.493 82.243 102.58 80.4514 99.9937C78.6816 97.4063 77.6947 94.1678 77.4909 90.2781C77.4362 89.2351 77.3816 88.1921 77.3269 87.149C77.294 86.1048 77.2502 85.0612 77.1955 84.0182C77.0725 81.6714 76.9392 79.336 76.7956 77.012C76.6509 74.6663 76.4959 72.332 76.3306 70.0092C76.2474 68.8369 76.1533 67.6652 76.0483 66.494C75.9434 65.3229 75.8607 64.1615 75.8003 63.0098C75.74 61.8581 76.2639 61.2532 77.3722 61.1951L86.401 60.722C87.0311 60.6889 87.4623 60.808 87.6944 61.0791C87.9253 61.3284 88.0882 61.7339 88.183 62.2955C88.2447 62.6409 88.2755 63.0206 88.2754 63.4346C88.2742 63.8269 88.2941 64.2071 88.3352 64.5754L88.5761 69.1713C88.731 71.7126 88.8757 74.2653 89.0101 76.8294C89.1651 79.3707 89.3092 81.9125 89.4424 84.455Z" fill="white"/>
<path d="M125.769 105.3C124.661 105.358 124.076 104.811 124.016 103.659C123.954 102.486 123.915 101.311 123.897 100.136C123.899 98.9369 123.881 97.7504 123.841 96.5758C123.76 94.205 123.669 91.8456 123.568 89.4976C123.488 87.1485 123.386 84.7896 123.262 82.4211C122.918 75.8586 122.477 69.3121 121.939 62.7816L121.908 62.1949C121.896 61.9559 121.904 61.4979 121.934 60.8208C121.963 60.122 122.184 59.7618 122.597 59.7402C122.966 59.7208 123.382 59.9714 123.845 60.4919C124.329 60.9895 124.675 61.3527 124.883 61.5814C125.835 62.7082 126.767 63.8578 127.679 65.0302C128.589 66.181 129.499 67.3317 130.409 68.4824C132.252 70.8045 134.073 73.1277 135.873 75.452C137.694 77.7753 139.516 80.1093 141.339 82.4543C142.133 83.4803 142.917 84.5069 143.69 85.5341C144.485 86.5602 145.279 87.5753 146.072 88.5797C146.234 88.7673 146.392 88.8571 146.544 88.8491C146.674 88.8423 146.81 88.7371 146.952 88.5335C148.143 86.728 149.301 84.9132 150.426 83.0893C151.572 81.2643 152.719 79.4501 153.866 77.6468C156.302 73.8149 158.75 70.0041 161.21 66.2146C163.669 62.425 166.163 58.6663 168.692 54.9385L168.855 54.9299C168.919 59.0666 169.016 63.2124 169.147 67.3674C169.299 71.5213 169.484 75.6734 169.702 79.8238C169.826 82.1924 169.961 84.5604 170.107 86.9279C170.274 89.2941 170.442 91.6713 170.611 94.0593C170.696 95.2533 170.791 96.4468 170.897 97.6396C171.024 98.8097 171.118 99.9922 171.181 101.187C171.241 102.339 170.717 102.944 169.609 103.002L160.548 103.477C159.939 103.509 159.519 103.4 159.289 103.151C159.056 102.88 158.894 102.474 158.8 101.934C158.682 101.352 158.617 100.735 158.605 100.082C158.614 99.4273 158.592 98.7966 158.538 98.1893C158.439 96.7128 158.35 95.2248 158.272 93.7255C158.214 92.2032 158.124 90.7044 158.003 89.2291C158.001 89.1856 157.98 89.0015 157.942 88.6767C157.902 88.3301 157.806 88.1608 157.654 88.1688C157.523 88.1756 157.388 88.3026 157.249 88.5496C157.109 88.7966 157.019 88.9538 156.979 89.0213C155.414 92.0013 153.882 95.0014 152.385 98.0215C150.886 101.02 149.365 104.019 147.823 107.02L147.66 107.029C145.783 104.469 143.926 101.886 142.09 99.2801C140.254 96.6744 138.376 94.1036 136.456 91.5676C136.408 91.483 136.303 91.3578 136.142 91.1919C136.002 91.0031 135.866 90.9122 135.736 90.919C135.584 90.927 135.505 91.0837 135.499 91.389C135.493 91.6944 135.491 91.8688 135.494 91.9123C135.558 93.1509 135.613 94.4009 135.657 95.6624C135.701 96.9021 135.744 98.1419 135.787 99.3816C135.819 99.9901 135.863 100.62 135.919 101.27C135.996 101.92 136.007 102.541 135.951 103.132C135.914 103.678 135.794 104.099 135.592 104.393C135.388 104.665 134.982 104.817 134.374 104.849L125.769 105.3Z" fill="white"/>
<path d="M180.463 102.433C179.355 102.491 178.771 101.944 178.71 100.793C178.649 99.6194 178.609 98.4448 178.591 97.2691C178.594 96.0705 178.575 94.884 178.535 93.7094C178.455 91.3386 178.364 88.9792 178.262 86.6312C178.183 84.2821 178.081 81.9232 177.957 79.5546C177.613 72.9922 177.172 66.4457 176.633 59.9152L176.603 59.3285C176.59 59.0895 176.599 58.6314 176.629 57.9544C176.657 57.2556 176.878 56.8954 177.291 56.8738C177.66 56.8544 178.077 57.105 178.54 57.6254C179.023 58.1231 179.369 58.4862 179.577 58.715C180.53 59.8418 181.462 60.9914 182.373 62.1638C183.283 63.3146 184.193 64.4653 185.103 65.616C186.946 67.9381 188.768 70.2613 190.567 72.5856C192.389 74.9088 194.211 77.2429 196.033 79.5878C196.828 80.6139 197.611 81.6405 198.384 82.6677C199.179 83.6937 199.973 84.7089 200.766 85.7133C200.929 85.9009 201.086 85.9907 201.238 85.9827C201.369 85.9759 201.505 85.8707 201.647 85.6671C202.838 83.8615 203.995 82.0468 205.12 80.2229C206.266 78.3978 207.413 76.5837 208.561 74.7804C210.997 70.9485 213.444 67.1377 215.904 63.3481C218.364 59.5586 220.858 55.7999 223.386 52.0721L223.549 52.0635C223.613 56.2002 223.711 60.346 223.841 64.501C223.994 68.6549 224.179 72.807 224.396 76.9574C224.52 79.326 224.655 81.694 224.801 84.0614C224.969 86.4277 225.137 88.8049 225.306 91.1929C225.39 92.3869 225.485 93.5804 225.591 94.7732C225.718 95.9432 225.813 97.1258 225.875 98.321C225.936 99.4727 225.412 100.078 224.303 100.136L215.242 100.611C214.634 100.642 214.214 100.534 213.983 100.284C213.751 100.013 213.588 99.6077 213.494 99.0679C213.377 98.4857 213.312 97.8681 213.299 97.2151C213.308 96.5609 213.286 95.9302 213.233 95.3229C213.133 93.8464 213.045 92.3584 212.966 90.8591C212.908 89.3368 212.819 87.838 212.698 86.3627C212.695 86.3192 212.675 86.1351 212.636 85.8103C212.596 85.4637 212.5 85.2944 212.348 85.3024C212.218 85.3092 212.083 85.4361 211.943 85.6832C211.803 85.9302 211.714 86.0874 211.674 86.1549C210.108 89.1349 208.577 92.135 207.079 95.1551C205.58 98.1535 204.06 101.153 202.517 104.154L202.354 104.162C200.477 101.602 198.62 99.0194 196.784 96.4137C194.948 93.808 193.07 91.2372 191.15 88.7012C191.102 88.6166 190.998 88.4913 190.837 88.3255C190.696 88.1367 190.56 88.0458 190.43 88.0526C190.278 88.0606 190.199 88.2172 190.193 88.5226C190.187 88.828 190.186 89.0024 190.188 89.0458C190.253 90.2844 190.307 91.5345 190.352 92.796C190.395 94.0357 190.438 95.2755 190.481 96.5152C190.513 97.1237 190.557 97.7533 190.613 98.404C190.691 99.0536 190.701 99.6741 190.645 100.265C190.608 100.812 190.489 101.232 190.286 101.526C190.083 101.798 189.677 101.95 189.068 101.982L180.463 102.433Z" fill="white"/>
<path d="M243.371 85.4088L243.327 85.1824C243.105 84.6928 242.862 84.2153 242.598 83.7498C242.354 83.2614 242.101 82.7844 241.836 82.3189L238.889 76.5901C237.093 73.0889 235.255 69.6118 233.374 66.1586C231.514 62.6826 229.665 59.206 227.827 55.7288C227.73 55.5378 227.632 55.3359 227.534 55.1232C227.457 54.9093 227.413 54.6937 227.402 54.4764C227.375 53.9766 227.565 53.6507 227.971 53.4987C228.399 53.3455 228.809 53.2587 229.2 53.2382L240.641 52.6386C241.075 52.6158 241.406 52.6965 241.634 52.8807C241.86 53.0432 242.07 53.3045 242.263 53.6648C242.626 54.3431 242.947 55.0671 243.227 55.8369C243.507 56.6066 243.797 57.3541 244.096 58.0792C244.844 59.8704 245.57 61.6736 246.275 63.4887C247.001 65.281 247.749 67.0722 248.518 68.8622C248.566 68.9468 248.628 69.0852 248.703 69.2774C248.8 69.4684 248.914 69.5605 249.044 69.5537C249.175 69.5468 249.278 69.4433 249.355 69.2432C249.452 69.0202 249.51 68.8647 249.527 68.7766C250.124 66.8714 250.667 64.9582 251.154 63.0369C251.662 61.0928 252.183 59.1698 252.715 57.268C252.919 56.5819 253.1 55.8751 253.258 55.1478C253.437 54.4193 253.652 53.7326 253.901 53.0876C254.055 52.6873 254.235 52.3946 254.444 52.2094C254.651 52.0024 254.982 51.887 255.439 51.8631L266.814 51.2669C267.205 51.2464 267.622 51.2899 268.063 51.3976C268.505 51.5052 268.739 51.8197 268.766 52.3412C268.778 52.5585 268.746 52.7781 268.67 53C268.616 53.2207 268.54 53.4317 268.442 53.6329C266.856 57.4639 265.247 61.2742 263.615 65.064C261.984 68.8538 260.397 72.6738 258.856 76.5242C258.315 77.8599 257.765 79.1962 257.203 80.533C256.64 81.8481 256.11 83.1832 255.615 84.5384L255.562 84.7699L256.288 96.7598C256.347 97.8897 255.812 98.4843 254.682 98.5436L245.686 99.015C244.556 99.0742 243.961 98.5389 243.902 97.4089L243.371 85.4088Z" fill="white"/>
<mask id="path-48-outside-1_3272_445715" maskUnits="userSpaceOnUse" x="27.949" y="47.7001" width="242.445" height="65.488" fill="black">
<rect fill="white" x="27.949" y="47.7001" width="242.445" height="65.488"/>
<path d="M45.1063 94.7471L45.0617 94.5206C44.84 94.0311 44.597 93.5535 44.3329 93.088C44.0895 92.5996 43.8357 92.1226 43.5716 91.6571L40.6239 85.9284C38.828 82.4272 36.9897 78.95 35.1092 75.4968C33.2492 72.0208 31.4001 68.5442 29.5618 65.067C29.4647 64.876 29.3669 64.6742 29.2686 64.4614C29.192 64.2475 29.148 64.0319 29.1367 63.8146C29.1105 63.3148 29.3004 62.9889 29.7064 62.8369C30.1342 62.6838 30.5436 62.5969 30.9348 62.5764L42.3756 61.9768C42.8102 61.9541 43.1413 62.0348 43.3689 62.219C43.5953 62.3814 43.8051 62.6428 43.9983 63.0031C44.3607 63.6814 44.6819 64.4054 44.9619 65.1751C45.2419 65.9449 45.5317 66.6923 45.8312 67.4175C46.5787 69.2086 47.3051 71.0118 48.0104 72.827C48.7362 74.6193 49.4838 76.4104 50.253 78.2004C50.3011 78.2851 50.3628 78.4235 50.4382 78.6156C50.5354 78.8066 50.6492 78.8987 50.7796 78.8919C50.9099 78.8851 51.0135 78.7816 51.0901 78.5815C51.1874 78.3585 51.2446 78.2029 51.2618 78.1149C51.8592 76.2097 52.4017 74.2964 52.8894 72.3752C53.3976 70.431 53.9178 68.5081 54.4501 66.6063C54.6538 65.9201 54.8346 65.2134 54.9926 64.486C55.1723 63.7575 55.3869 63.0708 55.6364 62.4258C55.7897 62.0256 55.9705 61.7328 56.1787 61.5476C56.3857 61.3407 56.7174 61.2252 57.1738 61.2013L68.5494 60.6051C68.9406 60.5846 69.3568 60.6282 69.7983 60.7358C70.2397 60.8434 70.4741 61.158 70.5014 61.6795C70.5128 61.8968 70.4807 62.1164 70.4052 62.3382C70.3514 62.5589 70.2753 62.7699 70.1769 62.9712C68.5909 66.8021 66.9821 70.6125 65.3504 74.4022C63.7186 78.192 62.1321 82.0121 60.5907 85.8625C60.0506 87.1982 59.4996 88.5344 58.9378 89.8713C58.3748 91.1863 57.8455 92.5215 57.35 93.8766L57.2968 94.1082L58.0232 106.098C58.0824 107.228 57.5471 107.823 56.4171 107.882L47.4209 108.353C46.2909 108.412 45.6963 107.877 45.6371 106.747L45.1063 94.7471Z"/>
<path d="M87.3994 83.5096C87.4427 84.3354 87.4757 85.1726 87.4984 86.0212C87.5417 86.8469 87.5958 87.6721 87.6608 88.4967C87.8159 90.6239 88.4948 92.3533 89.6977 93.6848C90.8994 94.9946 92.6302 95.5903 94.8901 95.4718C97.2804 95.3466 99.0733 94.6316 100.269 93.3269C101.486 92.0211 102.031 90.1622 101.905 87.7502L101.643 82.7631C101.51 80.2207 101.377 77.6783 101.244 75.1359C101.131 72.5706 101.019 70.0162 100.907 67.4727L100.667 62.8768C100.669 62.5062 100.649 62.126 100.607 61.7359C100.563 61.3242 100.554 60.9434 100.58 60.5934C100.615 60.025 100.735 59.6047 100.938 59.3326C101.163 59.0376 101.579 58.8741 102.187 58.8422L111.021 58.3793C112.129 58.3212 112.713 58.868 112.774 60.0197C112.834 61.1714 112.873 62.3351 112.891 63.5108C112.931 64.6854 112.959 65.8496 112.976 67.0036C113.082 69.4385 113.178 71.8957 113.264 74.3752C113.371 76.8318 113.489 79.2879 113.618 81.7434C113.667 82.6778 113.727 83.6116 113.797 84.5448C113.867 85.4564 113.915 86.3799 113.943 87.3154C114.11 90.9237 113.384 94.1213 111.765 96.908C110.146 99.6948 107.92 101.914 105.087 103.566C102.254 105.218 99.0879 106.136 95.5893 106.319C91.8518 106.515 88.5021 106.004 85.5402 104.787C82.5773 103.547 80.2 101.635 78.4084 99.0484C76.6386 96.461 75.6518 93.2225 75.4479 89.3328C75.3933 88.2898 75.3386 87.2468 75.2839 86.2037C75.251 85.1595 75.2072 84.1159 75.1525 83.0729C75.0295 80.726 74.8963 78.3906 74.7527 76.0667C74.608 73.721 74.4529 71.3867 74.2876 69.0639C74.2044 67.8916 74.1103 66.7199 74.0053 65.5487C73.9004 64.3776 73.8177 63.2162 73.7574 62.0645C73.697 60.9128 74.221 60.3079 75.3292 60.2498L84.358 59.7766C84.9882 59.7436 85.4193 59.8627 85.6514 60.1338C85.8824 60.3831 86.0453 60.7886 86.1401 61.3502C86.2017 61.6956 86.2325 62.0753 86.2324 62.4893C86.2312 62.8816 86.2511 63.2618 86.2922 63.6301L86.5331 68.226C86.6881 70.7673 86.8327 73.32 86.9671 75.8841C87.1221 78.4254 87.2662 80.9672 87.3994 83.5096Z"/>
<path d="M123.726 104.354C122.618 104.412 122.033 103.866 121.973 102.714C121.911 101.54 121.872 100.366 121.854 99.1902C121.856 97.9916 121.838 96.8051 121.798 95.6305C121.717 93.2597 121.626 90.9003 121.525 88.5523C121.445 86.2032 121.344 83.8443 121.219 81.4757C120.875 74.9133 120.434 68.3668 119.896 61.8363L119.865 61.2496C119.853 61.0106 119.861 60.5525 119.891 59.8755C119.92 59.1767 120.141 58.8165 120.554 58.7949C120.923 58.7755 121.339 59.0261 121.802 59.5465C122.286 60.0442 122.632 60.4073 122.84 60.6361C123.792 61.7629 124.724 62.9125 125.636 64.0849C126.546 65.2357 127.456 66.3864 128.366 67.5371C130.209 69.8592 132.03 72.1824 133.83 74.5067C135.651 76.8299 137.473 79.164 139.296 81.5089C140.09 82.535 140.874 83.5616 141.647 84.5888C142.442 85.6148 143.236 86.63 144.029 87.6343C144.191 87.8219 144.349 87.9118 144.501 87.9038C144.631 87.897 144.767 87.7918 144.909 87.5882C146.1 85.7826 147.258 83.9679 148.383 82.144C149.529 80.3189 150.676 78.5048 151.823 76.7015C154.259 72.8696 156.707 69.0588 159.167 65.2692C161.626 61.4797 164.12 57.721 166.649 53.9932L166.812 53.9846C166.876 58.1213 166.973 62.2671 167.104 66.4221C167.256 70.576 167.441 74.7281 167.659 78.8785C167.783 81.2471 167.918 83.6151 168.064 85.9825C168.231 88.3488 168.399 90.726 168.568 93.114C168.653 94.308 168.748 95.5015 168.854 96.6943C168.981 97.8643 169.075 99.0469 169.138 100.242C169.198 101.394 168.674 101.999 167.566 102.057L158.505 102.532C157.896 102.563 157.477 102.455 157.246 102.205C157.013 101.934 156.851 101.529 156.757 100.989C156.639 100.407 156.574 99.7892 156.562 99.1362C156.571 98.482 156.549 97.8513 156.495 97.244C156.396 95.7675 156.307 94.2795 156.229 92.7802C156.171 91.2579 156.081 89.7591 155.96 88.2838C155.958 88.2403 155.937 88.0562 155.899 87.7314C155.859 87.3848 155.763 87.2155 155.611 87.2235C155.48 87.2303 155.345 87.3573 155.206 87.6043C155.066 87.8513 154.976 88.0085 154.936 88.076C153.371 91.056 151.84 94.0561 150.342 97.0762C148.843 100.075 147.322 103.074 145.78 106.075L145.617 106.083C143.74 103.523 141.883 100.94 140.047 98.3348C138.211 95.7291 136.333 93.1583 134.413 90.6223C134.365 90.5377 134.26 90.4124 134.099 90.2466C133.959 90.0578 133.823 89.9669 133.693 89.9737C133.541 89.9817 133.462 90.1384 133.456 90.4437C133.45 90.7491 133.448 90.9235 133.451 90.9669C133.515 92.2055 133.57 93.4556 133.614 94.7171C133.658 95.9568 133.701 97.1966 133.744 98.4363C133.776 99.0448 133.82 99.6744 133.876 100.325C133.953 100.975 133.964 101.595 133.908 102.186C133.871 102.733 133.751 103.153 133.549 103.447C133.345 103.719 132.939 103.871 132.331 103.903L123.726 104.354Z"/>
<path d="M178.42 101.488C177.312 101.546 176.728 100.999 176.667 99.8475C176.606 98.674 176.566 97.4995 176.548 96.3238C176.551 95.1252 176.532 93.9387 176.492 92.7641C176.412 90.3933 176.321 88.0338 176.219 85.6859C176.14 83.3367 176.038 80.9779 175.914 78.6093C175.57 72.0469 175.129 65.5004 174.59 58.9699L174.56 58.3832C174.547 58.1442 174.556 57.6861 174.586 57.0091C174.614 56.3103 174.835 55.9501 175.248 55.9285C175.618 55.9091 176.034 56.1597 176.497 56.6801C176.98 57.1777 177.326 57.5409 177.534 57.7697C178.487 58.8964 179.419 60.046 180.33 61.2185C181.24 62.3692 182.15 63.52 183.06 64.6707C184.903 66.9928 186.725 69.316 188.524 71.6403C190.346 73.9635 192.168 76.2976 193.99 78.6425C194.785 79.6686 195.568 80.6952 196.341 81.7224C197.136 82.7484 197.93 83.7636 198.724 84.7679C198.886 84.9555 199.043 85.0453 199.195 85.0374C199.326 85.0305 199.462 84.9254 199.604 84.7218C200.795 82.9162 201.952 81.1015 203.077 79.2776C204.223 77.4525 205.37 75.6384 206.518 73.835C208.954 70.0031 211.401 66.1924 213.861 62.4028C216.321 58.6132 218.815 54.8546 221.343 51.1268L221.506 51.1182C221.57 55.2549 221.668 59.4007 221.798 63.5557C221.951 67.7095 222.136 71.8617 222.353 76.0121C222.477 78.3807 222.612 80.7487 222.758 83.1161C222.926 85.4824 223.094 87.8596 223.263 90.2476C223.347 91.4416 223.442 92.635 223.548 93.8279C223.675 94.9979 223.77 96.1805 223.832 97.3757C223.893 98.5273 223.369 99.1322 222.26 99.1903L213.199 99.6652C212.591 99.6971 212.171 99.5883 211.94 99.339C211.708 99.0679 211.545 98.6624 211.451 98.1226C211.334 97.5404 211.269 96.9228 211.256 96.2698C211.265 95.6156 211.243 94.9849 211.19 94.3776C211.091 92.9011 211.002 91.4131 210.923 89.9137C210.865 88.3915 210.776 86.8927 210.655 85.4173C210.652 85.3739 210.632 85.1898 210.593 84.8649C210.553 84.5184 210.457 84.3491 210.305 84.3571C210.175 84.3639 210.04 84.4908 209.9 84.7378C209.76 84.9848 209.671 85.1421 209.631 85.2095C208.065 88.1896 206.534 91.1897 205.036 94.2098C203.537 97.2082 202.017 100.208 200.474 103.208L200.311 103.217C198.434 100.657 196.577 98.0741 194.741 95.4684C192.905 92.8627 191.027 90.2919 189.107 87.7559C189.059 87.6713 188.955 87.546 188.794 87.3802C188.653 87.1914 188.517 87.1005 188.387 87.1073C188.235 87.1153 188.156 87.2719 188.15 87.5773C188.144 87.8827 188.143 88.0571 188.145 88.1005C188.21 89.3391 188.265 90.5892 188.309 91.8507C188.352 93.0904 188.395 94.3302 188.438 95.5699C188.47 96.1783 188.514 96.8079 188.57 97.4587C188.648 98.1083 188.658 98.7288 188.602 99.32C188.566 99.8667 188.446 100.287 188.243 100.581C188.04 100.853 187.634 101.005 187.025 101.037L178.42 101.488Z"/>
<path d="M241.328 84.4635L241.284 84.2371C241.062 83.7475 240.819 83.27 240.555 82.8044C240.311 82.316 240.058 81.8391 239.794 81.3735L236.846 75.6448C235.05 72.1436 233.212 68.6665 231.331 65.2133C229.471 61.7373 227.622 58.2607 225.784 54.7835C225.687 54.5925 225.589 54.3906 225.491 54.1779C225.414 53.964 225.37 53.7484 225.359 53.5311C225.332 53.0313 225.522 52.7054 225.928 52.5534C226.356 52.4002 226.766 52.3134 227.157 52.2929L238.598 51.6933C239.032 51.6705 239.363 51.7512 239.591 51.9354C239.817 52.0979 240.027 52.3592 240.22 52.7195C240.583 53.3978 240.904 54.1218 241.184 54.8916C241.464 55.6613 241.754 56.4088 242.053 57.1339C242.801 58.9251 243.527 60.7282 244.232 62.5434C244.958 64.3357 245.706 66.1269 246.475 67.9169C246.523 68.0015 246.585 68.1399 246.66 68.3321C246.757 68.5231 246.871 68.6152 247.001 68.6083C247.132 68.6015 247.235 68.498 247.312 68.2979C247.409 68.0749 247.467 67.9194 247.484 67.8313C248.081 65.9261 248.624 64.0129 249.111 62.0916C249.62 60.1475 250.14 58.2245 250.672 56.3227C250.876 55.6366 251.057 54.9298 251.215 54.2025C251.394 53.474 251.609 52.7873 251.858 52.1423C252.012 51.742 252.192 51.4493 252.401 51.2641C252.608 51.0571 252.939 50.9417 253.396 50.9178L264.771 50.3216C265.162 50.3011 265.579 50.3446 266.02 50.4522C266.462 50.5598 266.696 50.8744 266.723 51.3959C266.735 51.6132 266.703 51.8328 266.627 52.0547C266.573 52.2754 266.497 52.4864 266.399 52.6876C264.813 56.5186 263.204 60.3289 261.572 64.1187C259.941 67.9084 258.354 71.7285 256.813 75.5789C256.273 76.9146 255.722 78.2509 255.16 79.5877C254.597 80.9028 254.067 82.2379 253.572 83.593L253.519 83.8246L254.245 95.8145C254.304 96.9444 253.769 97.539 252.639 97.5982L243.643 98.0697C242.513 98.1289 241.918 97.5936 241.859 96.4636L241.328 84.4635Z"/>
</mask>
<g filter="url(#filter2_i_3272_445715)">
<path d="M45.1063 94.7471L45.0617 94.5206C44.84 94.0311 44.597 93.5535 44.3329 93.088C44.0895 92.5996 43.8357 92.1226 43.5716 91.6571L40.6239 85.9284C38.828 82.4272 36.9897 78.95 35.1092 75.4968C33.2492 72.0208 31.4001 68.5442 29.5618 65.067C29.4647 64.876 29.3669 64.6742 29.2686 64.4614C29.192 64.2475 29.148 64.0319 29.1367 63.8146C29.1105 63.3148 29.3004 62.9889 29.7064 62.8369C30.1342 62.6838 30.5436 62.5969 30.9348 62.5764L42.3756 61.9768C42.8102 61.9541 43.1413 62.0348 43.3689 62.219C43.5953 62.3814 43.8051 62.6428 43.9983 63.0031C44.3607 63.6814 44.6819 64.4054 44.9619 65.1751C45.2419 65.9449 45.5317 66.6923 45.8312 67.4175C46.5787 69.2086 47.3051 71.0118 48.0104 72.827C48.7362 74.6193 49.4838 76.4104 50.253 78.2004C50.3011 78.2851 50.3628 78.4235 50.4382 78.6156C50.5354 78.8066 50.6492 78.8987 50.7796 78.8919C50.9099 78.8851 51.0135 78.7816 51.0901 78.5815C51.1874 78.3585 51.2446 78.2029 51.2618 78.1149C51.8592 76.2097 52.4017 74.2964 52.8894 72.3752C53.3976 70.431 53.9178 68.5081 54.4501 66.6063C54.6538 65.9201 54.8346 65.2134 54.9926 64.486C55.1723 63.7575 55.3869 63.0708 55.6364 62.4258C55.7897 62.0256 55.9705 61.7328 56.1787 61.5476C56.3857 61.3407 56.7174 61.2252 57.1738 61.2013L68.5494 60.6051C68.9406 60.5846 69.3568 60.6282 69.7983 60.7358C70.2397 60.8434 70.4741 61.158 70.5014 61.6795C70.5128 61.8968 70.4807 62.1164 70.4052 62.3382C70.3514 62.5589 70.2753 62.7699 70.1769 62.9712C68.5909 66.8021 66.9821 70.6125 65.3504 74.4022C63.7186 78.192 62.1321 82.0121 60.5907 85.8625C60.0506 87.1982 59.4996 88.5344 58.9378 89.8713C58.3748 91.1863 57.8455 92.5215 57.35 93.8766L57.2968 94.1082L58.0232 106.098C58.0824 107.228 57.5471 107.823 56.4171 107.882L47.4209 108.353C46.2909 108.412 45.6963 107.877 45.6371 106.747L45.1063 94.7471Z" fill="url(#paint4_linear_3272_445715)"/>
<path d="M87.3994 83.5096C87.4427 84.3354 87.4757 85.1726 87.4984 86.0212C87.5417 86.8469 87.5958 87.6721 87.6608 88.4967C87.8159 90.6239 88.4948 92.3533 89.6977 93.6848C90.8994 94.9946 92.6302 95.5903 94.8901 95.4718C97.2804 95.3466 99.0733 94.6316 100.269 93.3269C101.486 92.0211 102.031 90.1622 101.905 87.7502L101.643 82.7631C101.51 80.2207 101.377 77.6783 101.244 75.1359C101.131 72.5706 101.019 70.0162 100.907 67.4727L100.667 62.8768C100.669 62.5062 100.649 62.126 100.607 61.7359C100.563 61.3242 100.554 60.9434 100.58 60.5934C100.615 60.025 100.735 59.6047 100.938 59.3326C101.163 59.0376 101.579 58.8741 102.187 58.8422L111.021 58.3793C112.129 58.3212 112.713 58.868 112.774 60.0197C112.834 61.1714 112.873 62.3351 112.891 63.5108C112.931 64.6854 112.959 65.8496 112.976 67.0036C113.082 69.4385 113.178 71.8957 113.264 74.3752C113.371 76.8318 113.489 79.2879 113.618 81.7434C113.667 82.6778 113.727 83.6116 113.797 84.5448C113.867 85.4564 113.915 86.3799 113.943 87.3154C114.11 90.9237 113.384 94.1213 111.765 96.908C110.146 99.6948 107.92 101.914 105.087 103.566C102.254 105.218 99.0879 106.136 95.5893 106.319C91.8518 106.515 88.5021 106.004 85.5402 104.787C82.5773 103.547 80.2 101.635 78.4084 99.0484C76.6386 96.461 75.6518 93.2225 75.4479 89.3328C75.3933 88.2898 75.3386 87.2468 75.2839 86.2037C75.251 85.1595 75.2072 84.1159 75.1525 83.0729C75.0295 80.726 74.8963 78.3906 74.7527 76.0667C74.608 73.721 74.4529 71.3867 74.2876 69.0639C74.2044 67.8916 74.1103 66.7199 74.0053 65.5487C73.9004 64.3776 73.8177 63.2162 73.7574 62.0645C73.697 60.9128 74.221 60.3079 75.3292 60.2498L84.358 59.7766C84.9882 59.7436 85.4193 59.8627 85.6514 60.1338C85.8824 60.3831 86.0453 60.7886 86.1401 61.3502C86.2017 61.6956 86.2325 62.0753 86.2324 62.4893C86.2312 62.8816 86.2511 63.2618 86.2922 63.6301L86.5331 68.226C86.6881 70.7673 86.8327 73.32 86.9671 75.8841C87.1221 78.4254 87.2662 80.9672 87.3994 83.5096Z" fill="url(#paint5_linear_3272_445715)"/>
<path d="M123.726 104.354C122.618 104.412 122.033 103.866 121.973 102.714C121.911 101.54 121.872 100.366 121.854 99.1902C121.856 97.9916 121.838 96.8051 121.798 95.6305C121.717 93.2597 121.626 90.9003 121.525 88.5523C121.445 86.2032 121.344 83.8443 121.219 81.4757C120.875 74.9133 120.434 68.3668 119.896 61.8363L119.865 61.2496C119.853 61.0106 119.861 60.5525 119.891 59.8755C119.92 59.1767 120.141 58.8165 120.554 58.7949C120.923 58.7755 121.339 59.0261 121.802 59.5465C122.286 60.0442 122.632 60.4073 122.84 60.6361C123.792 61.7629 124.724 62.9125 125.636 64.0849C126.546 65.2357 127.456 66.3864 128.366 67.5371C130.209 69.8592 132.03 72.1824 133.83 74.5067C135.651 76.8299 137.473 79.164 139.296 81.5089C140.09 82.535 140.874 83.5616 141.647 84.5888C142.442 85.6148 143.236 86.63 144.029 87.6343C144.191 87.8219 144.349 87.9118 144.501 87.9038C144.631 87.897 144.767 87.7918 144.909 87.5882C146.1 85.7826 147.258 83.9679 148.383 82.144C149.529 80.3189 150.676 78.5048 151.823 76.7015C154.259 72.8696 156.707 69.0588 159.167 65.2692C161.626 61.4797 164.12 57.721 166.649 53.9932L166.812 53.9846C166.876 58.1213 166.973 62.2671 167.104 66.4221C167.256 70.576 167.441 74.7281 167.659 78.8785C167.783 81.2471 167.918 83.6151 168.064 85.9825C168.231 88.3488 168.399 90.726 168.568 93.114C168.653 94.308 168.748 95.5015 168.854 96.6943C168.981 97.8643 169.075 99.0469 169.138 100.242C169.198 101.394 168.674 101.999 167.566 102.057L158.505 102.532C157.896 102.563 157.477 102.455 157.246 102.205C157.013 101.934 156.851 101.529 156.757 100.989C156.639 100.407 156.574 99.7892 156.562 99.1362C156.571 98.482 156.549 97.8513 156.495 97.244C156.396 95.7675 156.307 94.2795 156.229 92.7802C156.171 91.2579 156.081 89.7591 155.96 88.2838C155.958 88.2403 155.937 88.0562 155.899 87.7314C155.859 87.3848 155.763 87.2155 155.611 87.2235C155.48 87.2303 155.345 87.3573 155.206 87.6043C155.066 87.8513 154.976 88.0085 154.936 88.076C153.371 91.056 151.84 94.0561 150.342 97.0762C148.843 100.075 147.322 103.074 145.78 106.075L145.617 106.083C143.74 103.523 141.883 100.94 140.047 98.3348C138.211 95.7291 136.333 93.1583 134.413 90.6223C134.365 90.5377 134.26 90.4124 134.099 90.2466C133.959 90.0578 133.823 89.9669 133.693 89.9737C133.541 89.9817 133.462 90.1384 133.456 90.4437C133.45 90.7491 133.448 90.9235 133.451 90.9669C133.515 92.2055 133.57 93.4556 133.614 94.7171C133.658 95.9568 133.701 97.1966 133.744 98.4363C133.776 99.0448 133.82 99.6744 133.876 100.325C133.953 100.975 133.964 101.595 133.908 102.186C133.871 102.733 133.751 103.153 133.549 103.447C133.345 103.719 132.939 103.871 132.331 103.903L123.726 104.354Z" fill="url(#paint6_linear_3272_445715)"/>
<path d="M178.42 101.488C177.312 101.546 176.728 100.999 176.667 99.8475C176.606 98.674 176.566 97.4995 176.548 96.3238C176.551 95.1252 176.532 93.9387 176.492 92.7641C176.412 90.3933 176.321 88.0338 176.219 85.6859C176.14 83.3367 176.038 80.9779 175.914 78.6093C175.57 72.0469 175.129 65.5004 174.59 58.9699L174.56 58.3832C174.547 58.1442 174.556 57.6861 174.586 57.0091C174.614 56.3103 174.835 55.9501 175.248 55.9285C175.618 55.9091 176.034 56.1597 176.497 56.6801C176.98 57.1777 177.326 57.5409 177.534 57.7697C178.487 58.8964 179.419 60.046 180.33 61.2185C181.24 62.3692 182.15 63.52 183.06 64.6707C184.903 66.9928 186.725 69.316 188.524 71.6403C190.346 73.9635 192.168 76.2976 193.99 78.6425C194.785 79.6686 195.568 80.6952 196.341 81.7224C197.136 82.7484 197.93 83.7636 198.724 84.7679C198.886 84.9555 199.043 85.0453 199.195 85.0374C199.326 85.0305 199.462 84.9254 199.604 84.7218C200.795 82.9162 201.952 81.1015 203.077 79.2776C204.223 77.4525 205.37 75.6384 206.518 73.835C208.954 70.0031 211.401 66.1924 213.861 62.4028C216.321 58.6132 218.815 54.8546 221.343 51.1268L221.506 51.1182C221.57 55.2549 221.668 59.4007 221.798 63.5557C221.951 67.7095 222.136 71.8617 222.353 76.0121C222.477 78.3807 222.612 80.7487 222.758 83.1161C222.926 85.4824 223.094 87.8596 223.263 90.2476C223.347 91.4416 223.442 92.635 223.548 93.8279C223.675 94.9979 223.77 96.1805 223.832 97.3757C223.893 98.5273 223.369 99.1322 222.26 99.1903L213.199 99.6652C212.591 99.6971 212.171 99.5883 211.94 99.339C211.708 99.0679 211.545 98.6624 211.451 98.1226C211.334 97.5404 211.269 96.9228 211.256 96.2698C211.265 95.6156 211.243 94.9849 211.19 94.3776C211.091 92.9011 211.002 91.4131 210.923 89.9137C210.865 88.3915 210.776 86.8927 210.655 85.4173C210.652 85.3739 210.632 85.1898 210.593 84.8649C210.553 84.5184 210.457 84.3491 210.305 84.3571C210.175 84.3639 210.04 84.4908 209.9 84.7378C209.76 84.9848 209.671 85.1421 209.631 85.2095C208.065 88.1896 206.534 91.1897 205.036 94.2098C203.537 97.2082 202.017 100.208 200.474 103.208L200.311 103.217C198.434 100.657 196.577 98.0741 194.741 95.4684C192.905 92.8627 191.027 90.2919 189.107 87.7559C189.059 87.6713 188.955 87.546 188.794 87.3802C188.653 87.1914 188.517 87.1005 188.387 87.1073C188.235 87.1153 188.156 87.2719 188.15 87.5773C188.144 87.8827 188.143 88.0571 188.145 88.1005C188.21 89.3391 188.265 90.5892 188.309 91.8507C188.352 93.0904 188.395 94.3302 188.438 95.5699C188.47 96.1783 188.514 96.8079 188.57 97.4587C188.648 98.1083 188.658 98.7288 188.602 99.32C188.566 99.8667 188.446 100.287 188.243 100.581C188.04 100.853 187.634 101.005 187.025 101.037L178.42 101.488Z" fill="url(#paint7_linear_3272_445715)"/>
<path d="M241.328 84.4635L241.284 84.2371C241.062 83.7475 240.819 83.27 240.555 82.8044C240.311 82.316 240.058 81.8391 239.794 81.3735L236.846 75.6448C235.05 72.1436 233.212 68.6665 231.331 65.2133C229.471 61.7373 227.622 58.2607 225.784 54.7835C225.687 54.5925 225.589 54.3906 225.491 54.1779C225.414 53.964 225.37 53.7484 225.359 53.5311C225.332 53.0313 225.522 52.7054 225.928 52.5534C226.356 52.4002 226.766 52.3134 227.157 52.2929L238.598 51.6933C239.032 51.6705 239.363 51.7512 239.591 51.9354C239.817 52.0979 240.027 52.3592 240.22 52.7195C240.583 53.3978 240.904 54.1218 241.184 54.8916C241.464 55.6613 241.754 56.4088 242.053 57.1339C242.801 58.9251 243.527 60.7282 244.232 62.5434C244.958 64.3357 245.706 66.1269 246.475 67.9169C246.523 68.0015 246.585 68.1399 246.66 68.3321C246.757 68.5231 246.871 68.6152 247.001 68.6083C247.132 68.6015 247.235 68.498 247.312 68.2979C247.409 68.0749 247.467 67.9194 247.484 67.8313C248.081 65.9261 248.624 64.0129 249.111 62.0916C249.62 60.1475 250.14 58.2245 250.672 56.3227C250.876 55.6366 251.057 54.9298 251.215 54.2025C251.394 53.474 251.609 52.7873 251.858 52.1423C252.012 51.742 252.192 51.4493 252.401 51.2641C252.608 51.0571 252.939 50.9417 253.396 50.9178L264.771 50.3216C265.162 50.3011 265.579 50.3446 266.02 50.4522C266.462 50.5598 266.696 50.8744 266.723 51.3959C266.735 51.6132 266.703 51.8328 266.627 52.0547C266.573 52.2754 266.497 52.4864 266.399 52.6876C264.813 56.5186 263.204 60.3289 261.572 64.1187C259.941 67.9084 258.354 71.7285 256.813 75.5789C256.273 76.9146 255.722 78.2509 255.16 79.5877C254.597 80.9028 254.067 82.2379 253.572 83.593L253.519 83.8246L254.245 95.8145C254.304 96.9444 253.769 97.539 252.639 97.5982L243.643 98.0697C242.513 98.1289 241.918 97.5936 241.859 96.4636L241.328 84.4635Z" fill="url(#paint8_linear_3272_445715)"/>
</g>
<path d="M45.1063 94.7471L45.0617 94.5206C44.84 94.0311 44.597 93.5535 44.3329 93.088C44.0895 92.5996 43.8357 92.1226 43.5716 91.6571L40.6239 85.9284C38.828 82.4272 36.9897 78.95 35.1092 75.4968C33.2492 72.0208 31.4001 68.5442 29.5618 65.067C29.4647 64.876 29.3669 64.6742 29.2686 64.4614C29.192 64.2475 29.148 64.0319 29.1367 63.8146C29.1105 63.3148 29.3004 62.9889 29.7064 62.8369C30.1342 62.6838 30.5436 62.5969 30.9348 62.5764L42.3756 61.9768C42.8102 61.9541 43.1413 62.0348 43.3689 62.219C43.5953 62.3814 43.8051 62.6428 43.9983 63.0031C44.3607 63.6814 44.6819 64.4054 44.9619 65.1751C45.2419 65.9449 45.5317 66.6923 45.8312 67.4175C46.5787 69.2086 47.3051 71.0118 48.0104 72.827C48.7362 74.6193 49.4838 76.4104 50.253 78.2004C50.3011 78.2851 50.3628 78.4235 50.4382 78.6156C50.5354 78.8066 50.6492 78.8987 50.7796 78.8919C50.9099 78.8851 51.0135 78.7816 51.0901 78.5815C51.1874 78.3585 51.2446 78.2029 51.2618 78.1149C51.8592 76.2097 52.4017 74.2964 52.8894 72.3752C53.3976 70.431 53.9178 68.5081 54.4501 66.6063C54.6538 65.9201 54.8346 65.2134 54.9926 64.486C55.1723 63.7575 55.3869 63.0708 55.6364 62.4258C55.7897 62.0256 55.9705 61.7328 56.1787 61.5476C56.3857 61.3407 56.7174 61.2252 57.1738 61.2013L68.5494 60.6051C68.9406 60.5846 69.3568 60.6282 69.7983 60.7358C70.2397 60.8434 70.4741 61.158 70.5014 61.6795C70.5128 61.8968 70.4807 62.1164 70.4052 62.3382C70.3514 62.5589 70.2753 62.7699 70.1769 62.9712C68.5909 66.8021 66.9821 70.6125 65.3504 74.4022C63.7186 78.192 62.1321 82.0121 60.5907 85.8625C60.0506 87.1982 59.4996 88.5344 58.9378 89.8713C58.3748 91.1863 57.8455 92.5215 57.35 93.8766L57.2968 94.1082L58.0232 106.098C58.0824 107.228 57.5471 107.823 56.4171 107.882L47.4209 108.353C46.2909 108.412 45.6963 107.877 45.6371 106.747L45.1063 94.7471Z" stroke="#F9B026" stroke-width="1.6" mask="url(#path-48-outside-1_3272_445715)"/>
<path d="M87.3994 83.5096C87.4427 84.3354 87.4757 85.1726 87.4984 86.0212C87.5417 86.8469 87.5958 87.6721 87.6608 88.4967C87.8159 90.6239 88.4948 92.3533 89.6977 93.6848C90.8994 94.9946 92.6302 95.5903 94.8901 95.4718C97.2804 95.3466 99.0733 94.6316 100.269 93.3269C101.486 92.0211 102.031 90.1622 101.905 87.7502L101.643 82.7631C101.51 80.2207 101.377 77.6783 101.244 75.1359C101.131 72.5706 101.019 70.0162 100.907 67.4727L100.667 62.8768C100.669 62.5062 100.649 62.126 100.607 61.7359C100.563 61.3242 100.554 60.9434 100.58 60.5934C100.615 60.025 100.735 59.6047 100.938 59.3326C101.163 59.0376 101.579 58.8741 102.187 58.8422L111.021 58.3793C112.129 58.3212 112.713 58.868 112.774 60.0197C112.834 61.1714 112.873 62.3351 112.891 63.5108C112.931 64.6854 112.959 65.8496 112.976 67.0036C113.082 69.4385 113.178 71.8957 113.264 74.3752C113.371 76.8318 113.489 79.2879 113.618 81.7434C113.667 82.6778 113.727 83.6116 113.797 84.5448C113.867 85.4564 113.915 86.3799 113.943 87.3154C114.11 90.9237 113.384 94.1213 111.765 96.908C110.146 99.6948 107.92 101.914 105.087 103.566C102.254 105.218 99.0879 106.136 95.5893 106.319C91.8518 106.515 88.5021 106.004 85.5402 104.787C82.5773 103.547 80.2 101.635 78.4084 99.0484C76.6386 96.461 75.6518 93.2225 75.4479 89.3328C75.3933 88.2898 75.3386 87.2468 75.2839 86.2037C75.251 85.1595 75.2072 84.1159 75.1525 83.0729C75.0295 80.726 74.8963 78.3906 74.7527 76.0667C74.608 73.721 74.4529 71.3867 74.2876 69.0639C74.2044 67.8916 74.1103 66.7199 74.0053 65.5487C73.9004 64.3776 73.8177 63.2162 73.7574 62.0645C73.697 60.9128 74.221 60.3079 75.3292 60.2498L84.358 59.7766C84.9882 59.7436 85.4193 59.8627 85.6514 60.1338C85.8824 60.3831 86.0453 60.7886 86.1401 61.3502C86.2017 61.6956 86.2325 62.0753 86.2324 62.4893C86.2312 62.8816 86.2511 63.2618 86.2922 63.6301L86.5331 68.226C86.6881 70.7673 86.8327 73.32 86.9671 75.8841C87.1221 78.4254 87.2662 80.9672 87.3994 83.5096Z" stroke="#F9B026" stroke-width="1.6" mask="url(#path-48-outside-1_3272_445715)"/>
<path d="M123.726 104.354C122.618 104.412 122.033 103.866 121.973 102.714C121.911 101.54 121.872 100.366 121.854 99.1902C121.856 97.9916 121.838 96.8051 121.798 95.6305C121.717 93.2597 121.626 90.9003 121.525 88.5523C121.445 86.2032 121.344 83.8443 121.219 81.4757C120.875 74.9133 120.434 68.3668 119.896 61.8363L119.865 61.2496C119.853 61.0106 119.861 60.5525 119.891 59.8755C119.92 59.1767 120.141 58.8165 120.554 58.7949C120.923 58.7755 121.339 59.0261 121.802 59.5465C122.286 60.0442 122.632 60.4073 122.84 60.6361C123.792 61.7629 124.724 62.9125 125.636 64.0849C126.546 65.2357 127.456 66.3864 128.366 67.5371C130.209 69.8592 132.03 72.1824 133.83 74.5067C135.651 76.8299 137.473 79.164 139.296 81.5089C140.09 82.535 140.874 83.5616 141.647 84.5888C142.442 85.6148 143.236 86.63 144.029 87.6343C144.191 87.8219 144.349 87.9118 144.501 87.9038C144.631 87.897 144.767 87.7918 144.909 87.5882C146.1 85.7826 147.258 83.9679 148.383 82.144C149.529 80.3189 150.676 78.5048 151.823 76.7015C154.259 72.8696 156.707 69.0588 159.167 65.2692C161.626 61.4797 164.12 57.721 166.649 53.9932L166.812 53.9846C166.876 58.1213 166.973 62.2671 167.104 66.4221C167.256 70.576 167.441 74.7281 167.659 78.8785C167.783 81.2471 167.918 83.6151 168.064 85.9825C168.231 88.3488 168.399 90.726 168.568 93.114C168.653 94.308 168.748 95.5015 168.854 96.6943C168.981 97.8643 169.075 99.0469 169.138 100.242C169.198 101.394 168.674 101.999 167.566 102.057L158.505 102.532C157.896 102.563 157.477 102.455 157.246 102.205C157.013 101.934 156.851 101.529 156.757 100.989C156.639 100.407 156.574 99.7892 156.562 99.1362C156.571 98.482 156.549 97.8513 156.495 97.244C156.396 95.7675 156.307 94.2795 156.229 92.7802C156.171 91.2579 156.081 89.7591 155.96 88.2838C155.958 88.2403 155.937 88.0562 155.899 87.7314C155.859 87.3848 155.763 87.2155 155.611 87.2235C155.48 87.2303 155.345 87.3573 155.206 87.6043C155.066 87.8513 154.976 88.0085 154.936 88.076C153.371 91.056 151.84 94.0561 150.342 97.0762C148.843 100.075 147.322 103.074 145.78 106.075L145.617 106.083C143.74 103.523 141.883 100.94 140.047 98.3348C138.211 95.7291 136.333 93.1583 134.413 90.6223C134.365 90.5377 134.26 90.4124 134.099 90.2466C133.959 90.0578 133.823 89.9669 133.693 89.9737C133.541 89.9817 133.462 90.1384 133.456 90.4437C133.45 90.7491 133.448 90.9235 133.451 90.9669C133.515 92.2055 133.57 93.4556 133.614 94.7171C133.658 95.9568 133.701 97.1966 133.744 98.4363C133.776 99.0448 133.82 99.6744 133.876 100.325C133.953 100.975 133.964 101.595 133.908 102.186C133.871 102.733 133.751 103.153 133.549 103.447C133.345 103.719 132.939 103.871 132.331 103.903L123.726 104.354Z" stroke="#F9B026" stroke-width="1.6" mask="url(#path-48-outside-1_3272_445715)"/>
<path d="M178.42 101.488C177.312 101.546 176.728 100.999 176.667 99.8475C176.606 98.674 176.566 97.4995 176.548 96.3238C176.551 95.1252 176.532 93.9387 176.492 92.7641C176.412 90.3933 176.321 88.0338 176.219 85.6859C176.14 83.3367 176.038 80.9779 175.914 78.6093C175.57 72.0469 175.129 65.5004 174.59 58.9699L174.56 58.3832C174.547 58.1442 174.556 57.6861 174.586 57.0091C174.614 56.3103 174.835 55.9501 175.248 55.9285C175.618 55.9091 176.034 56.1597 176.497 56.6801C176.98 57.1777 177.326 57.5409 177.534 57.7697C178.487 58.8964 179.419 60.046 180.33 61.2185C181.24 62.3692 182.15 63.52 183.06 64.6707C184.903 66.9928 186.725 69.316 188.524 71.6403C190.346 73.9635 192.168 76.2976 193.99 78.6425C194.785 79.6686 195.568 80.6952 196.341 81.7224C197.136 82.7484 197.93 83.7636 198.724 84.7679C198.886 84.9555 199.043 85.0453 199.195 85.0374C199.326 85.0305 199.462 84.9254 199.604 84.7218C200.795 82.9162 201.952 81.1015 203.077 79.2776C204.223 77.4525 205.37 75.6384 206.518 73.835C208.954 70.0031 211.401 66.1924 213.861 62.4028C216.321 58.6132 218.815 54.8546 221.343 51.1268L221.506 51.1182C221.57 55.2549 221.668 59.4007 221.798 63.5557C221.951 67.7095 222.136 71.8617 222.353 76.0121C222.477 78.3807 222.612 80.7487 222.758 83.1161C222.926 85.4824 223.094 87.8596 223.263 90.2476C223.347 91.4416 223.442 92.635 223.548 93.8279C223.675 94.9979 223.77 96.1805 223.832 97.3757C223.893 98.5273 223.369 99.1322 222.26 99.1903L213.199 99.6652C212.591 99.6971 212.171 99.5883 211.94 99.339C211.708 99.0679 211.545 98.6624 211.451 98.1226C211.334 97.5404 211.269 96.9228 211.256 96.2698C211.265 95.6156 211.243 94.9849 211.19 94.3776C211.091 92.9011 211.002 91.4131 210.923 89.9137C210.865 88.3915 210.776 86.8927 210.655 85.4173C210.652 85.3739 210.632 85.1898 210.593 84.8649C210.553 84.5184 210.457 84.3491 210.305 84.3571C210.175 84.3639 210.04 84.4908 209.9 84.7378C209.76 84.9848 209.671 85.1421 209.631 85.2095C208.065 88.1896 206.534 91.1897 205.036 94.2098C203.537 97.2082 202.017 100.208 200.474 103.208L200.311 103.217C198.434 100.657 196.577 98.0741 194.741 95.4684C192.905 92.8627 191.027 90.2919 189.107 87.7559C189.059 87.6713 188.955 87.546 188.794 87.3802C188.653 87.1914 188.517 87.1005 188.387 87.1073C188.235 87.1153 188.156 87.2719 188.15 87.5773C188.144 87.8827 188.143 88.0571 188.145 88.1005C188.21 89.3391 188.265 90.5892 188.309 91.8507C188.352 93.0904 188.395 94.3302 188.438 95.5699C188.47 96.1783 188.514 96.8079 188.57 97.4587C188.648 98.1083 188.658 98.7288 188.602 99.32C188.566 99.8667 188.446 100.287 188.243 100.581C188.04 100.853 187.634 101.005 187.025 101.037L178.42 101.488Z" stroke="#F9B026" stroke-width="1.6" mask="url(#path-48-outside-1_3272_445715)"/>
<path d="M241.328 84.4635L241.284 84.2371C241.062 83.7475 240.819 83.27 240.555 82.8044C240.311 82.316 240.058 81.8391 239.794 81.3735L236.846 75.6448C235.05 72.1436 233.212 68.6665 231.331 65.2133C229.471 61.7373 227.622 58.2607 225.784 54.7835C225.687 54.5925 225.589 54.3906 225.491 54.1779C225.414 53.964 225.37 53.7484 225.359 53.5311C225.332 53.0313 225.522 52.7054 225.928 52.5534C226.356 52.4002 226.766 52.3134 227.157 52.2929L238.598 51.6933C239.032 51.6705 239.363 51.7512 239.591 51.9354C239.817 52.0979 240.027 52.3592 240.22 52.7195C240.583 53.3978 240.904 54.1218 241.184 54.8916C241.464 55.6613 241.754 56.4088 242.053 57.1339C242.801 58.9251 243.527 60.7282 244.232 62.5434C244.958 64.3357 245.706 66.1269 246.475 67.9169C246.523 68.0015 246.585 68.1399 246.66 68.3321C246.757 68.5231 246.871 68.6152 247.001 68.6083C247.132 68.6015 247.235 68.498 247.312 68.2979C247.409 68.0749 247.467 67.9194 247.484 67.8313C248.081 65.9261 248.624 64.0129 249.111 62.0916C249.62 60.1475 250.14 58.2245 250.672 56.3227C250.876 55.6366 251.057 54.9298 251.215 54.2025C251.394 53.474 251.609 52.7873 251.858 52.1423C252.012 51.742 252.192 51.4493 252.401 51.2641C252.608 51.0571 252.939 50.9417 253.396 50.9178L264.771 50.3216C265.162 50.3011 265.579 50.3446 266.02 50.4522C266.462 50.5598 266.696 50.8744 266.723 51.3959C266.735 51.6132 266.703 51.8328 266.627 52.0547C266.573 52.2754 266.497 52.4864 266.399 52.6876C264.813 56.5186 263.204 60.3289 261.572 64.1187C259.941 67.9084 258.354 71.7285 256.813 75.5789C256.273 76.9146 255.722 78.2509 255.16 79.5877C254.597 80.9028 254.067 82.2379 253.572 83.593L253.519 83.8246L254.245 95.8145C254.304 96.9444 253.769 97.539 252.639 97.5982L243.643 98.0697C242.513 98.1289 241.918 97.5936 241.859 96.4636L241.328 84.4635Z" stroke="#F9B026" stroke-width="1.6" mask="url(#path-48-outside-1_3272_445715)"/>
<g filter="url(#filter3_d_3272_445715)">
<path d="M90.7098 119.562C91.4758 118.375 91.9974 118.602 92.2745 120.244C92.3714 120.876 92.5951 122.107 92.9458 123.936C93.2965 125.765 93.7457 128.258 94.2933 131.414C94.8377 134.507 95.2551 137.002 95.5455 138.898C95.8962 140.727 96.1183 141.926 96.2118 142.494C96.9898 147.613 98.2313 150.638 99.9364 151.568C100.926 152.217 102.339 152.43 104.174 152.206C105.318 152.146 106.02 152.778 106.281 154.102C106.544 155.49 106.492 156.926 106.124 158.411C105.753 159.832 105.253 160.622 104.624 160.783C101.079 161.223 98.3963 160.472 96.5744 158.529C94.6823 156.462 93.2771 152.745 92.3588 147.378C90.7563 150.839 89.0221 153 87.1562 153.862C85.7851 154.444 83.8491 154.577 81.348 154.262C78.6531 153.894 76.7423 153.293 75.6156 152.46C74.3553 151.507 73.7887 150.422 73.9161 149.205C74.0334 147.797 74.5471 146.05 75.457 143.964C76.4239 141.747 77.1782 140.338 77.72 139.736C80.9173 136.32 84.77 133.251 89.2779 130.53C88.9508 127.936 88.754 126.003 88.6874 124.732C88.6208 123.462 88.8534 122.43 89.3853 121.638L90.7098 119.562ZM90.2497 136.309C85.3675 137.966 81.9213 140.281 79.911 143.253C79.6769 143.647 79.7888 143.96 80.2468 144.191C81.5508 144.759 83.0637 145.062 84.7857 145.1C86.5044 145.073 88.4321 144.781 90.5689 144.223C90.8832 144.143 91.221 143.902 91.5822 143.501C91.4654 142.488 91.2801 141.383 91.0262 140.186C90.8359 138.985 90.577 137.693 90.2497 136.309ZM81.8458 103.59C81.9629 103.393 82.2137 103.316 82.5982 103.359C83.7016 103.748 84.7765 104.201 85.823 104.719C86.8694 105.238 87.8574 105.855 88.7867 106.571C89.0542 106.812 89.0993 107.064 88.922 107.328L85.1688 114.118C85.0518 114.316 84.7943 114.265 84.3965 113.968C84.1959 113.787 83.671 113.496 82.8218 113.095C82.0328 112.626 80.886 112.018 79.3815 111.268L76.4061 116.489C76.2288 116.753 75.9413 116.736 75.5434 116.439C75.2793 116.261 74.6223 115.882 73.5725 115.3C72.5863 114.714 71.1754 113.928 69.3399 112.941C69.0791 112.828 69.0391 112.67 69.2197 112.47L73.0831 105.96C73.2002 105.763 73.4192 105.688 73.7402 105.735C74.7098 106.003 75.6209 106.369 76.4734 106.834C77.3895 107.296 78.2437 107.792 79.0361 108.324L81.8458 103.59Z" fill="#5D6F88"/>
<path d="M113.531 121.232C114.357 121.189 115.4 121.644 116.661 122.597C122.638 127.253 125.668 133.401 125.75 141.042C125.769 145.054 124.951 148.282 123.295 150.726C118.91 157.008 112.683 160.36 104.615 160.783C103.789 160.826 103.147 160.127 102.689 158.686C102.462 157.997 102.36 157.27 102.384 156.504C102.344 155.742 102.371 155.04 102.465 154.398C102.652 153.114 103.219 152.383 104.165 152.206C112.077 151.218 117.929 148.618 121.722 144.406C121.428 142.447 121.077 141.223 120.669 140.734C120.188 140.059 119.792 139.793 119.481 139.937C119.23 140.014 119.078 140.149 119.024 140.343C118.091 143.195 116.525 144.933 114.328 145.558C107.42 147.449 104.07 144.917 104.279 137.962C104.36 134.645 105.444 131.021 107.531 127.089C109.498 123.291 111.498 121.339 113.531 121.232ZM110.926 131.689C109.532 131.826 108.739 133.11 108.548 135.541C108.568 135.922 108.61 136.111 108.673 136.107C109.964 136.422 111.271 136.449 112.595 136.189C113.856 135.931 114.692 135.473 115.103 134.815C113.519 132.541 112.126 131.499 110.926 131.689ZM107.427 101.389C107.544 101.192 107.795 101.115 108.179 101.159C110.767 101.915 113.092 103.131 115.155 104.807C115.423 105.047 115.468 105.3 115.29 105.564L111.191 113.041C111.017 113.369 110.698 113.354 110.233 112.996C109.969 112.819 109.279 112.409 108.162 111.767C107.045 111.124 105.439 110.253 103.342 109.153C103.015 108.979 102.941 108.791 103.122 108.591L107.427 101.389Z" fill="#5D6F88"/>
<path d="M136.462 90.3118C136.693 89.8537 136.905 89.6515 137.099 89.705C137.417 89.6884 137.706 90.3421 137.966 91.6663C139.626 101.454 140.83 109.832 141.577 116.8C142.241 123.391 142.773 128.682 143.174 132.675C143.637 136.664 143.938 139.356 144.075 140.75C144.826 146.572 148.165 149.518 154.094 149.59C155.816 149.627 156.543 150.736 156.275 152.916C155.883 156.376 155.306 158.127 154.543 158.167C146.221 158.603 141.57 154.96 140.592 147.24C140.168 144.013 139.776 140.784 139.416 137.554C139.116 134.257 138.815 130.96 138.515 127.663C137.978 121.066 137.317 115.749 136.533 111.713C135.744 107.614 134.737 102.984 133.511 97.8245C133.271 96.8815 133.324 96.0823 133.672 95.427L136.462 90.3118Z" fill="#5D6F88"/>
<path d="M177.3 148.374C178.46 148.631 179.082 148.949 179.166 149.327C179.319 149.829 179.359 150.591 179.285 151.614C179.024 155.132 178.512 156.91 177.75 156.95C174.319 157.13 170.787 155.372 167.153 151.677C164.413 155.324 160.195 157.488 154.497 158.169C153.862 158.202 153.424 157.747 153.183 156.804L152.211 152.842C151.991 152.28 152.083 151.606 152.487 150.821C152.835 150.165 153.355 149.756 154.048 149.592C161.006 148.654 165.597 146.311 167.822 142.563C168.113 142.039 168.544 141.761 169.116 141.731C169.688 141.701 169.989 141.972 170.019 142.544C170.045 143.052 170.129 143.43 170.269 143.677C172.516 146.427 174.859 147.992 177.3 148.374ZM162.186 111.611C162.303 111.414 162.554 111.337 162.939 111.381C165.527 112.137 167.852 113.353 169.914 115.028C170.182 115.269 170.227 115.522 170.05 115.786L165.95 123.263C165.776 123.591 165.457 123.576 164.992 123.218C164.728 123.04 164.038 122.631 162.921 121.988C161.805 121.346 160.198 120.475 158.102 119.374C157.774 119.2 157.701 119.013 157.881 118.812L162.186 111.611Z" fill="#5D6F88"/>
<path d="M226.18 127.178C228.022 127.081 230.428 128.006 233.397 129.953C236.299 131.84 237.616 133.873 237.348 136.053C237.073 138.106 236.19 140.701 234.698 143.837C233.202 146.909 232.119 148.718 231.446 149.263C225.888 153.822 218.376 156.35 208.91 156.846C207.067 156.943 205.25 156.911 203.458 156.75C201.666 156.589 199.932 156.329 198.257 155.971C197.785 156.697 197.064 159.346 196.093 163.92C195.953 164.883 195.332 165.203 194.232 164.878C193.259 164.547 192.778 163.871 192.788 162.851C192.919 161.698 193.14 160.444 193.451 159.09C193.762 157.736 194.197 156.311 194.756 154.817C191.379 153.592 188.678 151.886 186.652 149.699C185.974 148.907 185.412 148.522 184.967 148.545C184.586 148.565 184.228 149.03 183.894 149.939C182.348 154.48 180.304 156.816 177.763 156.95C177.445 156.966 177.078 156.635 176.66 155.956C175.517 153.595 175.138 151.832 175.522 150.665C175.964 149.367 176.561 148.603 177.313 148.373C180.577 147.437 183.213 144.847 185.22 140.601C185.621 139.751 186.267 139.303 187.156 139.257C188.109 139.207 188.896 139.643 189.518 140.566C191.718 143.636 195.205 145.747 199.979 146.898C202.615 143.702 205.143 140.894 207.565 138.474C215.023 131.267 221.228 127.501 226.18 127.178ZM231.132 141.443C227.338 138.33 223.195 137.081 218.704 137.699C216.935 137.983 214.332 139.362 210.894 141.835C209.175 143.072 207.736 144.167 206.575 145.119C205.415 146.072 204.535 146.914 203.936 147.647C207.651 148.025 212.792 147.66 219.359 146.552C225.99 145.44 229.899 144.056 231.087 142.401C231.451 142.064 231.466 141.744 231.132 141.443Z" fill="#5D6F88"/>
</g>
<path d="M89.71 118.562C90.4759 117.375 90.9975 117.602 91.2747 119.244C91.3715 119.876 91.5952 121.107 91.9459 122.936C92.2966 124.765 92.7458 127.258 93.2934 130.414C93.8378 133.507 94.2552 136.002 94.5457 137.898C94.8963 139.727 95.1184 140.926 95.2119 141.494C95.9899 146.613 97.2314 149.638 98.9365 150.568C99.9261 151.217 101.339 151.43 103.175 151.206C104.318 151.146 105.02 151.778 105.281 153.102C105.544 154.49 105.492 155.926 105.124 157.411C104.753 158.832 104.253 159.622 103.624 159.783C100.08 160.223 97.3964 159.472 95.5745 157.529C93.6824 155.462 92.2772 151.745 91.3589 146.378C89.7565 149.839 88.0223 152 86.1563 152.862C84.7852 153.444 82.8492 153.577 80.3482 153.262C77.6532 152.894 75.7424 152.293 74.6157 151.46C73.3554 150.507 72.7889 149.422 72.9162 148.205C73.0335 146.797 73.5472 145.05 74.4571 142.964C75.424 140.747 76.1783 139.338 76.7201 138.736C79.9175 135.32 83.7701 132.251 88.2781 129.53C87.951 126.936 87.7541 125.003 87.6875 123.732C87.6209 122.462 87.8535 121.43 88.3854 120.638L89.71 118.562ZM89.2498 135.309C84.3676 136.966 80.9214 139.281 78.9111 142.253C78.677 142.647 78.7889 142.96 79.247 143.191C80.5509 143.759 82.0639 144.062 83.7859 144.1C85.5045 144.073 87.4323 143.781 89.569 143.223C89.8834 143.143 90.2211 142.902 90.5823 142.501C90.4655 141.488 90.2802 140.383 90.0263 139.186C89.836 137.985 89.5772 136.693 89.2498 135.309ZM80.846 102.59C80.963 102.393 81.2138 102.316 81.5984 102.359C82.7017 102.748 83.7766 103.201 84.8231 103.719C85.8695 104.238 86.8575 104.855 87.7869 105.571C88.0543 105.812 88.0994 106.064 87.9221 106.328L84.169 113.118C84.0519 113.316 83.7944 113.265 83.3966 112.968C83.196 112.787 82.6711 112.496 81.8219 112.095C81.0329 111.626 79.8861 111.018 78.3816 110.268L75.4062 115.489C75.2289 115.753 74.9414 115.736 74.5435 115.439C74.2794 115.261 73.6225 114.882 72.5727 114.3C71.5864 113.714 70.1755 112.928 68.34 111.941C68.0793 111.828 68.0392 111.67 68.2198 111.47L72.0832 104.96C72.2003 104.763 72.4193 104.688 72.7403 104.735C73.7099 105.003 74.621 105.369 75.4736 105.834C76.3896 106.296 77.2438 106.792 78.0362 107.324L80.846 102.59Z" fill="white"/>
<path d="M112.532 120.232C113.357 120.189 114.401 120.644 115.661 121.597C121.639 126.253 124.668 132.401 124.75 140.042C124.769 144.054 123.951 147.282 122.295 149.726C117.91 156.008 111.684 159.36 103.615 159.783C102.789 159.826 102.147 159.127 101.69 157.686C101.462 156.997 101.361 156.27 101.384 155.504C101.344 154.742 101.371 154.04 101.465 153.398C101.652 152.114 102.219 151.383 103.166 151.206C111.077 150.218 116.929 147.618 120.722 143.406C120.428 141.447 120.077 140.223 119.669 139.734C119.188 139.059 118.792 138.793 118.481 138.937C118.23 139.014 118.078 139.149 118.024 139.343C117.091 142.195 115.526 143.933 113.329 144.558C106.42 146.449 103.07 143.917 103.279 136.962C103.36 133.645 104.444 130.021 106.532 126.089C108.499 122.291 110.499 120.339 112.532 120.232ZM109.926 130.689C108.532 130.826 107.739 132.11 107.548 134.541C107.568 134.922 107.61 135.111 107.673 135.107C108.964 135.422 110.271 135.449 111.595 135.189C112.856 134.931 113.692 134.473 114.103 133.815C112.519 131.541 111.127 130.499 109.926 130.689ZM106.427 100.389C106.544 100.192 106.795 100.115 107.179 100.159C109.767 100.915 112.093 102.131 114.155 103.807C114.423 104.047 114.468 104.3 114.291 104.564L110.191 112.041C110.017 112.369 109.698 112.354 109.233 111.996C108.969 111.819 108.279 111.409 107.162 110.767C106.045 110.124 104.439 109.253 102.343 108.153C102.015 107.979 101.941 107.791 102.122 107.591L106.427 100.389Z" fill="white"/>
<path d="M135.462 89.3118C135.693 88.8537 135.905 88.6515 136.099 88.705C136.417 88.6884 136.706 89.3421 136.967 90.6663C138.626 100.454 139.83 108.832 140.577 115.8C141.241 122.391 141.773 127.682 142.174 131.675C142.638 135.664 142.938 138.356 143.075 139.75C143.826 145.572 147.165 148.518 153.094 148.59C154.816 148.627 155.543 149.736 155.275 151.916C154.883 155.376 154.306 157.127 153.543 157.167C145.221 157.603 140.57 153.96 139.592 146.24C139.168 143.013 138.776 139.784 138.416 136.554C138.116 133.257 137.815 129.96 137.515 126.663C136.978 120.066 136.318 114.749 135.533 110.713C134.744 106.614 133.737 101.984 132.511 96.8245C132.271 95.8815 132.325 95.0823 132.672 94.427L135.462 89.3118Z" fill="white"/>
<path d="M176.3 147.374C177.46 147.631 178.082 147.949 178.166 148.327C178.319 148.829 178.359 149.591 178.286 150.614C178.024 154.132 177.512 155.91 176.75 155.95C173.319 156.13 169.787 154.372 166.153 150.677C163.414 154.324 159.195 156.488 153.497 157.169C152.862 157.202 152.424 156.747 152.183 155.804L151.211 151.842C150.991 151.28 151.083 150.606 151.488 149.821C151.835 149.165 152.355 148.756 153.048 148.592C160.006 147.654 164.598 145.311 166.822 141.563C167.113 141.039 167.544 140.761 168.116 140.731C168.688 140.701 168.989 140.972 169.019 141.544C169.045 142.052 169.129 142.43 169.269 142.677C171.516 145.427 173.859 146.992 176.3 147.374ZM161.186 110.611C161.303 110.414 161.554 110.337 161.939 110.381C164.527 111.137 166.852 112.353 168.915 114.028C169.182 114.269 169.227 114.522 169.05 114.786L164.95 122.263C164.777 122.591 164.457 122.576 163.993 122.218C163.728 122.04 163.038 121.631 161.921 120.988C160.805 120.346 159.198 119.475 157.102 118.374C156.774 118.2 156.701 118.013 156.881 117.812L161.186 110.611Z" fill="white"/>
<path d="M225.18 126.178C227.022 126.081 229.428 127.006 232.397 128.953C235.299 130.84 236.616 132.873 236.348 135.053C236.073 137.106 235.19 139.701 233.698 142.837C232.202 145.909 231.119 147.718 230.446 148.263C224.888 152.822 217.376 155.35 207.91 155.846C206.067 155.943 204.25 155.911 202.458 155.75C200.666 155.589 198.932 155.329 197.257 154.971C196.785 155.697 196.064 158.346 195.093 162.92C194.953 163.883 194.332 164.203 193.232 163.878C192.259 163.547 191.778 162.871 191.788 161.851C191.919 160.698 192.14 159.444 192.451 158.09C192.763 156.736 193.198 155.311 193.756 153.817C190.379 152.592 187.678 150.886 185.652 148.699C184.974 147.907 184.412 147.522 183.967 147.545C183.586 147.565 183.228 148.03 182.894 148.939C181.348 153.48 179.304 155.816 176.763 155.95C176.445 155.966 176.078 155.635 175.66 154.956C174.517 152.595 174.138 150.832 174.522 149.665C174.964 148.367 175.561 147.603 176.314 147.373C179.577 146.437 182.213 143.847 184.22 139.601C184.621 138.751 185.267 138.303 186.156 138.257C187.109 138.207 187.896 138.643 188.518 139.566C190.718 142.636 194.205 144.747 198.979 145.898C201.615 142.702 204.143 139.894 206.565 137.474C214.023 130.267 220.228 126.501 225.18 126.178ZM230.132 140.443C226.338 137.33 222.195 136.081 217.704 136.699C215.936 136.983 213.332 138.362 209.894 140.835C208.175 142.072 206.736 143.167 205.575 144.119C204.415 145.072 203.535 145.914 202.936 146.647C206.651 147.025 211.792 146.66 218.36 145.552C224.99 144.44 228.9 143.056 230.087 141.401C230.451 141.064 230.467 140.744 230.132 140.443Z" fill="white"/>
<path d="M88.7689 117.606C89.5349 116.419 90.0565 116.646 90.3336 118.288C90.4304 118.92 90.6542 120.151 91.0049 121.98C91.3556 123.809 91.8047 126.302 92.3524 129.458C92.8967 132.551 93.3141 135.046 93.6046 136.942C93.9553 138.771 94.1774 139.97 94.2709 140.538C95.0488 145.657 96.2904 148.682 97.9954 149.612C98.985 150.261 100.398 150.474 102.233 150.25C103.377 150.19 104.079 150.822 104.34 152.146C104.603 153.534 104.551 154.97 104.183 156.455C103.812 157.876 103.312 158.666 102.683 158.827C99.1385 159.267 96.4553 158.516 94.6335 156.573C92.7414 154.506 91.3362 150.789 90.4178 145.422C88.8154 148.883 87.0812 151.044 85.2152 151.906C83.8442 152.488 81.9081 152.621 79.4071 152.306C76.7122 151.938 74.8014 151.337 73.6747 150.504C72.4143 149.551 71.8478 148.466 71.9752 147.249C72.0925 145.841 72.6061 144.094 73.5161 142.008C74.4829 139.791 75.2373 138.382 75.7791 137.78C78.9764 134.364 82.8291 131.295 87.337 128.574C87.0099 125.979 86.8131 124.047 86.7465 122.776C86.6799 121.506 86.9125 120.474 87.4443 119.682L88.7689 117.606ZM88.3088 134.352C83.4266 136.01 79.9803 138.325 77.9701 141.297C77.7359 141.691 77.8479 142.004 78.3059 142.235C79.6099 142.803 81.1228 143.106 82.8448 143.144C84.5635 143.117 86.4912 142.825 88.628 142.267C88.9423 142.187 89.2801 141.946 89.6413 141.545C89.5245 140.532 89.3392 139.427 89.0853 138.23C88.895 137.029 88.6361 135.737 88.3088 134.352ZM79.9049 101.634C80.022 101.437 80.2728 101.36 80.6573 101.403C81.7607 101.792 82.8356 102.245 83.882 102.763C84.9285 103.282 85.9164 103.899 86.8458 104.615C87.1133 104.856 87.1584 105.108 86.9811 105.372L83.2279 112.162C83.1108 112.36 82.8534 112.309 82.4555 112.012C82.255 111.831 81.7301 111.54 80.8808 111.139C80.0918 110.67 78.9451 110.062 77.4406 109.312L74.4652 114.533C74.2879 114.797 74.0003 114.78 73.6025 114.482C73.3384 114.305 72.6814 113.926 71.6316 113.343C70.6454 112.758 69.2345 111.972 67.399 110.985C67.1382 110.871 67.0981 110.714 67.2787 110.514L71.1422 104.004C71.2593 103.807 71.4783 103.732 71.7993 103.779C72.7689 104.047 73.68 104.413 74.5325 104.878C75.4486 105.339 76.3028 105.836 77.0952 106.368L79.9049 101.634Z" fill="url(#paint9_linear_3272_445715)"/>
<path d="M111.591 119.276C112.416 119.233 113.46 119.688 114.72 120.641C120.697 125.297 123.727 131.445 123.809 139.086C123.828 143.098 123.01 146.326 121.354 148.77C116.969 155.052 110.743 158.404 102.674 158.827C101.848 158.87 101.206 158.171 100.749 156.73C100.521 156.041 100.419 155.314 100.443 154.548C100.403 153.786 100.43 153.084 100.524 152.442C100.711 151.158 101.278 150.427 102.225 150.25C110.136 149.262 115.988 146.662 119.781 142.45C119.487 140.491 119.136 139.267 118.728 138.778C118.247 138.103 117.851 137.837 117.54 137.981C117.289 138.058 117.137 138.193 117.083 138.387C116.15 141.239 114.585 142.977 112.388 143.602C105.479 145.493 102.129 142.961 102.338 136.006C102.419 132.689 103.503 129.065 105.591 125.133C107.558 121.335 109.558 119.383 111.591 119.276ZM108.985 129.733C107.591 129.87 106.798 131.154 106.607 133.585C106.627 133.966 106.669 134.155 106.732 134.151C108.023 134.466 109.33 134.493 110.654 134.233C111.915 133.975 112.751 133.517 113.162 132.859C111.578 130.585 110.186 129.543 108.985 129.733ZM105.486 99.4333C105.603 99.236 105.854 99.1592 106.238 99.2027C108.826 99.959 111.152 101.175 113.214 102.851C113.482 103.091 113.527 103.344 113.349 103.608L109.25 111.085C109.076 111.413 108.757 111.398 108.292 111.04C108.028 110.863 107.338 110.453 106.221 109.811C105.104 109.168 103.498 108.297 101.402 107.196C101.074 107.023 101 106.835 101.181 106.635L105.486 99.4333Z" fill="url(#paint10_linear_3272_445715)"/>
<path d="M134.521 88.3557C134.752 87.8977 134.964 87.6954 135.158 87.749C135.476 87.7323 135.765 88.3861 136.026 89.7103C137.685 99.4977 138.889 107.876 139.636 114.844C140.3 121.435 140.832 126.726 141.233 130.719C141.697 134.708 141.997 137.4 142.134 138.794C142.885 144.616 146.224 147.562 152.153 147.634C153.875 147.671 154.602 148.78 154.334 150.96C153.942 154.42 153.365 156.171 152.602 156.21C144.28 156.647 139.629 153.004 138.651 145.283C138.227 142.057 137.835 138.828 137.475 135.598C137.175 132.301 136.874 129.004 136.574 125.707C136.037 119.11 135.377 113.793 134.592 109.757C133.803 105.658 132.796 101.028 131.57 95.8684C131.33 94.9254 131.383 94.1263 131.731 93.471L134.521 88.3557Z" fill="url(#paint11_linear_3272_445715)"/>
<path d="M175.359 146.418C176.519 146.675 177.141 146.993 177.225 147.371C177.378 147.873 177.418 148.635 177.345 149.658C177.083 153.176 176.571 154.954 175.809 154.994C172.378 155.174 168.846 153.416 165.212 149.721C162.473 153.368 158.254 155.532 152.556 156.213C151.921 156.246 151.483 155.791 151.242 154.848L150.27 150.886C150.05 150.324 150.142 149.65 150.546 148.865C150.894 148.209 151.414 147.8 152.107 147.636C159.065 146.698 163.657 144.355 165.881 140.607C166.172 140.083 166.603 139.805 167.175 139.775C167.747 139.745 168.048 140.016 168.078 140.588C168.104 141.096 168.188 141.474 168.328 141.721C170.575 144.47 172.918 146.036 175.359 146.418ZM160.245 109.655C160.362 109.458 160.613 109.381 160.998 109.424C163.586 110.181 165.911 111.397 167.974 113.072C168.241 113.313 168.286 113.566 168.109 113.83L164.009 121.307C163.835 121.635 163.516 121.62 163.051 121.262C162.787 121.084 162.097 120.675 160.98 120.032C159.864 119.39 158.257 118.519 156.161 117.418C155.833 117.244 155.76 117.057 155.94 116.856L160.245 109.655Z" fill="url(#paint12_linear_3272_445715)"/>
<path d="M224.239 125.222C226.081 125.125 228.487 126.05 231.456 127.997C234.358 129.884 235.675 131.917 235.407 134.097C235.132 136.15 234.249 138.744 232.757 141.881C231.261 144.953 230.178 146.762 229.505 147.307C223.947 151.866 216.435 154.394 206.969 154.89C205.126 154.987 203.309 154.955 201.517 154.794C199.725 154.633 197.991 154.373 196.316 154.015C195.844 154.741 195.123 157.39 194.152 161.964C194.012 162.927 193.391 163.246 192.291 162.922C191.318 162.591 190.837 161.915 190.847 160.895C190.978 159.742 191.199 158.488 191.51 157.134C191.822 155.78 192.257 154.355 192.815 152.861C189.438 151.636 186.737 149.93 184.711 147.743C184.033 146.95 183.471 146.566 183.026 146.589C182.645 146.609 182.287 147.074 181.953 147.983C180.407 152.524 178.363 154.86 175.822 154.994C175.504 155.01 175.137 154.679 174.719 154C173.576 151.639 173.197 149.875 173.581 148.709C174.023 147.411 174.62 146.647 175.373 146.417C178.636 145.481 181.272 142.891 183.279 138.644C183.68 137.795 184.326 137.347 185.215 137.301C186.168 137.251 186.955 137.687 187.577 138.61C189.777 141.68 193.264 143.791 198.038 144.942C200.674 141.746 203.202 138.938 205.624 136.518C213.082 129.31 219.287 125.545 224.239 125.222ZM229.191 139.487C225.397 136.373 221.254 135.125 216.763 135.743C214.995 136.027 212.391 137.405 208.953 139.879C207.234 141.116 205.795 142.211 204.634 143.163C203.474 144.116 202.594 144.958 201.995 145.691C205.71 146.069 210.851 145.704 217.419 144.596C224.049 143.484 227.958 142.1 229.146 140.445C229.51 140.108 229.526 139.788 229.191 139.487Z" fill="url(#paint13_linear_3272_445715)"/>
<defs>
<filter id="filter0_d_3272_445715" x="0" y="12.5469" width="305.839" height="181.453" filterUnits="userSpaceOnUse" color-interpolation-filters="sRGB">
<feFlood flood-opacity="0" result="BackgroundImageFix"/>
<feColorMatrix in="SourceAlpha" type="matrix" values="0 0 0 0 0 0 0 0 0 0 0 0 0 0 0 0 0 0 127 0" result="hardAlpha"/>
<feOffset dx="2" dy="2"/>
<feGaussianBlur stdDeviation="1"/>
<feComposite in2="hardAlpha" operator="out"/>
<feColorMatrix type="matrix" values="0 0 0 0 0 0 0 0 0 0 0 0 0 0 0 0 0 0 0.25 0"/>
<feBlend mode="normal" in2="BackgroundImageFix" result="effect1_dropShadow_3272_445715"/>
<feBlend mode="normal" in="SourceGraphic" in2="effect1_dropShadow_3272_445715" result="shape"/>
</filter>
<filter id="filter1_d_3272_445715" x="31.2202" y="52.207" width="241.591" height="62.041" filterUnits="userSpaceOnUse" color-interpolation-filters="sRGB">
<feFlood flood-opacity="0" result="BackgroundImageFix"/>
<feColorMatrix in="SourceAlpha" type="matrix" values="0 0 0 0 0 0 0 0 0 0 0 0 0 0 0 0 0 0 127 0" result="hardAlpha"/>
<feOffset dy="2"/>
<feGaussianBlur stdDeviation="1"/>
<feComposite in2="hardAlpha" operator="out"/>
<feColorMatrix type="matrix" values="0 0 0 0 0 0 0 0 0 0 0 0 0 0 0 0 0 0 0.25 0"/>
<feBlend mode="normal" in2="BackgroundImageFix" result="effect1_dropShadow_3272_445715"/>
<feBlend mode="normal" in="SourceGraphic" in2="effect1_dropShadow_3272_445715" result="shape"/>
</filter>
<filter id="filter2_i_3272_445715" x="28.3344" y="49.5166" width="240.191" height="60.6406" filterUnits="userSpaceOnUse" color-interpolation-filters="sRGB">
<feFlood flood-opacity="0" result="BackgroundImageFix"/>
<feBlend mode="normal" in="SourceGraphic" in2="BackgroundImageFix" result="shape"/>
<feColorMatrix in="SourceAlpha" type="matrix" values="0 0 0 0 0 0 0 0 0 0 0 0 0 0 0 0 0 0 127 0" result="hardAlpha"/>
<feOffset dx="1" dy="1"/>
<feGaussianBlur stdDeviation="1"/>
<feComposite in2="hardAlpha" operator="arithmetic" k2="-1" k3="1"/>
<feColorMatrix type="matrix" values="0 0 0 0 1 0 0 0 0 1 0 0 0 0 1 0 0 0 1 0"/>
<feBlend mode="normal" in2="shape" result="effect1_innerShadow_3272_445715"/>
</filter>
<filter id="filter3_d_3272_445715" x="65.1088" y="87.6963" width="176.273" height="83.3047" filterUnits="userSpaceOnUse" color-interpolation-filters="sRGB">
<feFlood flood-opacity="0" result="BackgroundImageFix"/>
<feColorMatrix in="SourceAlpha" type="matrix" values="0 0 0 0 0 0 0 0 0 0 0 0 0 0 0 0 0 0 127 0" result="hardAlpha"/>
<feOffset dy="2"/>
<feGaussianBlur stdDeviation="2"/>
<feComposite in2="hardAlpha" operator="out"/>
<feColorMatrix type="matrix" values="0 0 0 0 0 0 0 0 0 0 0 0 0 0 0 0 0 0 0.15 0"/>
<feBlend mode="normal" in2="BackgroundImageFix" result="effect1_dropShadow_3272_445715"/>
<feBlend mode="normal" in="SourceGraphic" in2="effect1_dropShadow_3272_445715" result="shape"/>
</filter>
<radialGradient id="paint0_radial_3272_445715" cx="0" cy="0" r="1" gradientUnits="userSpaceOnUse" gradientTransform="translate(150.919 101.273) rotate(90) scale(88.7264 150.919)">
<stop stop-color="#F5F5F5"/>
<stop offset="1" stop-color="white"/>
</radialGradient>
<radialGradient id="paint1_radial_3272_445715" cx="0" cy="0" r="1" gradientUnits="userSpaceOnUse" gradientTransform="translate(150.919 101.273) rotate(90) scale(88.7264 150.919)">
<stop stop-color="#F5F5F5"/>
<stop offset="1" stop-color="white"/>
</radialGradient>
<linearGradient id="paint2_linear_3272_445715" x1="150.919" y1="12.5469" x2="150.919" y2="190" gradientUnits="userSpaceOnUse">
<stop offset="0.5" stop-color="#F5F5F5"/>
<stop offset="1" stop-color="#EEEEEF"/>
</linearGradient>
<linearGradient id="paint3_linear_3272_445715" x1="150.919" y1="12.5469" x2="150.919" y2="190" gradientUnits="userSpaceOnUse">
<stop offset="0.5" stop-color="#F5F5F5"/>
<stop offset="1" stop-color="#EEEEEF"/>
</linearGradient>
<linearGradient id="paint4_linear_3272_445715" x1="30.3324" y1="86.6311" x2="267.917" y2="74.1798" gradientUnits="userSpaceOnUse">
<stop offset="0.075" stop-color="#FE2C54"/>
<stop offset="1" stop-color="#007AFF"/>
</linearGradient>
<linearGradient id="paint5_linear_3272_445715" x1="30.3324" y1="86.6311" x2="267.917" y2="74.1798" gradientUnits="userSpaceOnUse">
<stop offset="0.075" stop-color="#FE2C54"/>
<stop offset="1" stop-color="#007AFF"/>
</linearGradient>
<linearGradient id="paint6_linear_3272_445715" x1="30.3324" y1="86.6311" x2="267.917" y2="74.1798" gradientUnits="userSpaceOnUse">
<stop offset="0.075" stop-color="#FE2C54"/>
<stop offset="1" stop-color="#007AFF"/>
</linearGradient>
<linearGradient id="paint7_linear_3272_445715" x1="30.3324" y1="86.6311" x2="267.917" y2="74.1798" gradientUnits="userSpaceOnUse">
<stop offset="0.075" stop-color="#FE2C54"/>
<stop offset="1" stop-color="#007AFF"/>
</linearGradient>
<linearGradient id="paint8_linear_3272_445715" x1="30.3324" y1="86.6311" x2="267.917" y2="74.1798" gradientUnits="userSpaceOnUse">
<stop offset="0.075" stop-color="#FE2C54"/>
<stop offset="1" stop-color="#007AFF"/>
</linearGradient>
<linearGradient id="paint9_linear_3272_445715" x1="230.5" y1="130" x2="73.5004" y2="142" gradientUnits="userSpaceOnUse">
<stop stop-color="#FE2C54"/>
<stop offset="1" stop-color="#FF4C29"/>
</linearGradient>
<linearGradient id="paint10_linear_3272_445715" x1="230.5" y1="130" x2="73.5004" y2="142" gradientUnits="userSpaceOnUse">
<stop stop-color="#FE2C54"/>
<stop offset="1" stop-color="#FF4C29"/>
</linearGradient>
<linearGradient id="paint11_linear_3272_445715" x1="230.5" y1="130" x2="73.5004" y2="142" gradientUnits="userSpaceOnUse">
<stop stop-color="#FE2C54"/>
<stop offset="1" stop-color="#FF4C29"/>
</linearGradient>
<linearGradient id="paint12_linear_3272_445715" x1="230.5" y1="130" x2="73.5004" y2="142" gradientUnits="userSpaceOnUse">
<stop stop-color="#FE2C54"/>
<stop offset="1" stop-color="#FF4C29"/>
</linearGradient>
<linearGradient id="paint13_linear_3272_445715" x1="230.5" y1="130" x2="73.5004" y2="142" gradientUnits="userSpaceOnUse">
<stop stop-color="#FE2C54"/>
<stop offset="1" stop-color="#FF4C29"/>
</linearGradient>
</defs>
</svg>

