<svg width="247" height="144" viewBox="0 0 247 144" fill="none" xmlns="http://www.w3.org/2000/svg">
<path d="M62.2671 110.33C62.1409 110.337 62.0124 110.301 61.9238 110.22C61.7759 110.083 61.8003 109.878 61.9841 109.761C64.6646 108.034 67.4554 106.13 70.5194 103.938C70.6959 103.816 70.9632 103.818 71.1178 103.95C71.2724 104.081 71.262 104.285 71.0855 104.407C68.0077 106.605 65.2032 108.515 62.5163 110.253C62.4414 110.3 62.3513 110.326 62.2671 110.33Z" fill="#363533"/>
<path d="M55.1031 115.208C54.9768 115.215 54.8554 115.178 54.767 115.102C54.6124 114.971 54.6368 114.766 54.8133 114.644L56.6196 113.414C56.7961 113.292 57.0637 113.299 57.2186 113.436C57.3731 113.567 57.3557 113.772 57.1722 113.894L55.366 115.125C55.2843 115.177 55.1943 115.203 55.1031 115.208Z" fill="#363533"/>
<path d="M54.3905 106.037C54.1941 106.047 54.0132 105.949 53.9633 105.802C53.9049 105.628 54.0432 105.449 54.273 105.405C56.7077 104.892 59.2918 104.279 62.1787 103.538C62.4007 103.479 62.6377 103.573 62.7098 103.741C62.7819 103.909 62.6509 104.092 62.4289 104.152C59.535 104.894 56.9301 105.512 54.4814 106.027C54.4466 106.034 54.4186 106.035 54.3905 106.037Z" fill="#363533"/>
<path d="M47.7559 107.602C47.5665 107.612 47.3859 107.519 47.3292 107.378C47.2641 107.21 47.3952 107.026 47.6244 106.971L49.2987 106.578C49.5212 106.529 49.758 106.618 49.8233 106.791C49.8884 106.96 49.7574 107.143 49.5281 107.198L47.8538 107.591C47.819 107.599 47.7839 107.6 47.7559 107.602Z" fill="#363533"/>
<path d="M190.501 100.03C190.473 100.031 190.445 100.033 190.417 100.029C187.434 99.7459 184.78 99.4401 182.301 99.0984C182.074 99.0674 181.925 98.8984 181.972 98.7244C182.019 98.5504 182.245 98.4314 182.472 98.4624C184.937 98.8048 187.583 99.1056 190.545 99.3899C190.778 99.4098 190.934 99.5732 190.901 99.7517C190.874 99.9032 190.697 100.02 190.501 100.03Z" fill="#363533"/>
<path d="M177.334 98.5179C177.306 98.5193 177.271 98.5212 177.243 98.5173L175.537 98.3226C175.304 98.2973 175.155 98.1336 175.195 97.9547C175.235 97.7811 175.453 97.6571 175.687 97.6824L177.392 97.877C177.625 97.9023 177.775 98.066 177.735 98.245C177.701 98.3968 177.53 98.5076 177.334 98.5179Z" fill="#363533"/>
<path d="M93.7865 106.524C93.7163 106.528 93.6384 106.516 93.5738 106.492C93.3657 106.412 93.2852 106.218 93.3963 106.057L94.892 103.867C95.0032 103.705 95.2599 103.638 95.468 103.719C95.6762 103.799 95.7567 103.993 95.6456 104.154L94.1498 106.344C94.071 106.45 93.9268 106.517 93.7865 106.524Z" fill="#363533"/>
<path d="M76.2398 128.951C76.1627 128.955 76.0777 128.943 76.0056 128.909C75.8042 128.823 75.7444 128.623 75.8628 128.467L91.0221 109.069C91.1476 108.913 91.4051 108.862 91.6065 108.947C91.808 109.033 91.8677 109.234 91.7493 109.39L76.59 128.788C76.5108 128.888 76.3801 128.943 76.2398 128.951Z" fill="#363533"/>
<path d="M101.32 135.804C101.292 135.806 101.257 135.808 101.229 135.804C100.995 135.779 100.846 135.615 100.886 135.436C102.495 128.572 104.532 121.669 106.503 114.995C107.746 110.792 109.023 106.449 110.184 102.159C110.231 101.985 110.457 101.866 110.683 101.897C110.91 101.928 111.06 102.097 111.013 102.271C109.852 106.566 108.568 110.91 107.325 115.118C105.354 121.787 103.324 128.679 101.714 135.527C101.687 135.683 101.517 135.794 101.32 135.804Z" fill="#363533"/>
<path d="M65.694 123.517C65.5958 123.522 65.4962 123.501 65.4163 123.451C65.2348 123.343 65.2031 123.141 65.3434 123L78.6966 109.802C78.8439 109.66 79.1096 109.63 79.2908 109.733C79.4723 109.841 79.504 110.043 79.3637 110.185L66.0105 123.383C65.9305 123.467 65.8133 123.511 65.694 123.517Z" fill="#363533"/>
<path d="M89.0047 132.179C88.9556 132.182 88.9062 132.179 88.8563 132.165C88.6355 132.113 88.5138 131.937 88.5819 131.762C91.3543 125.212 94.7264 118.7 97.9833 112.403C99.0246 110.398 100.059 108.388 101.086 106.378C101.168 106.212 101.417 106.124 101.638 106.182C101.859 106.241 101.96 106.428 101.878 106.599C100.858 108.614 99.8168 110.619 98.7758 112.63C95.5254 118.915 92.16 125.421 89.3935 131.95C89.3371 132.081 89.18 132.17 89.0047 132.179Z" fill="#363533"/>
<path d="M81.8833 107.003C81.7851 107.008 81.6925 106.986 81.6058 106.942C81.4176 106.84 81.3859 106.638 81.5259 106.491L84.7856 103.201C84.9256 103.054 85.1983 103.024 85.3795 103.127C85.5678 103.23 85.5995 103.432 85.4594 103.578L82.1998 106.868C82.1198 106.953 82.0025 106.997 81.8833 107.003Z" fill="#363533"/>
<path d="M89.0047 132.179C88.9556 132.182 88.9062 132.179 88.8563 132.165C88.6355 132.113 88.5138 131.937 88.5819 131.762C91.3543 125.212 94.7264 118.7 97.9833 112.403C99.0246 110.398 100.059 108.388 101.086 106.378C101.168 106.212 101.417 106.124 101.638 106.182C101.859 106.241 101.96 106.428 101.878 106.599C100.858 108.614 99.8168 110.619 98.7758 112.63C95.5254 118.915 92.16 125.421 89.3935 131.95C89.3371 132.081 89.18 132.17 89.0047 132.179Z" fill="#363533"/>
<path d="M132.047 136.751C131.837 136.762 131.648 136.649 131.611 136.49C130.298 130.224 129.259 123.815 128.252 117.618C127.391 112.315 126.498 106.825 125.443 101.457C125.406 101.282 125.566 101.112 125.796 101.084C126.027 101.051 126.244 101.168 126.281 101.343C127.337 106.722 128.229 112.212 129.091 117.521C130.098 123.712 131.137 130.116 132.449 136.371C132.486 136.546 132.327 136.715 132.096 136.749C132.082 136.749 132.068 136.75 132.047 136.751Z" fill="#363533"/>
<path d="M146.961 134.009C146.772 134.019 146.591 133.932 146.534 133.785C143.912 126.95 140.796 120.108 137.784 113.497C136.425 110.513 135.019 107.43 133.677 104.381C133.605 104.213 133.722 104.025 133.944 103.965C134.166 103.905 134.409 103.989 134.481 104.157C135.822 107.2 137.229 110.283 138.581 113.262C141.593 119.884 144.716 126.725 147.34 133.582C147.405 133.75 147.274 133.934 147.051 133.988C147.031 134 146.996 134.007 146.961 134.009Z" fill="#363533"/>
<path d="M164.046 127.861C163.891 127.869 163.741 127.812 163.658 127.704C161.011 124.177 158.361 120.575 155.801 117.091C152.083 112.034 148.243 106.806 144.341 101.726C144.227 101.571 144.295 101.375 144.494 101.284C144.7 101.193 144.956 101.238 145.069 101.388C148.979 106.478 152.818 111.706 156.537 116.763C159.096 120.247 161.747 123.849 164.386 127.371C164.499 127.526 164.425 127.723 164.226 127.814C164.178 127.843 164.116 127.857 164.046 127.861Z" fill="#363533"/>
<path d="M172.814 103.663C172.709 103.668 172.602 103.647 172.522 103.587L166.065 99.4231C165.891 99.309 165.873 99.1062 166.027 98.9695C166.182 98.8328 166.448 98.8135 166.623 98.9276L173.08 103.091C173.254 103.205 173.272 103.408 173.117 103.545C173.037 103.619 172.926 103.657 172.814 103.663Z" fill="#363533"/>
<path d="M183.704 111.374C183.592 111.38 183.478 111.354 183.397 111.294L180.476 109.228C180.308 109.108 180.297 108.905 180.459 108.773C180.621 108.642 180.888 108.633 181.056 108.747L183.977 110.813C184.145 110.933 184.156 111.136 183.994 111.268C183.913 111.336 183.809 111.369 183.704 111.374Z" fill="#363533"/>
<path d="M115.924 128.216C115.91 128.217 115.903 128.217 115.889 128.218C115.657 128.214 115.473 128.068 115.485 127.891C115.867 120.555 116.213 114.137 116.553 108.272C116.564 108.095 116.768 107.961 116.993 107.955C117.225 107.958 117.409 108.104 117.397 108.282C117.064 114.146 116.711 120.564 116.329 127.9C116.324 128.066 116.148 128.204 115.924 128.216Z" fill="#363533"/>
<path d="M115.422 137.692C115.408 137.693 115.401 137.693 115.387 137.694C115.154 137.69 114.971 137.544 114.983 137.366L115.453 129.303C115.465 129.125 115.669 128.986 115.894 128.985C116.126 128.989 116.31 129.134 116.298 129.312L115.827 137.376C115.822 137.542 115.639 137.68 115.422 137.692Z" fill="#363533"/>
<path d="M174.848 120.74C174.715 120.747 174.586 120.705 174.497 120.624C167.081 113.579 159.735 106.664 152.658 100.063C152.511 99.9256 152.542 99.7203 152.726 99.6088C152.91 99.492 153.178 99.5101 153.319 99.6474C160.388 106.25 167.735 113.17 175.158 120.214C175.306 120.351 175.275 120.557 175.084 120.668C175.022 120.709 174.932 120.735 174.848 120.74Z" fill="#363533"/>
<path d="M159.093 46.7674C158.974 46.7736 158.852 46.7424 158.764 46.672C158.603 46.5465 158.62 46.3365 158.79 46.2151L184.955 27.345C185.131 27.2179 185.399 27.2253 185.553 27.3512C185.715 27.4767 185.697 27.6866 185.528 27.8081L159.362 46.6782C159.288 46.7303 159.191 46.7622 159.093 46.7674Z" fill="#363533"/>
<path d="M143.644 40.1007C143.573 40.1044 143.495 40.0924 143.431 40.0689C143.223 39.9887 143.142 39.7947 143.253 39.6334L144.763 37.432C144.874 37.2707 145.131 37.209 145.339 37.2838C145.547 37.3641 145.627 37.5581 145.516 37.7194L144.007 39.9209C143.928 40.0268 143.784 40.0933 143.644 40.1007Z" fill="#363533"/>
<path d="M147.533 34.8647C147.455 34.8687 147.37 34.8571 147.298 34.8233C147.097 34.7374 147.037 34.5369 147.156 34.3806L162.315 14.9833C162.44 14.8266 162.698 14.7756 162.899 14.8615C163.101 14.9474 163.16 15.148 163.042 15.3043L147.883 34.7016C147.796 34.7972 147.666 34.8577 147.533 34.8647Z" fill="#363533"/>
<path d="M129.994 36.6505C129.959 36.6524 129.924 36.6488 129.888 36.6453C129.662 36.6143 129.512 36.4453 129.559 36.2713C130.203 33.9276 130.854 31.589 131.505 29.2502C133.423 22.3699 135.4 15.2615 137.17 8.24418C137.217 8.07021 137.436 7.9462 137.669 7.97682C137.896 8.00782 138.052 8.17113 138.005 8.35045C136.235 15.3731 134.253 22.4926 132.334 29.3729C131.683 31.7116 131.033 34.0557 130.389 36.394C130.347 36.5356 130.183 36.6406 129.994 36.6505Z" fill="#363533"/>
<path d="M167.795 26.2825C167.697 26.2877 167.597 26.2661 167.517 26.2167C167.336 26.1083 167.304 25.9063 167.444 25.765L172.887 20.3829C173.034 20.2411 173.3 20.2111 173.481 20.3142C173.663 20.4226 173.695 20.6246 173.554 20.7659L168.111 26.1481C168.031 26.2327 167.914 26.2763 167.795 26.2825Z" fill="#363533"/>
<path d="M146.35 19.6792C146.301 19.6818 146.244 19.6794 146.195 19.666C145.974 19.6132 145.859 19.4316 145.934 19.2615C146.426 18.1799 146.975 17.1061 147.497 16.0658C148.23 14.6178 148.925 13.2522 149.504 11.8337C149.573 11.664 149.814 11.5603 150.034 11.613C150.255 11.6604 150.384 11.8412 150.309 12.0113C149.716 13.452 148.99 14.8942 148.282 16.2872C147.759 17.3169 147.217 18.385 146.725 19.4613C146.669 19.5875 146.518 19.6704 146.35 19.6792Z" fill="#363533"/>
<path d="M168.161 46.6882C168.007 46.6963 167.856 46.6398 167.78 46.5366C167.667 46.3818 167.734 46.1853 167.933 46.0945L186.171 37.6729C186.377 37.5817 186.633 37.6272 186.746 37.7767C186.86 37.9315 186.793 38.128 186.594 38.2188L168.355 46.6405C168.294 46.6705 168.231 46.6845 168.161 46.6882Z" fill="#363533"/>
<path d="M187.511 37.7317C187.357 37.7398 187.206 37.6833 187.13 37.5801C187.01 37.4256 187.084 37.2288 187.283 37.138L191.795 35.0579C192.001 34.9667 192.256 35.0122 192.37 35.1617C192.49 35.3162 192.416 35.513 192.217 35.6038L187.706 37.6893C187.651 37.7136 187.581 37.728 187.511 37.7317Z" fill="#363533"/>
<path d="M177.814 48.5044C177.639 48.5136 177.466 48.4369 177.403 48.3062C177.317 48.1392 177.426 47.9512 177.648 47.8807L193.021 43.0286C193.235 42.9638 193.485 43.0364 193.571 43.2034C193.657 43.3704 193.548 43.5584 193.326 43.6289L177.953 48.481C177.905 48.4943 177.863 48.5018 177.814 48.5044Z" fill="#363533"/>
<path d="M147.036 47.5335C146.938 47.5386 146.845 47.5167 146.759 47.473C146.57 47.3703 146.539 47.1683 146.679 47.0216L162.034 31.505C162.181 31.358 162.447 31.3279 162.628 31.431C162.817 31.5337 162.848 31.7357 162.708 31.8824L147.353 47.399C147.279 47.4779 147.162 47.5269 147.036 47.5335Z" fill="#363533"/>
<path d="M137.857 37.5841C137.801 37.5871 137.744 37.5793 137.687 37.5662C137.466 37.5081 137.365 37.3205 137.448 37.15C140.087 31.9523 142.429 27.2526 144.425 22.3941C144.493 22.2243 144.734 22.1206 144.955 22.1734C145.175 22.2208 145.304 22.4016 145.229 22.5717C143.234 27.4462 140.878 32.1574 138.233 37.3661C138.169 37.4981 138.018 37.5757 137.857 37.5841Z" fill="#363533"/>
<path d="M112.916 41.036C112.706 41.047 112.517 40.9337 112.48 40.7694C111.175 34.2403 110.01 27.5751 108.891 21.1327C108.107 16.6289 107.293 11.9713 106.441 7.396C106.411 7.22072 106.571 7.05157 106.801 7.0234C107.032 6.99524 107.249 7.11248 107.28 7.28775C108.138 11.8627 108.945 16.526 109.73 21.0298C110.848 27.4669 112.013 34.1267 113.318 40.6505C113.355 40.8254 113.195 40.9946 112.965 41.0281C112.951 41.0342 112.937 41.0349 112.916 41.036Z" fill="#363533"/>
<path d="M105.817 42.8657C105.634 42.8752 105.454 42.7882 105.398 42.6518L97.2922 23.6645C97.2201 23.4967 97.3441 23.3134 97.566 23.2535C97.7879 23.1936 98.0247 23.2831 98.0968 23.4508L106.202 42.4382C106.274 42.6059 106.15 42.7893 105.928 42.8491C105.887 42.862 105.852 42.8638 105.817 42.8657Z" fill="#363533"/>
<path d="M95.5149 18.7196C95.3325 18.7292 95.1521 18.6422 95.0957 18.5058L91.5517 10.1967C91.4796 10.029 91.6036 9.8456 91.8255 9.78573C92.0474 9.72587 92.2842 9.81528 92.3563 9.98301L95.9004 18.2921C95.9724 18.4598 95.8484 18.6432 95.6265 18.7031C95.5847 18.7106 95.5499 18.7178 95.5149 18.7196Z" fill="#363533"/>
<path d="M97.9134 46.6394C97.7591 46.6474 97.6084 46.591 97.5254 46.4828C89.4457 35.6352 81.9112 25.7987 74.4988 16.4115C74.3785 16.2623 74.4452 16.0605 74.6442 15.9644C74.8431 15.8682 75.1057 15.9134 75.226 16.0625C82.6387 25.4551 90.1734 35.2969 98.2605 46.1495C98.3741 46.3044 98.3 46.5012 98.1008 46.592C98.0391 46.622 97.9765 46.636 97.9134 46.6394Z" fill="#363533"/>
<path d="M81.8695 50.9114C81.7643 50.9169 81.6577 50.8957 81.5772 50.8356L65.8258 40.6848C65.651 40.5707 65.6334 40.368 65.788 40.2312C65.9426 40.0945 66.2088 40.0752 66.3836 40.1893L82.1349 50.3401C82.3097 50.4542 82.3274 50.6569 82.1728 50.7937C82.092 50.8622 81.9817 50.9055 81.8695 50.9114Z" fill="#363533"/>
<path d="M61.1082 37.3512C60.996 37.3571 60.8821 37.3309 60.8016 37.2708L51.5107 30.6885C51.3426 30.5687 51.339 30.3652 51.5009 30.2335C51.6628 30.1017 51.9296 30.0931 52.0976 30.2129L61.3886 36.7952C61.5566 36.915 61.5602 37.1185 61.3983 37.2502C61.317 37.3081 61.2135 37.3457 61.1082 37.3512Z" fill="#363533"/>
<path d="M53.654 51.9974C53.5909 52.0007 53.5272 51.9934 53.47 51.9749L38.109 47.2597C37.8946 47.1959 37.7934 47.0082 37.8899 46.837C37.9797 46.6715 38.2356 46.5885 38.4502 46.6576L53.8112 51.3729C54.0255 51.4367 54.1268 51.6243 54.0303 51.7955C53.966 51.9114 53.8153 51.989 53.654 51.9974Z" fill="#363533"/>
<path d="M121.702 37.986C121.695 37.9864 121.681 37.9871 121.674 37.9875C121.442 37.9889 121.259 37.8431 121.264 37.666C121.291 36.8445 121.318 36.0285 121.339 35.2074C121.477 30.607 121.622 25.8562 122.115 21.1783C122.134 21.0005 122.338 20.8665 122.571 20.8704C122.803 20.8797 122.98 21.0312 122.961 21.2091C122.467 25.8656 122.321 30.611 122.182 35.2007C122.155 36.0221 122.135 36.8432 122.107 37.6593C122.102 37.8311 121.92 37.9746 121.702 37.986Z" fill="#363533"/>
<path d="M123.04 14.7948C123.026 14.7956 123.019 14.7959 123.005 14.7967C122.772 14.7928 122.589 14.647 122.601 14.4695L123.071 6.40556C123.083 6.22808 123.294 6.09376 123.512 6.08771C123.744 6.09161 123.927 6.2374 123.916 6.41489L123.445 14.4788C123.433 14.6456 123.257 14.7834 123.04 14.7948Z" fill="#363533"/>
<path d="M66.6245 25.9998C66.4982 26.0065 66.3698 25.9703 66.2811 25.8892C65.0704 24.795 63.8498 23.6477 62.6662 22.536L61.9711 21.8864C61.8233 21.7495 61.8547 21.5442 62.0387 21.4327C62.2228 21.3212 62.4907 21.334 62.6315 21.4713L63.3267 22.1209C64.51 23.2272 65.7235 24.3749 66.934 25.4638C67.0818 25.6007 67.0571 25.8003 66.8736 25.9225C66.8057 25.9689 66.7157 25.9951 66.6245 25.9998Z" fill="#363533"/>
<path d="M91.6608 49.3157C91.5345 49.3223 91.4061 49.2861 91.3174 49.205C86.3392 44.6638 81.3682 39.9936 76.56 35.4756L73.1573 32.2774C73.0094 32.1405 73.0408 31.9352 73.2249 31.8237C73.4087 31.7069 73.6769 31.725 73.8177 31.8623L77.2205 35.0604C82.0287 39.5784 86.9923 44.2437 91.9706 48.7849C92.1184 48.9219 92.094 49.1268 91.9102 49.2437C91.835 49.2851 91.745 49.3113 91.6608 49.3157Z" fill="#363533"/>
<path d="M68.2169 51.5514C68.1328 51.5558 68.0478 51.5442 67.9754 51.5051L55.9109 45.9471C55.7162 45.8555 55.6564 45.655 55.7821 45.5037C55.9078 45.3524 56.1724 45.301 56.3671 45.3926L68.4316 50.9506C68.6263 51.0422 68.686 51.2428 68.5603 51.3941C68.4809 51.4893 68.3502 51.5444 68.2169 51.5514Z" fill="#363533"/>
<path d="M52.5255 44.2917C52.4414 44.2961 52.3564 44.2845 52.284 44.2454L45.084 40.9247C44.8893 40.833 44.8295 40.6325 44.9552 40.4812C45.0809 40.3299 45.3455 40.2785 45.5402 40.3702L52.7402 43.6909C52.9349 43.7825 52.9946 43.983 52.8689 44.1343C52.7895 44.2296 52.6588 44.2847 52.5255 44.2917Z" fill="#363533"/>
<path d="M18.2088 46.3018L18.1643 46.0753C17.9425 45.5858 17.6996 45.1082 17.4355 44.6427C17.192 44.1543 16.9382 43.6773 16.6741 43.2118L13.7264 37.483C11.9305 33.9819 10.0923 30.5047 8.2117 27.0515C6.35172 23.5755 4.50261 20.0989 2.66436 16.6217C2.56719 16.4307 2.46946 16.2288 2.37115 16.0161C2.29457 15.8022 2.25059 15.5866 2.2392 15.3693C2.213 14.8695 2.40293 14.5436 2.80896 14.3916C3.23673 14.2385 3.64618 14.1516 4.03732 14.1311L15.4782 13.5315C15.9128 13.5088 16.2438 13.5895 16.4714 13.7736C16.6978 13.9361 16.9076 14.1975 17.1008 14.5578C17.4632 15.236 17.7844 15.9601 18.0644 16.7298C18.3445 17.4996 18.6342 18.247 18.9337 18.9722C19.6813 20.7633 20.4077 22.5665 21.1129 24.3817C21.8387 26.174 22.5863 27.9651 23.3556 29.7551C23.4036 29.8398 23.4653 29.9782 23.5408 30.1703C23.6379 30.3613 23.7517 30.4534 23.8821 30.4466C24.0125 30.4398 24.116 30.3363 24.1927 30.1362C24.2899 29.9132 24.3472 29.7576 24.3643 29.6696C24.9617 27.7644 25.5043 25.8511 25.9919 23.9299C26.5001 21.9857 27.0204 20.0628 27.5526 18.161C27.7563 17.4748 27.9372 16.768 28.0952 16.0407C28.2749 15.3122 28.4895 14.6255 28.7389 13.9805C28.8923 13.5803 29.073 13.2875 29.2812 13.1023C29.4883 12.8954 29.82 12.7799 30.2763 12.756L41.652 12.1598C42.0431 12.1393 42.4594 12.1829 42.9008 12.2905C43.3423 12.3981 43.5766 12.7126 43.604 13.2342C43.6154 13.4515 43.5833 13.671 43.5078 13.8929C43.4539 14.1136 43.3779 14.3246 43.2795 14.5259C41.6935 18.3568 40.0846 22.1672 38.4529 25.9569C36.8212 29.7467 35.2346 33.5668 33.6932 37.4172C33.1531 38.7529 32.6021 40.0891 32.0403 41.4259C31.4773 42.741 30.9481 44.0762 30.4526 45.4313L30.3993 45.6629L31.1258 57.6527C31.185 58.7827 30.6496 59.3773 29.5196 59.4365L20.5234 59.908C19.3935 59.9672 18.7989 59.4318 18.7397 58.3018L18.2088 46.3018Z" fill="#FFD700"/>
<path d="M60.502 35.0643C60.5453 35.8901 60.5782 36.7272 60.6009 37.5759C60.6442 38.4016 60.6983 39.2268 60.7633 40.0514C60.9184 42.1786 61.5974 43.908 62.8002 45.2395C64.0019 46.5493 65.7327 47.145 67.9926 47.0265C70.3829 46.9012 72.1758 46.1863 73.3712 44.8816C74.5884 43.5758 75.1338 41.7169 75.0074 39.3049L74.746 34.3178C74.6128 31.7754 74.4795 29.233 74.3463 26.6906C74.2336 24.1253 74.1215 21.5709 74.01 19.0274L73.7692 14.4315C73.7715 14.0609 73.7516 13.6806 73.7094 13.2906C73.666 12.8789 73.6569 12.4981 73.6822 12.1481C73.7178 11.5797 73.8374 11.1594 74.041 10.8873C74.2652 10.5923 74.6816 10.4288 75.29 10.3969L84.1233 9.934C85.2315 9.87592 85.8158 10.4227 85.8761 11.5744C85.9365 12.7261 85.9757 13.8898 85.9937 15.0655C86.0335 16.2401 86.0618 17.4043 86.0787 18.5583C86.1845 20.9932 86.2806 23.4504 86.367 25.9299C86.474 28.3865 86.5918 30.8426 86.7205 33.2981C86.7694 34.2325 86.8293 35.1663 86.9 36.0995C86.9695 37.011 87.0179 37.9346 87.0452 38.8701C87.2125 42.4784 86.4867 45.676 84.8678 48.4627C83.2488 51.2495 81.0228 53.4689 78.1895 55.1208C75.3563 56.7728 72.1904 57.6905 68.6919 57.8738C64.9543 58.0697 61.6046 57.5589 58.6428 56.3413C55.6798 55.1021 53.3025 53.1893 51.511 50.6031C49.7411 48.0157 48.7543 44.7772 48.5505 40.8875C48.4958 39.8445 48.4411 38.8014 48.3865 37.7584C48.3535 36.7142 48.3097 35.6706 48.2551 34.6276C48.1321 32.2807 47.9988 29.9453 47.8552 27.6214C47.7105 25.2757 47.5555 22.9414 47.3902 20.6186C47.3069 19.4463 47.2128 18.2746 47.1079 17.1034C47.0029 15.9323 46.9203 14.7709 46.8599 13.6192C46.7996 12.4675 47.3235 11.8626 48.4317 11.8045L57.4605 11.3313C58.0907 11.2983 58.5218 11.4173 58.7539 11.6884C58.9849 11.9378 59.1478 12.3433 59.2426 12.9049C59.3043 13.2503 59.3351 13.63 59.335 14.044C59.3338 14.4362 59.3537 14.8165 59.3948 15.1848L59.6356 19.7807C59.7906 22.322 59.9353 24.8747 60.0697 27.4388C60.2246 29.9801 60.3687 32.5219 60.502 35.0643Z" fill="#FFD700"/>
<path d="M96.8283 55.909C95.7201 55.9671 95.1358 55.4203 95.0754 54.2686C95.014 53.0951 94.9742 51.9206 94.9561 50.7449C94.9587 49.5463 94.9401 48.3598 94.9003 47.1852C94.8197 44.8144 94.7287 42.4549 94.6274 40.107C94.5479 37.7578 94.4461 35.399 94.3219 33.0304C93.978 26.468 93.5369 19.9215 92.9985 13.391L92.9678 12.8043C92.9552 12.5653 92.9639 12.1072 92.9938 11.4302C93.0226 10.7314 93.2434 10.3712 93.6562 10.3496C94.0256 10.3302 94.4419 10.5808 94.905 11.1012C95.3886 11.5988 95.7345 11.962 95.9426 12.1908C96.895 13.3175 97.8269 14.4671 98.7381 15.6396C99.6482 16.7903 100.558 17.9411 101.468 19.0918C103.311 21.4139 105.133 23.7371 106.932 26.0614C108.754 28.3846 110.576 30.7187 112.398 33.0636C113.193 34.0897 113.977 35.1163 114.749 36.1435C115.544 37.1695 116.338 38.1847 117.132 39.189C117.294 39.3766 117.451 39.4665 117.603 39.4585C117.734 39.4516 117.87 39.3465 118.012 39.1429C119.203 37.3373 120.36 35.5226 121.485 33.6987C122.631 31.8736 123.778 30.0595 124.926 28.2561C127.362 24.4242 129.809 20.6135 132.269 16.8239C134.729 13.0343 137.223 9.27566 139.751 5.54786L139.914 5.53931C139.978 9.67599 140.076 13.8218 140.207 17.9768C140.359 22.1307 140.544 26.2828 140.761 30.4332C140.885 32.8018 141.02 35.1698 141.166 37.5372C141.334 39.9035 141.502 42.2807 141.671 44.6687C141.755 45.8627 141.85 47.0562 141.956 48.249C142.083 49.419 142.178 50.6016 142.24 51.7968C142.301 52.9484 141.777 53.5533 140.669 53.6114L131.607 54.0863C130.999 54.1182 130.579 54.0094 130.348 53.7601C130.116 53.489 129.953 53.0835 129.859 52.5437C129.742 51.9615 129.677 51.3439 129.664 50.6909C129.674 50.0367 129.651 49.406 129.598 48.7987C129.499 47.3222 129.41 45.8342 129.331 44.3349C129.273 42.8126 129.184 41.3138 129.063 39.8384C129.061 39.795 129.04 39.6109 129.001 39.286C128.961 38.9395 128.865 38.7702 128.713 38.7782C128.583 38.785 128.448 38.9119 128.308 39.1589C128.169 39.4059 128.079 39.5632 128.039 39.6306C126.474 42.6107 124.942 45.6108 123.444 48.6309C121.945 51.6293 120.425 54.6288 118.882 57.6294L118.72 57.638C116.842 55.078 114.985 52.4952 113.149 49.8895C111.313 47.2838 109.435 44.713 107.516 42.177C107.468 42.0924 107.363 41.9671 107.202 41.8013C107.061 41.6125 106.926 41.5216 106.795 41.5284C106.643 41.5364 106.564 41.693 106.558 41.9984C106.553 42.3038 106.551 42.4782 106.553 42.5216C106.618 43.7602 106.673 45.0103 106.717 46.2718C106.76 47.5115 106.803 48.7513 106.846 49.991C106.878 50.5994 106.922 51.229 106.978 51.8798C107.056 52.5294 107.067 53.1499 107.01 53.7411C106.974 54.2878 106.854 54.7081 106.652 55.002C106.448 55.2741 106.042 55.4261 105.433 55.458L96.8283 55.909Z" fill="#FFD700"/>
<path d="M151.523 53.0426C150.415 53.1007 149.83 52.5538 149.77 51.4022C149.708 50.2287 149.669 49.0542 149.651 47.8785C149.653 46.6799 149.635 45.4933 149.595 44.3188C149.514 41.9479 149.423 39.5885 149.322 37.2405C149.242 34.8914 149.14 32.5326 149.016 30.164C148.672 23.6016 148.231 17.0551 147.693 10.5246L147.662 9.93789C147.65 9.69886 147.658 9.24082 147.688 8.56377C147.717 7.865 147.938 7.50479 148.351 7.48315C148.72 7.46379 149.136 7.71435 149.599 8.23482C150.083 8.73243 150.429 9.09562 150.637 9.3244C151.589 10.4511 152.521 11.6007 153.433 12.7732C154.343 13.9239 155.253 15.0747 156.163 16.2254C158.006 18.5475 159.827 20.8707 161.627 23.195C163.448 25.5182 165.27 27.8523 167.093 30.1972C167.887 31.2233 168.671 32.2499 169.444 33.2771C170.239 34.3031 171.033 35.3183 171.826 36.3226C171.988 36.5102 172.146 36.6 172.298 36.5921C172.428 36.5852 172.564 36.48 172.706 36.2765C173.897 34.4709 175.055 32.6562 176.18 30.8323C177.326 29.0072 178.473 27.193 179.62 25.3897C182.056 21.5578 184.504 17.7471 186.964 13.9575C189.423 10.1679 191.917 6.40925 194.446 2.68144L194.609 2.6729C194.673 6.80957 194.77 10.9554 194.901 15.1104C195.053 19.2642 195.238 23.4164 195.456 27.5668C195.58 29.9354 195.715 32.3034 195.861 34.6708C196.028 37.0371 196.196 39.4143 196.365 41.8023C196.45 42.9963 196.545 44.1897 196.651 45.3826C196.778 46.5526 196.872 47.7352 196.935 48.9303C196.995 50.082 196.471 50.6869 195.363 50.745L186.302 51.2199C185.693 51.2518 185.273 51.143 185.043 50.8937C184.81 50.6226 184.648 50.2171 184.554 49.6773C184.436 49.0951 184.371 48.4775 184.359 47.8245C184.368 47.1703 184.346 46.5395 184.292 45.9322C184.193 44.4557 184.104 42.9678 184.026 41.4684C183.968 39.9462 183.878 38.4474 183.757 36.972C183.755 36.9286 183.734 36.7444 183.696 36.4196C183.656 36.0731 183.56 35.9038 183.408 35.9118C183.277 35.9186 183.142 36.0455 183.003 36.2925C182.863 36.5395 182.773 36.6968 182.733 36.7642C181.168 39.7443 179.636 42.7444 178.139 45.7645C176.64 48.7628 175.119 51.7624 173.577 54.763L173.414 54.7715C171.537 52.2116 169.68 49.6288 167.844 47.0231C166.008 44.4174 164.13 41.8466 162.21 39.3106C162.162 39.226 162.057 39.1007 161.896 38.9348C161.756 38.7461 161.62 38.6552 161.49 38.662C161.338 38.67 161.259 38.8266 161.253 39.132C161.247 39.4373 161.245 39.6118 161.248 39.6552C161.312 40.8938 161.367 42.1439 161.411 43.4053C161.455 44.6451 161.498 45.8848 161.541 47.1246C161.573 47.733 161.617 48.3626 161.673 49.0134C161.75 49.663 161.761 50.2835 161.705 50.8747C161.668 51.4214 161.548 51.8417 161.346 52.1355C161.142 52.4077 160.736 52.5597 160.128 52.5916L151.523 53.0426Z" fill="#FFD700"/>
<path d="M214.431 36.0182L214.386 35.7917C214.164 35.3022 213.922 34.8247 213.657 34.3591C213.414 33.8707 213.16 33.3938 212.896 32.9282L209.948 27.1995C208.152 23.6983 206.314 20.2211 204.434 16.768C202.574 13.2919 200.725 9.81535 198.886 6.33818C198.789 6.14716 198.691 5.94528 198.593 5.73254C198.517 5.51866 198.473 5.30306 198.461 5.08576C198.435 4.58597 198.625 4.26007 199.031 4.10805C199.459 3.9549 199.868 3.86807 200.259 3.84757L211.7 3.24798C212.135 3.2252 212.466 3.30591 212.693 3.49009C212.92 3.65254 213.13 3.91392 213.323 4.27422C213.685 4.95249 214.006 5.67651 214.286 6.44626C214.566 7.21601 214.856 7.96347 215.156 8.68862C215.903 10.4798 216.63 12.2829 217.335 14.0981C218.061 15.8904 218.808 17.6816 219.578 19.4716C219.626 19.5562 219.687 19.6946 219.763 19.8868C219.86 20.0778 219.974 20.1699 220.104 20.163C220.234 20.1562 220.338 20.0527 220.415 19.8526C220.512 19.6296 220.569 19.4741 220.586 19.386C221.184 17.4808 221.726 15.5676 222.214 13.6463C222.722 11.7022 223.242 9.7792 223.775 7.8774C223.978 7.19124 224.159 6.48449 224.317 5.75715C224.497 5.02867 224.711 4.34195 224.961 3.69697C225.114 3.29672 225.295 3.00398 225.503 2.81875C225.71 2.61179 226.042 2.49636 226.498 2.47244L237.874 1.87627C238.265 1.85577 238.681 1.89932 239.123 2.00693C239.564 2.11453 239.799 2.42909 239.826 2.95061C239.837 3.16791 239.805 3.38749 239.73 3.60935C239.676 3.83006 239.6 4.04105 239.501 4.24232C237.915 8.07326 236.307 11.8836 234.675 15.6734C233.043 19.4631 231.457 23.2832 229.915 27.1336C229.375 28.4693 228.824 29.8056 228.262 31.1424C227.699 32.4575 227.17 33.7926 226.675 35.1477L226.621 35.3793L227.348 47.3692C227.407 48.4991 226.872 49.0937 225.742 49.1529L216.745 49.6244C215.615 49.6836 215.021 49.1482 214.962 48.0183L214.431 36.0182Z" fill="#FFD700"/>
<path d="M17.1656 46.3564L17.121 46.13C16.8993 45.6404 16.6564 45.1629 16.3923 44.6974C16.1488 44.209 15.895 43.732 15.6309 43.2665L12.6832 37.5377C10.8873 34.0366 9.04905 30.5594 7.16849 27.1062C5.30851 23.6302 3.4594 20.1536 1.62115 16.6764C1.52398 16.4854 1.42624 16.2835 1.32793 16.0708C1.25136 15.8569 1.20737 15.6413 1.19598 15.424C1.16979 14.9242 1.35971 14.5983 1.76575 14.4463C2.19352 14.2931 2.60297 14.2063 2.99411 14.1858L14.435 13.5862C14.8696 13.5634 15.2006 13.6441 15.4282 13.8283C15.6546 13.9908 15.8644 14.2522 16.0576 14.6125C16.42 15.2907 16.7412 16.0148 17.0212 16.7845C17.3013 17.5543 17.591 18.3017 17.8905 19.0269C18.6381 20.818 19.3645 22.6212 20.0697 24.4363C20.7955 26.2286 21.5431 28.0198 22.3124 29.8098C22.3604 29.8945 22.4221 30.0329 22.4976 30.225C22.5947 30.416 22.7085 30.5081 22.8389 30.5013C22.9693 30.4944 23.0728 30.391 23.1495 30.1908C23.2467 29.9678 23.3039 29.8123 23.3211 29.7243C23.9185 27.819 24.4611 25.9058 24.9487 23.9845C25.4569 22.0404 25.9771 20.1174 26.5094 18.2156C26.7131 17.5295 26.894 16.8227 27.0519 16.0954C27.2317 15.3669 27.4463 14.6802 27.6957 14.0352C27.8491 13.635 28.0298 13.3422 28.238 13.157C28.4451 12.95 28.7768 12.8346 29.2331 12.8107L40.6087 12.2145C40.9999 12.194 41.4162 12.2376 41.8576 12.3452C42.299 12.4528 42.5334 12.7673 42.5608 13.2889C42.5721 13.5062 42.5401 13.7257 42.4645 13.9476C42.4107 14.1683 42.3346 14.3793 42.2362 14.5806C40.6503 18.4115 39.0414 22.2219 37.4097 26.0116C35.778 29.8014 34.1914 33.6215 32.65 37.4719C32.1099 38.8075 31.5589 40.1438 30.9971 41.4806C30.4341 42.7957 29.9049 44.1308 29.4094 45.486L29.3561 45.7176L30.0825 57.7074C30.1418 58.8374 29.6064 59.432 28.4764 59.4912L19.4802 59.9626C18.3502 60.0219 17.7557 59.4865 17.6964 58.3565L17.1656 46.3564Z" fill="white"/>
<path d="M59.4588 35.119C59.502 35.9448 59.535 36.7819 59.5577 37.6305C59.601 38.4563 59.6551 39.2815 59.7201 40.1061C59.8752 42.2333 60.5541 43.9627 61.757 45.2942C62.9587 46.604 64.6895 47.1996 66.9494 47.0812C69.3397 46.9559 71.1326 46.241 72.328 44.9363C73.5452 43.6305 74.0906 41.7716 73.9641 39.3596L73.7028 34.3725C73.5695 31.8301 73.4363 29.2877 73.3031 26.7453C73.1904 24.18 73.0783 21.6256 72.9668 19.082L72.726 14.4862C72.7283 14.1156 72.7084 13.7353 72.6662 13.3453C72.6228 12.9336 72.6137 12.5527 72.639 12.2028C72.6746 11.6344 72.7942 11.2141 72.9978 10.942C73.222 10.647 73.6384 10.4835 74.2468 10.4516L83.08 9.98869C84.1883 9.93061 84.7726 10.4774 84.8329 11.6291C84.8933 12.7808 84.9325 13.9445 84.9505 15.1202C84.9903 16.2947 85.0186 17.459 85.0355 18.613C85.1413 21.0479 85.2374 23.5051 85.3238 25.9846C85.4307 28.4412 85.5486 30.8973 85.6772 33.3528C85.7262 34.2871 85.7861 35.221 85.8568 36.1542C85.9263 37.0657 85.9747 37.9893 86.002 38.9248C86.1693 42.5331 85.4435 45.7307 83.8246 48.5174C82.2056 51.3042 79.9796 53.5236 77.1463 55.1755C74.3131 56.8275 71.1472 57.7452 67.6487 57.9285C63.9111 58.1244 60.5614 57.6136 57.5996 56.396C54.6366 55.1568 52.2593 53.244 50.4678 50.6578C48.6979 48.0704 47.7111 44.8319 47.5073 40.9422C47.4526 39.8992 47.3979 38.8561 47.3433 37.8131C47.3103 36.7689 47.2665 35.7253 47.2119 34.6823C47.0889 32.3354 46.9556 30 46.812 27.676C46.6673 25.3303 46.5123 22.9961 46.3469 20.6732C46.2637 19.501 46.1696 18.3292 46.0647 17.1581C45.9597 15.987 45.8771 14.8255 45.8167 13.6739C45.7563 12.5222 46.2803 11.9173 47.3885 11.8592L56.4173 11.386C57.0475 11.353 57.4786 11.472 57.7107 11.7431C57.9417 11.9925 58.1046 12.398 58.1994 12.9595C58.2611 13.3049 58.2919 13.6846 58.2918 14.0987C58.2905 14.4909 58.3105 14.8712 58.3516 15.2395L58.5924 19.8354C58.7474 22.3766 58.8921 24.9294 59.0264 27.4935C59.1814 30.0348 59.3255 32.5766 59.4588 35.119Z" fill="white"/>
<path d="M95.7851 55.9637C94.6769 56.0218 94.0926 55.4749 94.0322 54.3233C93.9707 53.1498 93.931 51.9753 93.9129 50.7996C93.9155 49.601 93.8969 48.4144 93.8571 47.2399C93.7764 44.869 93.6855 42.5096 93.5842 40.1616C93.5047 37.8125 93.4028 35.4537 93.2787 33.0851C92.9348 26.5227 92.4937 19.9762 91.9553 13.4457L91.9246 12.859C91.912 12.62 91.9207 12.1619 91.9506 11.4849C91.9793 10.7861 92.2001 10.4259 92.613 10.4043C92.9824 10.3849 93.3987 10.6354 93.8617 11.1559C94.3454 11.6535 94.6913 12.0167 94.8994 12.2455C95.8518 13.3722 96.7836 14.5218 97.6949 15.6943C98.605 16.845 99.5151 17.9958 100.425 19.1465C102.268 21.4686 104.09 23.7918 105.889 26.1161C107.711 28.4393 109.533 30.7734 111.355 33.1183C112.15 34.1444 112.933 35.171 113.706 36.1982C114.501 37.2242 115.295 38.2394 116.088 39.2437C116.251 39.4313 116.408 39.5211 116.56 39.5132C116.691 39.5063 116.827 39.4011 116.969 39.1976C118.159 37.392 119.317 35.5773 120.442 33.7534C121.588 31.9283 122.735 30.1141 123.883 28.3108C126.318 24.4789 128.766 20.6682 131.226 16.8786C133.686 13.089 136.18 9.33035 138.708 5.60254L138.871 5.594C138.935 9.73067 139.033 13.8765 139.163 18.0315C139.316 22.1853 139.501 26.3375 139.718 30.4879C139.842 32.8565 139.977 35.2245 140.123 37.5919C140.291 39.9582 140.459 42.3354 140.628 44.7234C140.712 45.9174 140.807 47.1108 140.913 48.3037C141.04 49.4737 141.135 50.6563 141.197 51.8514C141.258 53.0031 140.734 53.608 139.625 53.6661L130.564 54.141C129.956 54.1729 129.536 54.0641 129.305 53.8148C129.073 53.5437 128.91 53.1382 128.816 52.5984C128.699 52.0162 128.634 51.3986 128.621 50.7456C128.63 50.0914 128.608 49.4606 128.555 48.8533C128.455 47.3768 128.367 45.8889 128.288 44.3895C128.23 42.8673 128.141 41.3685 128.02 39.8931C128.017 39.8497 127.997 39.6655 127.958 39.3407C127.918 38.9942 127.822 38.8249 127.67 38.8329C127.54 38.8397 127.405 38.9666 127.265 39.2136C127.125 39.4606 127.036 39.6179 126.996 39.6853C125.43 42.6654 123.899 45.6655 122.401 48.6856C120.902 51.6839 119.382 54.6835 117.839 57.6841L117.676 57.6926C115.799 55.1327 113.942 52.5499 112.106 49.9442C110.27 47.3385 108.392 44.7677 106.472 42.2317C106.424 42.1471 106.32 42.0218 106.159 41.8559C106.018 41.6672 105.882 41.5763 105.752 41.5831C105.6 41.5911 105.521 41.7477 105.515 42.0531C105.509 42.3584 105.508 42.5329 105.51 42.5763C105.575 43.8149 105.629 45.065 105.674 46.3264C105.717 47.5662 105.76 48.8059 105.803 50.0457C105.835 50.6541 105.879 51.2837 105.935 51.9345C106.013 52.5841 106.023 53.2046 105.967 53.7958C105.93 54.3425 105.811 54.7628 105.608 55.0566C105.405 55.3288 104.999 55.4808 104.39 55.5127L95.7851 55.9637Z" fill="white"/>
<path d="M150.48 53.0973C149.371 53.1553 148.787 52.6085 148.727 51.4568C148.665 50.2834 148.625 49.1089 148.607 47.9332C148.61 46.7346 148.591 45.548 148.552 44.3735C148.471 42.0026 148.38 39.6432 148.279 37.2952C148.199 34.9461 148.097 32.5873 147.973 30.2187C147.629 23.6562 147.188 17.1098 146.65 10.5793L146.619 9.99258C146.606 9.75354 146.615 9.29551 146.645 8.61846C146.674 7.91968 146.895 7.55948 147.307 7.53784C147.677 7.51848 148.093 7.76904 148.556 8.28951C149.04 8.78711 149.386 9.15031 149.594 9.37909C150.546 10.5058 151.478 11.6554 152.389 12.8279C153.299 13.9786 154.21 15.1294 155.12 16.2801C156.963 18.6022 158.784 20.9254 160.584 23.2497C162.405 25.5729 164.227 27.907 166.049 30.2519C166.844 31.2779 167.628 32.3046 168.401 33.3318C169.195 34.3578 169.989 35.373 170.783 36.3773C170.945 36.5649 171.102 36.6547 171.255 36.6468C171.385 36.6399 171.521 36.5347 171.663 36.3312C172.854 34.5256 174.012 32.7109 175.136 30.8869C176.283 29.0619 177.43 27.2477 178.577 25.4444C181.013 21.6125 183.461 17.8018 185.92 14.0122C188.38 10.2226 190.874 6.46393 193.402 2.73613L193.565 2.72759C193.63 6.86426 193.727 11.0101 193.858 15.1651C194.01 19.3189 194.195 23.4711 194.412 27.6215C194.537 29.9901 194.672 32.3581 194.817 34.7255C194.985 37.0918 195.153 39.469 195.322 41.857C195.406 43.051 195.502 44.2444 195.608 45.4373C195.734 46.6073 195.829 47.7899 195.892 48.985C195.952 50.1367 195.428 50.7416 194.32 50.7997L185.258 51.2746C184.65 51.3065 184.23 51.1977 183.999 50.9483C183.767 50.6772 183.604 50.2718 183.511 49.7319C183.393 49.1498 183.328 48.5322 183.315 47.8792C183.325 47.225 183.303 46.5942 183.249 45.9869C183.15 44.5104 183.061 43.0225 182.982 41.5231C182.924 40.0009 182.835 38.5021 182.714 37.0267C182.712 36.9833 182.691 36.7991 182.652 36.4743C182.612 36.1278 182.516 35.9585 182.364 35.9665C182.234 35.9733 182.099 36.1002 181.959 36.3472C181.82 36.5942 181.73 36.7514 181.69 36.8189C180.125 39.799 178.593 42.7991 177.096 45.8192C175.597 48.8175 174.076 51.817 172.534 54.8177L172.371 54.8262C170.493 52.2663 168.637 49.6834 166.8 47.0778C164.964 44.4721 163.086 41.9012 161.167 39.3653C161.119 39.2807 161.014 39.1554 160.853 38.9895C160.712 38.8008 160.577 38.7098 160.446 38.7167C160.294 38.7246 160.215 38.8813 160.21 39.1867C160.204 39.492 160.202 39.6664 160.204 39.7099C160.269 40.9485 160.324 42.1986 160.368 43.46C160.411 44.6998 160.455 45.9395 160.498 47.1793C160.53 47.7877 160.573 48.4173 160.629 49.0681C160.707 49.7177 160.718 50.3382 160.662 50.9294C160.625 51.4761 160.505 51.8964 160.303 52.1902C160.099 52.4624 159.693 52.6144 159.085 52.6463L150.48 53.0973Z" fill="white"/>
<path d="M213.388 36.0729L213.343 35.8464C213.121 35.3569 212.878 34.8794 212.614 34.4138C212.371 33.9254 212.117 33.4484 211.853 32.9829L208.905 27.2542C207.109 23.753 205.271 20.2758 203.39 16.8227C201.53 13.3466 199.681 9.87004 197.843 6.39287C197.746 6.20185 197.648 5.99997 197.55 5.78723C197.473 5.57334 197.429 5.35775 197.418 5.14045C197.392 4.64066 197.582 4.31476 197.988 4.16274C198.415 4.00958 198.825 3.92276 199.216 3.90226L210.657 3.30267C211.091 3.27989 211.423 3.36059 211.65 3.54478C211.877 3.70723 212.086 3.9686 212.28 4.3289C212.642 5.00718 212.963 5.7312 213.243 6.50095C213.523 7.2707 213.813 8.01816 214.112 8.74331C214.86 10.5345 215.586 12.3376 216.292 14.1528C217.017 15.9451 217.765 17.7362 218.534 19.5263C218.582 19.6109 218.644 19.7493 218.719 19.9415C218.817 20.1325 218.93 20.2246 219.061 20.2177C219.191 20.2109 219.295 20.1074 219.371 19.9073C219.469 19.6843 219.526 19.5288 219.543 19.4407C220.14 17.5355 220.683 15.6222 221.171 13.701C221.679 11.7569 222.199 9.83389 222.731 7.93208C222.935 7.24593 223.116 6.53918 223.274 5.81184C223.454 5.08336 223.668 4.39663 223.918 3.75166C224.071 3.35141 224.252 3.05867 224.46 2.87344C224.667 2.66648 224.999 2.55105 225.455 2.52713L236.831 1.93096C237.222 1.91046 237.638 1.95401 238.08 2.06161C238.521 2.16922 238.755 2.48378 238.783 3.0053C238.794 3.2226 238.762 3.44218 238.686 3.66403C238.633 3.88475 238.557 4.09574 238.458 4.297C236.872 8.12795 235.263 11.9383 233.632 15.7281C232 19.5178 230.413 23.3379 228.872 27.1883C228.332 28.524 227.781 29.8602 227.219 31.1971C226.656 32.5122 226.127 33.8473 225.631 35.2024L225.578 35.434L226.304 47.4238C226.364 48.5538 225.828 49.1484 224.698 49.2076L215.702 49.6791C214.572 49.7383 213.978 49.2029 213.918 48.073L213.388 36.0729Z" fill="white"/>
<path d="M16.1226 46.4111L16.0781 46.1847C15.8563 45.6951 15.6134 45.2176 15.3493 44.7521C15.1058 44.2637 14.852 43.7867 14.5879 43.3212L11.6403 37.5924C9.84433 34.0912 8.00609 30.6141 6.12552 27.1609C4.26554 23.6849 2.41643 20.2083 0.578182 16.7311C0.481013 16.5401 0.383274 16.3382 0.284966 16.1255C0.208387 15.9116 0.164404 15.696 0.153016 15.4787C0.126823 14.9789 0.316745 14.653 0.722782 14.501C1.15055 14.3478 1.56 14.261 1.95114 14.2405L13.392 13.6409C13.8266 13.6181 14.1577 13.6988 14.3852 13.883C14.6116 14.0455 14.8214 14.3068 15.0146 14.6671C15.377 15.3454 15.6982 16.0694 15.9783 16.8392C16.2583 17.6089 16.548 18.3564 16.8475 19.0816C17.5951 20.8727 18.3215 22.6759 19.0267 24.491C19.7526 26.2833 20.5001 28.0745 21.2694 29.8645C21.3174 29.9491 21.3791 30.0875 21.4546 30.2797C21.5518 30.4707 21.6655 30.5628 21.7959 30.556C21.9263 30.5491 22.0298 30.4457 22.1065 30.2455C22.2038 30.0225 22.261 29.867 22.2781 29.7789C22.8756 27.8737 23.4181 25.9605 23.9057 24.0392C24.4139 22.0951 24.9342 20.1721 25.4664 18.2703C25.6701 17.5842 25.851 16.8774 26.009 16.1501C26.1887 15.4216 26.4033 14.7349 26.6528 14.0899C26.8061 13.6897 26.9869 13.3969 27.1951 13.2117C27.4021 13.0047 27.7338 12.8893 28.1901 12.8654L39.5658 12.2692C39.9569 12.2487 40.3732 12.2923 40.8146 12.3999C41.2561 12.5075 41.4905 12.822 41.5178 13.3435C41.5292 13.5608 41.4971 13.7804 41.4216 14.0023C41.3678 14.223 41.2917 14.434 41.1933 14.6352C39.6073 18.4662 37.9984 22.2765 36.3667 26.0663C34.735 29.8561 33.1484 33.6761 31.6071 37.5265C31.0669 38.8622 30.516 40.1985 29.9541 41.5353C29.3911 42.8504 28.8619 44.1855 28.3664 45.5407L28.3132 45.7722L29.0396 57.7621C29.0988 58.892 28.5634 59.4866 27.4335 59.5459L18.4372 60.0173C17.3073 60.0765 16.7127 59.5412 16.6535 58.4112L16.1226 46.4111Z" fill="url(#paint0_linear_2963_7918)"/>
<path d="M58.4158 35.1737C58.4591 35.9994 58.4921 36.8366 58.5147 37.6852C58.558 38.511 58.6122 39.3361 58.6772 40.1607C58.8322 42.288 59.5112 44.0174 60.714 45.3489C61.9157 46.6587 63.6465 47.2543 65.9065 47.1359C68.2968 47.0106 70.0896 46.2957 71.2851 44.991C72.5022 43.6852 73.0476 41.8263 72.9212 39.4142L72.6598 34.4272C72.5266 31.8848 72.3933 29.3424 72.2601 26.8C72.1474 24.2347 72.0354 21.6803 71.9238 19.1367L71.683 14.5408C71.6854 14.1703 71.6654 13.79 71.6232 13.4C71.5798 12.9883 71.5708 12.6074 71.596 12.2575C71.6316 11.6891 71.7512 11.2688 71.9548 10.9967C72.179 10.7016 72.5954 10.5382 73.2038 10.5063L82.0371 10.0434C83.1453 9.98529 83.7296 10.5321 83.79 11.6838C83.8503 12.8355 83.8895 13.9992 83.9075 15.1749C83.9473 16.3494 83.9756 17.5137 83.9925 18.6677C84.0984 21.1026 84.1944 23.5598 84.2808 26.0393C84.3878 28.4959 84.5056 30.9519 84.6343 33.4074C84.6832 34.3418 84.7431 35.2756 84.8138 36.2089C84.8833 37.1204 84.9317 38.0439 84.959 38.9795C85.1263 42.5878 84.4005 45.7853 82.7816 48.5721C81.1627 51.3589 78.9366 53.5782 76.1033 55.2302C73.2701 56.8822 70.1042 57.7998 66.6057 57.9832C62.8681 58.1791 59.5184 57.6682 56.5566 56.4507C53.5936 55.2115 51.2163 53.2987 49.4248 50.7125C47.655 48.1251 46.6681 44.8866 46.4643 40.9969C46.4096 39.9539 46.355 38.9108 46.3003 37.8678C46.2674 36.8236 46.2236 35.78 46.1689 34.7369C46.0459 32.3901 45.9126 30.0547 45.769 27.7307C45.6243 25.385 45.4693 23.0508 45.304 20.7279C45.2208 19.5556 45.1267 18.3839 45.0217 17.2128C44.9167 16.0416 44.8341 14.8802 44.7737 13.7285C44.7134 12.5769 45.2373 11.972 46.3455 11.9139L55.3744 11.4407C56.0045 11.4077 56.4357 11.5267 56.6678 11.7978C56.8987 12.0472 57.0616 12.4527 57.1564 13.0142C57.2181 13.3596 57.2489 13.7393 57.2488 14.1533C57.2476 14.5456 57.2675 14.9259 57.3086 15.2942L57.5495 19.8901C57.7044 22.4313 57.8491 24.984 57.9835 27.5482C58.1384 30.0895 58.2826 32.6313 58.4158 35.1737Z" fill="url(#paint1_linear_2963_7918)"/>
<path d="M94.7421 56.0184C93.6339 56.0764 93.0496 55.5296 92.9893 54.3779C92.9278 53.2045 92.888 52.03 92.87 50.8543C92.8725 49.6557 92.8539 48.4691 92.8142 47.2946C92.7335 44.9237 92.6425 42.5643 92.5412 40.2163C92.4617 37.8672 92.3599 35.5084 92.2357 33.1398C91.8918 26.5773 91.4507 20.0309 90.9123 13.5004L90.8816 12.9137C90.8691 12.6746 90.8777 12.2166 90.9076 11.5396C90.9364 10.8408 91.1572 10.4806 91.5701 10.4589C91.9395 10.4396 92.3557 10.6901 92.8188 11.2106C93.3024 11.7082 93.6483 12.0714 93.8564 12.3002C94.8088 13.4269 95.7407 14.5765 96.6519 15.749C97.562 16.8997 98.4721 18.0505 99.3822 19.2012C101.225 21.5233 103.047 23.8465 104.846 26.1708C106.668 28.494 108.49 30.8281 110.312 33.173C111.107 34.1991 111.89 35.2257 112.663 36.2529C113.458 37.2789 114.252 38.2941 115.045 39.2984C115.208 39.486 115.365 39.5758 115.517 39.5679C115.648 39.561 115.784 39.4558 115.926 39.2523C117.116 37.4467 118.274 35.632 119.399 33.808C120.545 31.983 121.692 30.1688 122.84 28.3655C125.275 24.5336 127.723 20.7229 130.183 16.9333C132.643 13.1437 135.137 9.38503 137.665 5.65723L137.828 5.64869C137.892 9.78536 137.99 13.9312 138.12 18.0862C138.273 22.24 138.458 26.3922 138.675 30.5426C138.799 32.9112 138.934 35.2792 139.08 37.6466C139.248 40.0129 139.416 42.39 139.585 44.7781C139.669 45.9721 139.764 47.1655 139.87 48.3584C139.997 49.5284 140.092 50.711 140.154 51.9061C140.215 53.0578 139.691 53.6627 138.582 53.7208L129.521 54.1957C128.913 54.2276 128.493 54.1188 128.262 53.8694C128.03 53.5983 127.867 53.1929 127.773 52.653C127.656 52.0709 127.591 51.4533 127.578 50.8003C127.587 50.1461 127.565 49.5153 127.512 48.908C127.412 47.4315 127.324 45.9436 127.245 44.4442C127.187 42.922 127.098 41.4232 126.977 39.9478C126.974 39.9044 126.954 39.7202 126.915 39.3954C126.875 39.0489 126.779 38.8796 126.627 38.8876C126.497 38.8944 126.362 39.0213 126.222 39.2683C126.082 39.5153 125.993 39.6726 125.953 39.74C124.387 42.7201 122.856 45.7202 121.358 48.7403C119.859 51.7386 118.339 54.7381 116.796 57.7388L116.633 57.7473C114.756 55.1874 112.899 52.6045 111.063 49.9989C109.227 47.3932 107.349 44.8223 105.429 42.2864C105.381 42.2018 105.277 42.0765 105.116 41.9106C104.975 41.7219 104.839 41.6309 104.709 41.6378C104.557 41.6457 104.478 41.8024 104.472 42.1078C104.466 42.4131 104.465 42.5875 104.467 42.631C104.532 43.8696 104.586 45.1197 104.631 46.3811C104.674 47.6209 104.717 48.8606 104.76 50.1004C104.792 50.7088 104.836 51.3384 104.892 51.9892C104.97 52.6388 104.98 53.2592 104.924 53.8505C104.887 54.3972 104.768 54.8175 104.565 55.1113C104.362 55.3835 103.956 55.5355 103.347 55.5674L94.7421 56.0184Z" fill="url(#paint2_linear_2963_7918)"/>
<path d="M149.437 53.1519C148.328 53.21 147.744 52.6632 147.684 51.5115C147.622 50.3381 147.582 49.1636 147.564 47.9879C147.567 46.7893 147.548 45.6027 147.509 44.4282C147.428 42.0573 147.337 39.6979 147.236 37.3499C147.156 35.0008 147.054 32.642 146.93 30.2734C146.586 23.7109 146.145 17.1645 145.607 10.634L145.576 10.0473C145.563 9.80823 145.572 9.35019 145.602 8.67315C145.631 7.97437 145.852 7.61416 146.264 7.59253C146.634 7.57317 147.05 7.82372 147.513 8.3442C147.997 8.8418 148.343 9.20499 148.551 9.43377C149.503 10.5605 150.435 11.7101 151.346 12.8826C152.256 14.0333 153.167 15.184 154.077 16.3348C155.92 18.6568 157.741 20.98 159.541 23.3044C161.362 25.6276 163.184 27.9617 165.006 30.3066C165.801 31.3326 166.585 32.3593 167.358 33.3864C168.152 34.4125 168.946 35.4277 169.74 36.432C169.902 36.6196 170.059 36.7094 170.212 36.7014C170.342 36.6946 170.478 36.5894 170.62 36.3859C171.811 34.5803 172.969 32.7655 174.093 30.9416C175.24 29.1166 176.387 27.3024 177.534 25.4991C179.97 21.6672 182.418 17.8565 184.877 14.0669C187.337 10.2773 189.831 6.51862 192.359 2.79082L192.522 2.78228C192.587 6.91895 192.684 11.0648 192.815 15.2198C192.967 19.3736 193.152 23.5258 193.37 27.6762C193.494 30.0448 193.629 32.4128 193.775 34.7802C193.942 37.1465 194.11 39.5236 194.279 41.9117C194.363 43.1057 194.459 44.2991 194.565 45.492C194.691 46.662 194.786 47.8446 194.849 49.0397C194.909 50.1914 194.385 50.7963 193.277 50.8544L184.215 51.3293C183.607 51.3611 183.187 51.2524 182.956 51.003C182.724 50.7319 182.561 50.3265 182.468 49.7866C182.35 49.2045 182.285 48.5869 182.273 47.9338C182.282 47.2797 182.26 46.6489 182.206 46.0416C182.107 44.5651 182.018 43.0772 181.939 41.5778C181.881 40.0556 181.792 38.5568 181.671 37.0814C181.669 37.0379 181.648 36.8538 181.609 36.529C181.57 36.1825 181.473 36.0132 181.321 36.0211C181.191 36.028 181.056 36.1549 180.916 36.4019C180.777 36.6489 180.687 36.8061 180.647 36.8736C179.082 39.8537 177.55 42.8537 176.053 45.8738C174.554 48.8722 173.033 51.8717 171.491 54.8724L171.328 54.8809C169.45 52.321 167.594 49.7381 165.758 47.1324C163.921 44.5268 162.043 41.9559 160.124 39.42C160.076 39.3353 159.971 39.2101 159.81 39.0442C159.669 38.8555 159.534 38.7645 159.403 38.7714C159.251 38.7793 159.172 38.936 159.167 39.2414C159.161 39.5467 159.159 39.7211 159.161 39.7646C159.226 41.0032 159.281 42.2532 159.325 43.5147C159.368 44.7545 159.412 45.9942 159.455 47.234C159.487 47.8424 159.531 48.472 159.586 49.1228C159.664 49.7724 159.675 50.3928 159.619 50.9841C159.582 51.5308 159.462 51.951 159.26 52.2449C159.056 52.5171 158.65 52.6691 158.042 52.701L149.437 53.1519Z" fill="url(#paint3_linear_2963_7918)"/>
<path d="M212.345 36.1276L212.3 35.9011C212.078 35.4116 211.835 34.934 211.571 34.4685C211.328 33.9801 211.074 33.5031 210.81 33.0376L207.862 27.3089C206.066 23.8077 204.228 20.3305 202.347 16.8774C200.487 13.4013 198.638 9.92472 196.8 6.44755C196.703 6.25654 196.605 6.05466 196.507 5.84191C196.43 5.62803 196.386 5.41244 196.375 5.19514C196.349 4.69535 196.539 4.36944 196.945 4.21743C197.372 4.06427 197.782 3.97744 198.173 3.95694L209.614 3.35735C210.049 3.33458 210.38 3.41528 210.607 3.59946C210.834 3.76191 211.043 4.02329 211.237 4.38359C211.599 5.06187 211.92 5.78588 212.2 6.55564C212.48 7.32539 212.77 8.07284 213.069 8.798C213.817 10.5892 214.543 12.3923 215.249 14.2075C215.975 15.9998 216.722 17.7909 217.491 19.5809C217.539 19.6656 217.601 19.804 217.677 19.9961C217.774 20.1872 217.887 20.2792 218.018 20.2724C218.148 20.2656 218.252 20.1621 218.328 19.962C218.426 19.739 218.483 19.5835 218.5 19.4954C219.098 17.5902 219.64 15.6769 220.128 13.7557C220.636 11.8115 221.156 9.88858 221.688 7.98677C221.892 7.30061 222.073 6.59387 222.231 5.86653C222.411 5.13805 222.625 4.45132 222.875 3.80635C223.028 3.4061 223.209 3.11336 223.417 2.92813C223.624 2.72117 223.956 2.60573 224.412 2.58182L235.788 1.98564C236.179 1.96515 236.595 2.0087 237.037 2.1163C237.478 2.22391 237.712 2.53847 237.74 3.05999C237.751 3.27729 237.719 3.49687 237.644 3.71872C237.59 3.93944 237.514 4.15043 237.415 4.35169C235.829 8.18264 234.22 11.993 232.589 15.7828C230.957 19.5725 229.37 23.3926 227.829 27.243C227.289 28.5787 226.738 29.9149 226.176 31.2518C225.613 32.5669 225.084 33.902 224.588 35.2571L224.535 35.4887L225.262 47.4785C225.321 48.6085 224.785 49.2031 223.655 49.2623L214.659 49.7338C213.529 49.793 212.935 49.2576 212.875 48.1277L212.345 36.1276Z" fill="url(#paint4_linear_2963_7918)"/>
<path d="M60.7248 68.2257C61.4908 67.0388 62.0124 67.2663 62.2896 68.9081C62.3864 69.5401 62.6101 70.7706 62.9608 72.5997C63.3115 74.4288 63.7607 76.9217 64.3083 80.0783C64.8527 83.1713 65.2701 85.6658 65.5606 87.5618C65.9112 89.3909 66.1333 90.5897 66.2268 91.1581C67.0048 96.2775 68.2463 99.3022 69.9514 100.232C70.941 100.881 72.3537 101.094 74.1894 100.87C75.333 100.81 76.035 101.442 76.2955 102.766C76.5594 104.154 76.5072 105.59 76.1391 107.075C75.7676 108.496 75.2675 109.286 74.6389 109.447C71.0944 109.887 68.4113 109.136 66.5894 107.193C64.6973 105.126 63.2921 101.409 62.3738 96.0424C60.7714 99.5028 59.0372 101.664 57.1712 102.526C55.8001 103.108 53.8641 103.241 51.363 102.926C48.6681 102.558 46.7573 101.957 45.6306 101.124C44.3703 100.171 43.8038 99.0861 43.9311 97.869C44.0484 96.4613 44.5621 94.7143 45.472 92.6281C46.4389 90.4114 47.1932 89.0022 47.735 88.4004C50.9324 84.9839 54.785 81.9152 59.293 79.1944C58.9658 76.5996 58.769 74.6669 58.7024 73.3963C58.6358 72.1256 58.8684 71.0941 59.4003 70.3018L60.7248 68.2257ZM60.2647 84.9726C55.3825 86.63 51.9363 88.9447 49.926 91.9168C49.6919 92.3113 49.8038 92.624 50.2619 92.8548C51.5658 93.4235 53.0788 93.7265 54.8008 93.7637C56.5194 93.7373 58.4472 93.4451 60.5839 92.8872C60.8982 92.807 61.236 92.5664 61.5972 92.1652C61.4804 91.152 61.2951 90.0469 61.0412 88.8498C60.8509 87.6493 60.5921 86.3569 60.2647 84.9726ZM51.8609 52.2541C51.9779 52.0568 52.2287 51.98 52.6133 52.0235C53.7166 52.4116 54.7915 52.865 55.838 53.3835C56.8844 53.902 57.8724 54.5191 58.8018 55.2349C59.0692 55.4757 59.1143 55.7281 58.937 55.9923L55.1838 62.7825C55.0668 62.9798 54.8093 62.9295 54.4115 62.6319C54.2109 62.4513 53.686 62.1602 52.8368 61.7588C52.0478 61.2905 50.901 60.6817 49.3965 59.9324L46.4211 65.1529C46.2438 65.417 45.9563 65.4003 45.5584 65.1026C45.2943 64.9253 44.6374 64.5456 43.5876 63.9636C42.6013 63.3782 41.1904 62.5921 39.3549 61.6053C39.0942 61.4916 39.0541 61.3344 39.2347 61.1338L43.0981 54.6245C43.2152 54.4272 43.4342 54.352 43.7552 54.3989C44.7248 54.6666 45.6359 55.033 46.4885 55.4979C47.4045 55.9596 48.2587 56.4563 49.0511 56.9881L51.8609 52.2541Z" fill="white"/>
<path d="M83.5464 69.8964C84.3724 69.8531 85.4155 70.3081 86.6759 71.2613C92.6534 75.9171 95.6831 82.0652 95.765 89.7056C95.7842 93.7181 94.9659 96.9463 93.3102 99.3902C88.9252 105.672 82.6984 109.024 74.63 109.447C73.804 109.491 73.1622 108.792 72.7044 107.35C72.4772 106.661 72.3754 105.934 72.399 105.168C72.359 104.406 72.3859 103.704 72.4797 103.062C72.6672 101.778 73.2342 101.048 74.1805 100.871C82.0919 99.8825 87.944 97.2824 91.7367 93.0702C91.4429 91.1107 91.0921 89.8868 90.6843 89.3986C90.2029 88.723 89.8068 88.4571 89.4958 88.6008C89.245 88.6777 89.0928 88.813 89.0393 89.007C88.1057 91.8589 86.5405 93.5973 84.3435 94.2221C77.435 96.1131 74.0851 93.5812 74.294 86.6263C74.375 83.3093 75.4592 79.685 77.5465 75.7532C79.5135 71.9552 81.5134 70.0029 83.5464 69.8964ZM80.941 80.3533C79.5467 80.4901 78.7539 81.7739 78.5628 84.2047C78.5828 84.5859 78.6245 84.7748 78.688 84.7715C79.9787 85.0861 81.286 85.1131 82.6102 84.8526C83.8709 84.5954 84.7069 84.1375 85.1183 83.4789C83.5339 81.2048 82.1415 80.163 80.941 80.3533ZM77.4419 50.0534C77.559 49.8561 77.8098 49.7793 78.1943 49.8228C80.7822 50.5791 83.1074 51.7951 85.1701 53.4707C85.4376 53.7115 85.4827 53.964 85.3054 54.2281L81.206 61.7054C81.0321 62.0331 80.7127 62.018 80.248 61.6601C79.9839 61.4828 79.2935 61.073 78.1769 60.4308C77.0602 59.7885 75.4538 58.9172 73.3575 57.8166C73.0298 57.6427 72.9563 57.4554 73.1369 57.2548L77.4419 50.0534Z" fill="white"/>
<path d="M106.477 38.9758C106.708 38.5178 106.92 38.3156 107.114 38.3691C107.432 38.3524 107.721 39.0062 107.981 40.3304C109.641 50.1178 110.845 58.4958 111.592 65.4642C112.256 72.0549 112.788 77.3464 113.189 81.3389C113.652 85.3281 113.953 88.0198 114.09 89.4142C114.841 95.2358 118.18 98.1823 124.109 98.2539C125.831 98.291 126.558 99.3996 126.29 101.58C125.898 105.04 125.321 106.791 124.558 106.831C116.236 107.267 111.585 103.624 110.607 95.9036C110.183 92.6768 109.791 89.4483 109.431 86.2182C109.131 82.9213 108.83 79.6243 108.53 76.3273C107.993 69.73 107.332 64.4134 106.548 60.3773C105.759 56.2777 104.752 51.6481 103.526 46.4885C103.286 45.5455 103.339 44.7464 103.687 44.0911L106.477 38.9758Z" fill="white"/>
<path d="M147.315 97.0377C148.475 97.2954 149.097 97.6132 149.181 97.9911C149.334 98.4927 149.374 99.255 149.3 100.278C149.039 103.796 148.527 105.574 147.765 105.614C144.334 105.794 140.802 104.036 137.168 100.341C134.428 103.988 130.21 106.152 124.512 106.833C123.877 106.866 123.439 106.411 123.198 105.469L122.226 101.506C122.006 100.944 122.098 100.27 122.502 99.4848C122.85 98.8295 123.37 98.42 124.063 98.2563C131.021 97.3183 135.612 94.9753 137.837 91.2275C138.128 90.7026 138.559 90.4252 139.131 90.3952C139.703 90.3653 140.004 90.6362 140.034 91.208C140.06 91.7162 140.144 92.0941 140.284 92.3415C142.531 95.0906 144.874 96.656 147.315 97.0377ZM132.201 60.2751C132.318 60.0779 132.569 60.001 132.954 60.0446C135.542 60.8009 137.867 62.0168 139.93 63.6925C140.197 63.9333 140.242 64.1857 140.065 64.4499L135.965 71.9272C135.791 72.2548 135.472 72.2397 135.007 71.8818C134.743 71.7045 134.053 71.2948 132.936 70.6525C131.82 70.0103 130.213 69.1389 128.117 68.0383C127.789 67.8644 127.716 67.6771 127.896 67.4765L132.201 60.2751Z" fill="white"/>
<path d="M196.195 75.842C198.037 75.7455 200.443 76.6705 203.412 78.6173C206.314 80.5038 207.631 82.537 207.363 84.7171C207.088 86.7701 206.205 89.3646 204.713 92.5007C203.217 95.5732 202.134 97.3819 201.461 97.9268C195.903 102.486 188.391 105.014 178.925 105.51C177.082 105.607 175.265 105.575 173.473 105.414C171.681 105.253 169.947 104.993 168.272 104.635C167.8 105.361 167.079 108.01 166.108 112.584C165.968 113.547 165.347 113.867 164.247 113.542C163.274 113.211 162.793 112.535 162.803 111.515C162.934 110.362 163.155 109.108 163.466 107.754C163.777 106.4 164.212 104.975 164.771 103.481C161.394 102.256 158.693 100.55 156.667 98.3632C155.989 97.5706 155.427 97.1859 154.982 97.2092C154.601 97.2292 154.243 97.6939 153.909 98.6033C152.363 103.144 150.319 105.481 147.778 105.614C147.46 105.63 147.093 105.299 146.675 104.62C145.532 102.259 145.153 100.496 145.537 99.3287C145.979 98.0314 146.576 97.2675 147.328 97.037C150.592 96.1015 153.228 93.5107 155.235 89.2646C155.636 88.4154 156.282 87.9675 157.171 87.9209C158.124 87.8709 158.911 88.3074 159.533 89.2305C161.733 92.3005 165.22 94.4111 169.994 95.5624C172.63 92.3664 175.158 89.5583 177.58 87.138C185.038 79.9306 191.243 76.1653 196.195 75.842ZM201.147 90.1074C197.353 86.9936 193.21 85.7455 188.719 86.363C186.95 86.6469 184.347 88.0256 180.909 90.4992C179.19 91.7359 177.751 92.8307 176.59 93.7834C175.43 94.7361 174.55 95.5785 173.951 96.3107C177.666 96.6893 182.807 96.3243 189.374 95.2157C196.005 94.1037 199.914 92.7203 201.102 91.0654C201.466 90.7278 201.481 90.4084 201.147 90.1074Z" fill="white"/>
<path d="M59.7842 69.2696C60.5501 68.0827 61.0717 68.3102 61.3489 69.9521C61.4457 70.584 61.6695 71.8146 62.0201 73.6437C62.3708 75.4728 62.82 77.9656 63.3677 81.1222C63.912 84.2153 64.3294 86.7098 64.6199 88.6057C64.9706 90.4348 65.1927 91.6336 65.2862 92.202C66.0641 97.3215 67.3056 100.346 69.0107 101.276C70.0003 101.925 71.413 102.138 73.2487 101.914C74.3923 101.854 75.0943 102.486 75.3548 103.81C75.6187 105.198 75.5665 106.634 75.1984 108.119C74.8269 109.54 74.3269 110.33 73.6982 110.491C70.1538 110.931 67.4706 110.18 65.6487 108.237C63.7566 106.17 62.3514 102.453 61.4331 97.0864C59.8307 100.547 58.0965 102.708 56.2305 103.57C54.8594 104.152 52.9234 104.285 50.4224 103.97C47.7274 103.602 45.8166 103.001 44.69 102.168C43.4296 101.215 42.8631 100.13 42.9904 98.9129C43.1078 97.5052 43.6214 95.7583 44.5314 93.672C45.4982 91.4553 46.2525 90.0461 46.7943 89.4444C49.9917 86.0278 53.8443 82.9591 58.3523 80.2383C58.0252 77.6435 57.8283 75.7108 57.7617 74.4402C57.6951 73.1696 57.9278 72.1381 58.4596 71.3457L59.7842 69.2696ZM59.324 86.0165C54.4418 87.6739 50.9956 89.9887 48.9854 92.9608C48.7512 93.3553 48.8632 93.6679 49.3212 93.8988C50.6251 94.4675 52.1381 94.7704 53.8601 94.8076C55.5788 94.7812 57.5065 94.4891 59.6432 93.9312C59.9576 93.851 60.2953 93.6103 60.6566 93.2091C60.5397 92.196 60.3544 91.0908 60.1006 89.8937C59.9102 88.6933 59.6514 87.4009 59.324 86.0165ZM50.9202 53.298C51.0373 53.1008 51.2881 53.0239 51.6726 53.0675C52.7759 53.4556 53.8508 53.9089 54.8973 54.4274C55.9438 54.9459 56.9317 55.5631 57.8611 56.2788C58.1285 56.5196 58.1736 56.7721 57.9963 57.0362L54.2432 63.8265C54.1261 64.0237 53.8686 63.9735 53.4708 63.6758C53.2702 63.4952 52.7453 63.2042 51.8961 62.8028C51.1071 62.3345 49.9603 61.7256 48.4558 60.9763L45.4804 66.1969C45.3031 66.461 45.0156 66.4442 44.6178 66.1465C44.3536 65.9692 43.6967 65.5896 42.6469 65.0075C41.6606 64.4222 40.2497 63.6361 38.4143 62.6493C38.1535 62.5355 38.1134 62.3784 38.294 62.1778L42.1574 55.6684C42.2745 55.4712 42.4936 55.396 42.8145 55.4429C43.7842 55.7106 44.6952 56.0769 45.5478 56.5419C46.4639 57.0035 47.3181 57.5003 48.1104 58.0321L50.9202 53.298Z" fill="#FF4C29"/>
<path d="M82.6058 70.9403C83.4317 70.897 84.4748 71.352 85.7352 72.3053C91.7127 76.9611 94.7424 83.1092 94.8243 90.7496C94.8435 94.762 94.0252 97.9902 92.3695 100.434C87.9845 106.716 81.7578 110.068 73.6893 110.491C72.8634 110.534 72.2215 109.835 71.7638 108.394C71.5365 107.705 71.4347 106.978 71.4583 106.212C71.4183 105.45 71.4453 104.748 71.539 104.106C71.7266 102.822 72.2935 102.091 73.2398 101.914C81.1512 100.926 87.0033 98.3264 90.7961 94.1141C90.5022 92.1546 90.1514 90.9308 89.7436 90.4425C89.2623 89.767 88.8661 89.501 88.5551 89.6448C88.3043 89.7216 88.1521 89.857 88.0986 90.0509C87.1651 92.9029 85.5998 94.6413 83.4028 95.2661C76.4943 97.1571 73.1445 94.6251 73.3533 87.6702C73.4343 84.3533 74.5185 80.7289 76.6058 76.7972C78.5728 72.9992 80.5728 71.0469 82.6058 70.9403ZM80.0004 81.3972C78.606 81.534 77.8132 82.8178 77.6221 85.2487C77.6421 85.6299 77.6838 85.8188 77.7474 85.8155C79.038 86.1301 80.3454 86.1571 81.6695 85.8966C82.9302 85.6394 83.7662 85.1815 84.1776 84.5229C82.5932 82.2488 81.2008 81.2069 80.0004 81.3972ZM76.5012 51.0973C76.6183 50.9001 76.8691 50.8232 77.2536 50.8668C79.8415 51.623 82.1668 52.839 84.2295 54.5147C84.4969 54.7555 84.542 55.0079 84.3647 55.2721L80.2653 62.7494C80.0914 63.077 79.7721 63.0619 79.3074 62.704C79.0432 62.5267 78.3529 62.117 77.2362 61.4747C76.1195 60.8325 74.5131 59.9611 72.4168 58.8605C72.0892 58.6866 72.0156 58.4993 72.1963 58.2987L76.5012 51.0973Z" fill="#FF4C29"/>
<path d="M105.536 40.0198C105.767 39.5617 105.98 39.3595 106.174 39.413C106.491 39.3964 106.78 40.0502 107.041 41.3743C108.7 51.1618 109.904 59.5397 110.651 66.5082C111.315 73.0988 111.848 78.3904 112.248 82.3829C112.712 86.372 113.012 89.0638 113.149 90.4581C113.9 96.2797 117.24 99.2263 123.168 99.2978C124.89 99.335 125.617 100.444 125.349 102.624C124.957 106.084 124.38 107.835 123.618 107.875C115.295 108.311 110.645 104.668 109.667 96.9475C109.243 93.7207 108.851 90.4923 108.49 87.2622C108.19 83.9652 107.89 80.6682 107.59 77.3713C107.053 70.774 106.392 65.4573 105.607 61.4213C104.819 57.3217 103.812 52.6921 102.586 47.5325C102.345 46.5895 102.399 45.7903 102.747 45.135L105.536 40.0198Z" fill="#FF4C29"/>
<path d="M146.374 98.0816C147.535 98.3394 148.156 98.6571 148.24 99.035C148.394 99.5366 148.434 100.299 148.36 101.322C148.098 104.84 147.586 106.618 146.824 106.658C143.393 106.838 139.861 105.08 136.227 101.385C133.488 105.032 129.269 107.196 123.571 107.877C122.936 107.91 122.498 107.455 122.258 106.512L121.285 102.55C121.065 101.988 121.157 101.314 121.562 100.529C121.91 99.8734 122.43 99.4639 123.122 99.3002C130.08 98.3622 134.672 96.0193 136.896 92.2715C137.187 91.7466 137.619 91.4691 138.19 91.4392C138.762 91.4092 139.063 91.6801 139.093 92.2519C139.12 92.7602 139.203 93.138 139.344 93.3855C141.59 96.1345 143.934 97.6999 146.374 98.0816ZM131.261 61.3191C131.378 61.1218 131.628 61.045 132.013 61.0885C134.601 61.8448 136.926 63.0608 138.989 64.7364C139.256 64.9772 139.301 65.2297 139.124 65.4938L135.025 72.9711C134.851 73.2988 134.531 73.2836 134.067 72.9258C133.803 72.7485 133.112 72.3387 131.996 71.6965C130.879 71.0542 129.272 70.1828 127.176 69.0823C126.849 68.9083 126.775 68.7211 126.956 68.5205L131.261 61.3191Z" fill="#FF4C29"/>
<path d="M195.254 76.886C197.097 76.7894 199.502 77.7145 202.471 79.6612C205.373 81.5477 206.69 83.581 206.422 85.761C206.147 87.814 205.264 90.4085 203.772 93.5446C202.277 96.6172 201.193 98.4259 200.521 98.9707C194.962 103.53 187.45 106.058 177.984 106.554C176.142 106.651 174.324 106.619 172.532 106.458C170.74 106.297 169.006 106.037 167.331 105.679C166.859 106.405 166.138 109.054 165.168 113.628C165.027 114.591 164.407 114.911 163.307 114.586C162.334 114.255 161.852 113.579 161.863 112.559C161.993 111.406 162.214 110.152 162.526 108.798C162.837 107.444 163.272 106.019 163.831 104.525C160.454 103.3 157.752 101.594 155.726 99.4071C155.048 98.6145 154.486 98.2299 154.042 98.2532C153.66 98.2731 153.302 98.7378 152.968 99.6473C151.422 104.188 149.379 106.524 146.837 106.658C146.52 106.674 146.152 106.343 145.734 105.664C144.591 103.303 144.212 101.54 144.597 100.373C145.038 99.0754 145.635 98.3115 146.388 98.0809C149.651 97.1454 152.287 94.5546 154.294 90.3086C154.695 89.4593 155.341 89.0114 156.23 88.9648C157.183 88.9149 157.971 89.3514 158.592 90.2744C160.792 93.3444 164.279 95.4551 169.053 96.6064C171.689 93.4104 174.218 90.6022 176.639 88.1819C184.097 80.9745 190.302 77.2092 195.254 76.886ZM200.206 91.1514C196.412 88.0375 192.269 86.7894 187.779 87.407C186.01 87.6908 183.406 89.0695 179.969 91.5431C178.25 92.7799 176.81 93.8746 175.649 94.8273C174.489 95.78 173.609 96.6225 173.011 97.3546C176.725 97.7333 181.866 97.3683 188.434 96.2596C195.065 95.1477 198.974 93.7642 200.161 92.1093C200.526 91.7717 200.541 91.4524 200.206 91.1514Z" fill="#FF4C29"/>
<defs>
<linearGradient id="paint0_linear_2963_7918" x1="1.34878" y1="38.2952" x2="238.934" y2="25.8439" gradientUnits="userSpaceOnUse">
<stop stop-color="#062EBC"/>
<stop offset="1" stop-color="#002198"/>
</linearGradient>
<linearGradient id="paint1_linear_2963_7918" x1="1.34878" y1="38.2952" x2="238.934" y2="25.8439" gradientUnits="userSpaceOnUse">
<stop stop-color="#062EBC"/>
<stop offset="1" stop-color="#002198"/>
</linearGradient>
<linearGradient id="paint2_linear_2963_7918" x1="1.34878" y1="38.2952" x2="238.934" y2="25.8439" gradientUnits="userSpaceOnUse">
<stop stop-color="#062EBC"/>
<stop offset="1" stop-color="#002198"/>
</linearGradient>
<linearGradient id="paint3_linear_2963_7918" x1="1.34878" y1="38.2952" x2="238.934" y2="25.8439" gradientUnits="userSpaceOnUse">
<stop stop-color="#062EBC"/>
<stop offset="1" stop-color="#002198"/>
</linearGradient>
<linearGradient id="paint4_linear_2963_7918" x1="1.34878" y1="38.2952" x2="238.934" y2="25.8439" gradientUnits="userSpaceOnUse">
<stop stop-color="#062EBC"/>
<stop offset="1" stop-color="#002198"/>
</linearGradient>
</defs>
</svg>
