<svg width="54" height="54" viewBox="0 0 54 54" fill="none" xmlns="http://www.w3.org/2000/svg">
<g clip-path="url(#clip0_2943_7710)">
<path d="M54 0H0V54H54V0Z" fill="#FF7900"/>
<path d="M21.1839 48.7692C20.4512 49.2592 19.5888 49.5192 18.7074 49.5159C17.3053 49.5159 16.4766 48.5825 16.4766 47.3328C16.4766 45.6506 18.0234 44.7591 21.2106 44.399V43.9818C21.2106 43.4351 20.7953 43.1188 20.0294 43.1188C19.678 43.1089 19.3291 43.1819 19.0111 43.3318C18.693 43.4817 18.4147 43.7044 18.1987 43.9818L16.8652 43.2198C17.5662 42.2406 18.6343 41.7517 20.0695 41.7529C22.0278 41.7529 23.1175 42.6007 23.1175 43.9818C23.1175 43.9818 23.1175 49.415 23.1175 49.4302H21.3649L21.1839 48.7692ZM18.4121 47.188C18.4121 47.6928 18.7302 48.1653 19.3036 48.1653C19.9266 48.1653 20.5305 47.9062 21.1363 47.3728V45.5935C19.2884 45.8278 18.4121 46.3021 18.4121 47.1918V47.188Z" fill="white"/>
<path d="M24.6777 42.1146L26.3142 41.8879L26.4932 42.7795C27.4172 42.1032 28.1506 41.7432 29.0745 41.7432C30.6214 41.7432 31.4177 42.5642 31.4177 44.1892V49.4223H29.4422V44.534C29.4422 43.6139 29.2022 43.2005 28.4897 43.2005C27.8991 43.2005 27.3105 43.4729 26.6399 44.0349V49.4262H24.6777V42.1146Z" fill="white"/>
<path d="M44.5186 49.5652C42.303 49.5652 40.981 48.1422 40.981 45.6694C40.981 43.1967 42.3145 41.7432 44.4862 41.7432C46.658 41.7432 47.9438 43.1243 47.9438 45.5685C47.9438 45.698 47.9286 45.8276 47.9286 45.9495H42.9241C42.9393 47.3725 43.5299 48.0907 44.6939 48.0907C45.4425 48.0907 45.9359 47.7897 46.3989 47.1382L47.8486 47.9421C47.2104 49.0051 46.0636 49.5652 44.5186 49.5652ZM46.0007 44.6769C46.0007 43.6711 45.4292 43.0805 44.4862 43.0805C43.5947 43.0805 43.0365 43.652 42.9622 44.6769H46.0007Z" fill="white"/>
<path d="M6.6466 49.6466C4.69013 49.6466 2.92798 48.4007 2.92798 45.6803C2.92798 42.9599 4.69013 41.7197 6.6466 41.7197C8.60307 41.7197 10.3652 42.9675 10.3652 45.686C10.3652 48.4045 8.60116 49.6466 6.6466 49.6466ZM6.6466 43.3866C5.1702 43.3866 4.89588 44.7201 4.89588 45.6727C4.89588 46.6252 5.1702 47.9682 6.6466 47.9682C8.123 47.9682 8.39732 46.6347 8.39732 45.6727C8.39732 44.7106 8.123 43.3866 6.6466 43.3866Z" fill="white"/>
<path d="M11.7217 41.9107H13.6019V42.7947C13.8577 42.4892 14.1735 42.2394 14.5297 42.0608C14.8859 41.8822 15.2749 41.7786 15.6727 41.7564C15.758 41.7542 15.8434 41.7587 15.928 41.7697V43.6252H15.8327C14.9717 43.6252 14.0306 43.7586 13.7372 44.4273V49.4261H11.7217V41.9107Z" fill="white"/>
<path d="M36.2603 47.8166C37.7614 47.8052 37.8872 46.2792 37.8872 45.281C37.8872 44.1075 37.3157 43.1512 36.2469 43.1512C35.5364 43.1512 34.7439 43.6693 34.7439 45.3629C34.7439 46.2926 34.8086 47.8261 36.2603 47.8166ZM39.7884 41.8881V49.0034C39.7884 50.2608 39.6931 52.3277 36.1098 52.3506C34.6334 52.3506 33.2637 51.7695 32.9893 50.4779L34.942 50.1636C35.0239 50.5332 35.2487 50.9027 36.3555 50.9027C37.3823 50.9027 37.8796 50.4112 37.8796 49.2358V48.3614L37.8529 48.3348C37.5385 48.8948 37.0604 49.4282 35.9117 49.4282C34.1609 49.4282 32.7798 48.2128 32.7798 45.6715C32.7798 43.1588 34.2028 41.7529 35.8012 41.751C37.3004 41.751 37.8567 42.4311 37.9843 42.7911H37.9615L38.1234 41.8919L39.7884 41.8881Z" fill="white"/>
<path d="M48.7211 39.394H47.9439V41.5467H47.5324V39.394H46.7551V39.0625H48.7211V39.394ZM51.9597 41.5467H51.5501V39.4721H51.5368L50.7233 41.5467H50.4642L49.6508 39.4721H49.6393V41.5467H49.2298V39.0701H49.8622L50.6033 40.9561L51.3329 39.0701H51.9597V41.5467Z" fill="white"/>
</g>
<defs>
<clipPath id="clip0_2943_7710">
<rect width="54" height="54" fill="white"/>
</clipPath>
</defs>
</svg>
